<svg width="125" height="62" viewBox="0 0 125 62" fill="none" xmlns="http://www.w3.org/2000/svg">
<path d="M20.2391 26.7549C20.2391 28.589 21.1536 29.4183 21.1536 29.9195C21.1536 30.1675 21.071 30.2501 20.823 30.418L19.738 31.0845C19.6553 31.1672 19.4073 31.1672 19.2394 31.1672C19.2394 31.1672 18.5755 31.2499 17.5757 29.085C16.4106 30.5834 14.4964 31.5831 12.5821 31.4152C11.3344 31.5005 7.7539 30.7513 7.92181 26.8401C7.83915 23.7582 10.5826 21.844 13.6646 22.0093C14.2458 22.0093 15.4109 22.0093 17.4104 22.5105V21.2627C17.6584 19.1805 16.2453 17.5169 13.7472 17.7675C13.6646 17.7675 12.2489 17.7675 10.0014 18.5993C9.42015 18.9325 9.42015 18.9325 9.16956 18.9325C8.58831 18.9325 8.83631 17.2663 8.91898 16.9356C9.25481 16.4345 11.833 15.52 14.1631 15.52C15.8268 15.4373 17.4104 15.8532 18.7408 16.9356C19.8232 18.0981 20.2391 19.5965 20.1565 21.18L20.2391 26.7549ZM13.166 29.3382C15.7441 29.3382 16.9118 27.672 17.1598 26.8401C17.2425 26.0057 17.2425 25.5898 17.2425 24.5926C16.4106 24.5074 15.2456 24.2568 13.9978 24.2568C12.8327 24.1767 10.5026 24.758 10.5852 26.8401C10.7506 28.3385 11.6676 29.4183 13.166 29.3356M26.9816 31.1646C26.3151 31.2473 26.0646 30.8314 25.8966 30.3328L21.9054 17.101C21.8227 16.8504 21.8227 16.6024 21.8227 16.4345C21.8227 16.1865 21.9054 16.1012 22.156 16.1012H23.9049C24.5688 16.0185 24.8194 16.6024 24.9847 16.9356L27.8987 28.2532L30.6448 16.9356C30.7301 16.685 30.8954 16.0185 31.7298 16.1012H33.1429C33.2256 16.1012 34.0574 16.1012 34.2253 16.9356L36.8861 28.4211L39.8001 16.9356C39.8001 16.8504 40.0507 16.0185 40.8826 16.1012H42.5462C42.6315 16.1012 43.0474 16.0185 42.8821 16.7677C42.8821 16.8504 43.1301 15.8532 38.6351 30.418C38.5524 30.9166 38.3018 31.3325 37.5526 31.2499H36.0543C35.1398 31.3325 34.9745 30.418 34.9745 30.3354L32.0579 19.3485L29.3945 30.3354C29.3945 30.418 29.3118 31.2499 28.3121 31.2499H27.0643V31.1672L26.9816 31.1646ZM48.9529 31.6632C48.4543 31.6632 46.2921 31.6632 44.3752 30.7487C44.042 30.6635 43.7087 30.1649 43.7087 29.8316V28.9171C43.7087 28.2506 44.2099 28.3333 44.3752 28.4185C45.2071 28.7492 45.623 28.9998 46.7054 29.2504C49.6194 29.9169 50.9498 29.1677 51.2831 28.9171C52.3681 28.2506 52.4481 26.835 51.6189 26.0884C50.7845 25.4219 50.4512 25.4219 47.3719 24.4221C47.1213 24.2568 43.9619 23.2596 43.9619 20.1777C43.8766 17.9302 45.9562 15.6 49.5367 15.6C50.6191 15.6 53.2826 15.9333 54.1144 16.8478C54.1971 16.933 54.1971 17.1836 54.1971 17.4316V18.2635C54.1971 18.5967 54.1144 18.8473 53.8638 18.8473C53.1973 18.762 52.2001 17.9302 49.87 17.9302C49.2861 17.9302 46.6227 18.0129 46.7906 19.9271C46.7906 21.4255 49.0381 22.0093 49.2861 22.1746C52.2001 23.0917 53.28 23.2596 54.2797 24.6727C55.6954 26.419 54.9462 28.5012 54.613 29.0825C53.032 31.9965 49.1208 31.6658 48.9555 31.6658M52.2854 40.1546C46.708 44.2363 38.4697 46.4812 31.5619 46.4812C22.1007 46.6337 12.9356 43.1824 5.9249 36.8273C5.34106 36.3261 5.83965 35.6622 6.50615 36.1608C14.2874 40.52 23.0561 42.812 31.9752 42.818C38.6325 42.818 45.2071 41.405 51.3683 38.8242C52.3655 38.4083 53.1999 39.4055 52.2854 40.1546ZM54.613 37.4938C53.9465 36.5767 49.7847 37.158 48.0384 37.2432C47.4546 37.3259 47.3719 36.9074 47.9557 36.5767C51.2004 34.3292 56.5272 34.913 57.1085 35.6622C57.775 36.3261 57.0258 41.7382 53.8638 44.3164C53.3652 44.6522 52.9493 44.399 53.1973 43.9831C53.7811 42.1541 55.2795 38.4083 54.613 37.4912" fill="black"/>
<path d="M85.078 37.4995L83.23 33.1315C83.038 32.6995 83.014 32.6995 82.558 32.6995H74.782C74.326 32.6995 74.302 32.6995 74.11 33.1315L72.262 37.4995H70.822L77.95 20.6995H79.39L86.518 37.4995H85.078ZM77.638 24.7315L74.758 31.5715H82.582L79.702 24.7315L78.67 22.2835L77.638 24.7315ZM104.038 31.9795L107.47 21.0355C107.566 20.6995 107.59 20.6995 107.95 20.6995H108.982L103.678 37.4995H102.166L98.7097 27.1795L97.2457 22.5235L95.7817 27.1795L92.3257 37.4995H90.8137L86.0377 22.3795C85.7257 21.3715 85.1977 20.9395 84.7177 20.9395V20.6995H85.7977C86.4937 20.6995 86.9737 20.9875 87.1897 21.6595L90.4537 31.9795L91.6537 36.0115L92.9017 31.9795L96.6697 20.6995H97.8217L101.59 31.9795L102.838 36.0115L104.038 31.9795ZM110.408 35.5795L110.96 34.5955C112.064 35.4835 114.032 36.4675 117.032 36.4675C119.624 36.4675 121.832 35.6035 121.832 33.2515C121.832 30.4195 119.552 29.9635 116.936 29.5315C114.176 29.0755 111.056 28.2355 111.056 24.8755C111.056 21.9955 113.696 20.5795 116.84 20.5795C119.096 20.5795 121.448 21.2755 122.84 22.4035L122.288 23.3635C121.064 22.4275 118.928 21.7075 116.84 21.7075C114.416 21.7075 112.376 22.6195 112.376 24.8515C112.376 27.0835 114.536 27.7795 116.936 28.1635C119.768 28.6195 123.176 29.3875 123.176 33.0595C123.176 36.2995 120.368 37.6195 116.888 37.6195C114.032 37.6195 111.824 36.7315 110.408 35.5795Z" fill="#1E1E1E"/>
</svg>
