<svg width="153" height="62" viewBox="0 0 153 62" fill="none" xmlns="http://www.w3.org/2000/svg">
<g clip-path="url(#clip0_285_777)">
<path d="M5.6665 47.6336L15.199 40.3279C20.2649 46.9413 25.646 49.987 31.6368 49.987C37.5965 49.987 42.8226 46.9748 47.6612 40.4183L57.3332 47.5458C50.353 57.0008 41.6808 61.9995 31.6368 61.9995C21.6263 61.9995 12.8688 57.0343 5.6665 47.6336ZM31.6032 15.887L14.6358 30.5087L6.79284 21.4153L31.6419 -0.000488281L56.2947 21.4308L48.4155 30.4958L31.6032 15.887Z" fill="black"/>
</g>
<path d="M79.711 20.5795C82.375 20.5795 84.391 21.2755 85.663 22.5955L84.943 23.4355C83.743 22.3075 82.111 21.7075 79.711 21.7075C75.823 21.7075 73.543 23.2915 73.543 27.0355V31.1635C73.543 34.9075 75.823 36.4915 79.711 36.4915C82.111 36.4915 83.743 35.8915 84.943 34.7635L85.663 35.6035C84.391 36.9235 82.375 37.6195 79.711 37.6195C75.151 37.6195 72.223 35.6275 72.223 31.2115V26.9875C72.223 22.5715 75.151 20.5795 79.711 20.5795ZM87.8155 19.7395H88.8955C89.6395 19.7395 90.1915 20.1955 90.2155 20.8675V34.7155C90.2155 35.9155 90.3595 36.4195 91.7035 36.4195C91.8955 36.4195 92.2315 36.3955 92.5195 36.3475L92.6395 37.4035C92.3515 37.4515 91.9435 37.4995 91.6795 37.4995C90.7195 37.4995 88.8955 37.6435 88.8955 34.7155V21.4195C88.8955 20.5075 88.4635 19.9795 87.8155 19.9795V19.7395ZM94.0733 25.1395V24.8995H95.1533C95.8973 24.8995 96.4493 25.3555 96.4733 26.0275V37.4995H95.1533V26.5795C95.1533 25.6675 94.7213 25.1395 94.0733 25.1395ZM94.6973 21.6115C94.6973 21.0355 95.1533 20.5795 95.7053 20.5795C96.2813 20.5795 96.7373 21.0355 96.7373 21.6115C96.7373 22.1635 96.2813 22.6195 95.7053 22.6195C95.1533 22.6195 94.6973 22.1635 94.6973 21.6115ZM105.628 24.7795C107.908 24.7795 109.18 25.5235 109.924 26.3155L109.3 27.0595C108.676 26.5555 107.692 25.8595 105.628 25.8595C103.012 25.8595 101.548 27.2995 101.548 29.4355V32.9395C101.548 35.0755 103.012 36.5395 105.628 36.5395C107.692 36.5395 108.676 35.8435 109.3 35.3395L109.924 36.0835C109.18 36.8755 107.908 37.6195 105.628 37.6195C102.148 37.6195 100.228 35.7955 100.228 32.9395V29.4355C100.228 26.5795 102.148 24.7795 105.628 24.7795ZM115.466 30.4435L121.13 25.0675C121.298 24.8995 121.298 24.8995 121.538 24.8995H122.93L117.914 29.6755L123.482 37.4995H122.234C121.874 37.4995 121.85 37.4995 121.658 37.2115L117.002 30.5395L114.122 33.2755V37.4995H112.802V21.4195C112.802 20.5075 112.37 19.9795 111.722 19.9795V19.7395H112.802C113.546 19.7395 114.098 20.1955 114.122 20.8675V31.7875L115.466 30.4435ZM136.135 37.4995H135.535C135.295 37.4995 135.295 37.4995 135.247 37.2595L134.839 35.3875C133.999 36.6355 132.607 37.6195 130.471 37.6195C127.543 37.6195 125.575 35.9395 125.575 32.9635V26.4595C125.575 25.5475 125.143 25.0195 124.495 25.0195V24.7795H125.575C126.319 24.7795 126.871 25.2355 126.895 25.9075V32.9635C126.895 35.2435 128.047 36.5395 130.663 36.5395C133.279 36.5395 134.815 34.5955 134.815 32.4595V24.7795H136.135V37.4995ZM139.026 25.1395V24.8995H140.106C140.85 24.8995 141.402 25.3555 141.426 26.0275V27.0355C142.29 25.7635 143.754 24.7795 145.89 24.7795C148.818 24.7795 150.906 26.5795 150.906 29.4355V32.9635C150.906 35.8195 148.818 37.6195 145.89 37.6195C143.754 37.6195 142.29 36.6355 141.426 35.3635V42.0595H140.106V26.5795C140.106 25.6675 139.674 25.1395 139.026 25.1395ZM141.426 29.9395V32.4595C141.426 34.5955 143.082 36.5395 145.698 36.5395C148.314 36.5395 149.586 35.0995 149.586 32.9635V29.4355C149.586 27.2995 148.314 25.8595 145.698 25.8595C143.082 25.8595 141.426 27.8035 141.426 29.9395Z" fill="#1E1E1E"/>
<defs>
<clipPath id="clip0_285_777">
<rect width="62" height="62" fill="white" transform="translate(0.5 -0.000488281)"/>
</clipPath>
</defs>
</svg>
