<svg width="117" height="62" viewBox="0 0 117 62" fill="none" xmlns="http://www.w3.org/2000/svg">
<path d="M20.6668 12.916C19.2401 12.916 18.0835 14.0726 18.0835 15.4993C18.0835 16.9261 19.2401 18.0827 20.6668 18.0827H31.6057L21.9685 23.5897C20.9514 24.1709 20.4527 25.3636 20.7534 26.4958C21.054 27.6278 22.0788 28.416 23.2502 28.416H35.6502C35.9356 28.416 36.1668 28.6472 36.1668 28.9327V34.8818C36.1668 35.019 36.1123 35.1505 36.0154 35.2474L31.3654 39.8974C31.1637 40.0991 30.8366 40.0991 30.6349 39.8974L25.0769 34.3393C24.068 33.3305 22.4323 33.3305 21.4235 34.3393C20.4146 35.3481 20.4146 36.9839 21.4235 37.9927L29.1735 45.7427C30.1823 46.7515 31.818 46.7515 32.8268 45.7427L40.5768 37.9927C41.0612 37.5083 41.3335 36.8511 41.3335 36.166V25.8327C41.3335 24.406 40.1769 23.2493 38.7502 23.2493H32.978L42.6151 17.7423C43.6321 17.1612 44.131 15.9684 43.8303 14.8363C43.5296 13.7042 42.5048 12.916 41.3335 12.916H20.6668Z" fill="#0F0F0F"/>
<path fill-rule="evenodd" clip-rule="evenodd" d="M11.124 2.58301C6.40778 2.58301 2.78494 6.76015 3.4519 11.429L7.5052 39.8021C7.76739 41.6373 8.67873 43.3178 10.0739 44.5387L25.8968 58.3835C28.8188 60.9403 33.1815 60.9403 36.1035 58.3835L51.9264 44.5387C53.3214 43.3178 54.2328 41.6373 54.495 39.8021L58.5483 11.429C59.2153 6.76015 55.5924 2.58301 50.8763 2.58301H11.124ZM8.56664 10.6983C8.34432 9.14207 9.55193 7.74967 11.124 7.74967H50.8763C52.4483 7.74967 53.656 9.14207 53.4335 10.6983L49.3803 39.0713C49.293 39.683 48.9892 40.2434 48.5242 40.6502L32.7013 54.4951C31.7273 55.3473 30.2729 55.3473 29.299 54.4951L13.4762 40.6502C13.0111 40.2434 12.7073 39.683 12.6199 39.0713L8.56664 10.6983Z" fill="#0F0F0F"/>
<path d="M79.3243 20.5795C81.9883 20.5795 84.0043 21.2755 85.2763 22.5955L84.5563 23.4355C83.3563 22.3075 81.7243 21.7075 79.3243 21.7075C75.4363 21.7075 73.1562 23.2915 73.1562 27.0355V31.1635C73.1562 34.9075 75.4363 36.4915 79.3243 36.4915C81.7243 36.4915 83.3563 35.8915 84.5563 34.7635L85.2763 35.6035C84.0043 36.9235 81.9883 37.6195 79.3243 37.6195C74.7643 37.6195 71.8363 35.6275 71.8363 31.2115V26.9875C71.8363 22.5715 74.7643 20.5795 79.3243 20.5795ZM87.5761 35.5795L88.1281 34.5955C89.2321 35.4835 91.2001 36.4675 94.2001 36.4675C96.7921 36.4675 99.0001 35.6035 99.0001 33.2515C99.0001 30.4195 96.7201 29.9635 94.1041 29.5315C91.3441 29.0755 88.2241 28.2355 88.2241 24.8755C88.2241 21.9955 90.8641 20.5795 94.0081 20.5795C96.2641 20.5795 98.6161 21.2755 100.008 22.4035L99.4561 23.3635C98.2321 22.4275 96.0961 21.7075 94.0081 21.7075C91.5841 21.7075 89.5441 22.6195 89.5441 24.8515C89.5441 27.0835 91.7041 27.7795 94.1041 28.1635C96.9361 28.6195 100.344 29.3875 100.344 33.0595C100.344 36.2995 97.5361 37.6195 94.0561 37.6195C91.2001 37.6195 88.9921 36.7315 87.5761 35.5795ZM102.834 35.5795L103.386 34.5955C104.49 35.4835 106.458 36.4675 109.458 36.4675C112.05 36.4675 114.258 35.6035 114.258 33.2515C114.258 30.4195 111.978 29.9635 109.362 29.5315C106.602 29.0755 103.482 28.2355 103.482 24.8755C103.482 21.9955 106.122 20.5795 109.266 20.5795C111.522 20.5795 113.874 21.2755 115.266 22.4035L114.714 23.3635C113.49 22.4275 111.354 21.7075 109.266 21.7075C106.842 21.7075 104.802 22.6195 104.802 24.8515C104.802 27.0835 106.962 27.7795 109.362 28.1635C112.194 28.6195 115.602 29.3875 115.602 33.0595C115.602 36.2995 112.794 37.6195 109.314 37.6195C106.458 37.6195 104.25 36.7315 102.834 35.5795Z" fill="#1E1E1E"/>
</svg>
