<svg width="147" height="62" viewBox="0 0 147 62" fill="none" xmlns="http://www.w3.org/2000/svg">
<path d="M56.8426 26.4787C56.6876 26.3754 55.3959 25.3679 52.6059 25.3679C51.8826 25.3679 51.1593 25.4454 50.4359 25.5746C49.8934 21.9579 46.8709 20.1237 46.7417 20.0462L45.9926 19.6071L45.5276 20.3046C44.9076 21.2346 44.4168 22.2937 44.2101 23.3787C43.6934 25.4454 44.0034 27.4087 45.0626 29.0879C43.7967 29.8112 41.7301 29.9921 41.2909 29.9921H7.26841C6.39008 29.9921 5.66675 30.7154 5.66675 31.6196C5.66675 34.5904 6.13175 37.5612 7.16508 40.3512C8.32758 43.4254 10.0842 45.6987 12.3317 47.0937C14.8634 48.6437 19.0226 49.5221 23.7501 49.5221C25.7909 49.5221 27.9093 49.3412 30.0017 48.9537C32.8951 48.4371 35.6851 47.4296 38.2426 45.9571C40.3607 44.7459 42.2565 43.182 43.8484 41.3329C46.5609 38.3104 48.1626 34.8746 49.3251 31.9037H49.8159C52.7609 31.9037 54.5951 30.7154 55.6026 29.7079C56.2743 29.0879 56.7651 28.3387 57.1268 27.4604L57.3334 26.8404L56.8426 26.4787ZM10.4459 29.0362H14.9926C15.1992 29.0362 15.4059 28.8554 15.4059 28.6229V24.5412C15.4059 24.3346 15.2251 24.1279 14.9926 24.1279H10.4459C10.2134 24.1279 10.0326 24.3087 10.0326 24.5412V28.6229C10.0584 28.8554 10.2134 29.0362 10.4459 29.0362ZM16.7234 29.0362H21.2701C21.4767 29.0362 21.6834 28.8554 21.6834 28.6229V24.5412C21.6834 24.3346 21.5026 24.1279 21.2701 24.1279H16.7234C16.4909 24.1279 16.3101 24.3087 16.3101 24.5412V28.6229C16.3359 28.8554 16.4909 29.0362 16.7234 29.0362ZM23.1042 29.0362H27.6251C27.8834 29.0362 28.0642 28.8554 28.0642 28.6229V24.5412C28.0642 24.3346 27.9093 24.1279 27.6251 24.1279H23.1042C22.8976 24.1279 22.7167 24.3087 22.7167 24.5412V28.6229C22.7167 28.8554 22.8717 29.0362 23.1042 29.0362ZM29.4076 29.0362H33.9801C34.1868 29.0362 34.3676 28.8554 34.3676 28.6229V24.5412C34.3676 24.3346 34.2126 24.1279 33.9801 24.1279H29.4076C29.2009 24.1279 29.0201 24.3087 29.0201 24.5412V28.6229C29.0201 28.8554 29.2009 29.0362 29.4076 29.0362ZM16.7234 23.2496H21.2701C21.4767 23.2496 21.6834 23.0171 21.6834 22.7846V18.7287C21.6834 18.4962 21.5026 18.3154 21.2701 18.3154H16.7234C16.4909 18.3154 16.3101 18.4704 16.3101 18.7287V22.7846C16.3359 23.0171 16.4909 23.2496 16.7234 23.2496ZM23.1042 23.2496H27.6251C27.8834 23.2496 28.0642 23.0171 28.0642 22.7846V18.7287C28.0642 18.4962 27.9093 18.3154 27.6251 18.3154H23.1042C22.8976 18.3154 22.7167 18.4704 22.7167 18.7287V22.7846C22.7167 23.0171 22.8717 23.2496 23.1042 23.2496ZM29.4076 23.2496H33.9801C34.1868 23.2496 34.3676 23.0171 34.3676 22.7846V18.7287C34.3676 18.4962 34.1868 18.3154 33.9801 18.3154H29.4076C29.2009 18.3154 29.0201 18.4704 29.0201 18.7287V22.7846C29.0201 23.0171 29.2009 23.2496 29.4076 23.2496ZM29.4076 17.3596H33.9801C34.1868 17.3596 34.3676 17.1787 34.3676 16.9462V12.9162C34.3676 12.6579 34.1868 12.4771 33.9801 12.4771H29.4076C29.2009 12.4771 29.0201 12.6321 29.0201 12.9162V16.9462C29.0201 17.1529 29.2009 17.3596 29.4076 17.3596ZM35.7626 29.0362H40.3092C40.5417 29.0362 40.7226 28.8554 40.7226 28.6229V24.5412C40.7226 24.3346 40.5417 24.1279 40.3092 24.1279H35.7626C35.5559 24.1279 35.3751 24.3087 35.3751 24.5412V28.6229C35.3751 28.8554 35.5559 29.0362 35.7626 29.0362Z" fill="black"/>
<path d="M83.2663 37.4995H82.6663C82.4263 37.4995 82.4263 37.4995 82.3783 37.2595L81.9703 35.3635C81.1063 36.6355 79.6423 37.6195 77.4823 37.6195C74.5543 37.6195 72.4663 35.8195 72.4663 32.9635V29.4355C72.4663 26.5795 74.5543 24.7795 77.4823 24.7795C79.6183 24.7795 81.0823 25.7635 81.9463 27.0355V21.4195C81.9463 20.5075 81.5143 19.9795 80.8663 19.9795V19.7395H81.9463C82.6903 19.7395 83.2422 20.1955 83.2663 20.8675V37.4995ZM77.6743 36.5395C80.2903 36.5395 81.9463 34.5955 81.9463 32.4595V29.9395C81.9463 27.8035 80.2903 25.8595 77.6743 25.8595C75.0583 25.8595 73.7863 27.2995 73.7863 29.4355V32.9635C73.7863 35.0995 75.0583 36.5395 77.6743 36.5395ZM86.7397 32.9635V29.4355C86.7397 26.5795 88.6597 24.7795 92.1397 24.7795C95.6197 24.7795 97.5397 26.5795 97.5397 29.4355V32.9635C97.5397 35.8195 95.6197 37.6195 92.1397 37.6195C88.6597 37.6195 86.7397 35.8195 86.7397 32.9635ZM88.0597 29.4355V32.9635C88.0597 35.0995 89.5237 36.5395 92.1397 36.5395C94.7557 36.5395 96.2197 35.0995 96.2197 32.9635V29.4355C96.2197 27.2995 94.7557 25.8595 92.1397 25.8595C89.5237 25.8595 88.0597 27.2995 88.0597 29.4355ZM106.062 24.7795C108.342 24.7795 109.614 25.5235 110.358 26.3155L109.734 27.0595C109.11 26.5555 108.126 25.8595 106.062 25.8595C103.446 25.8595 101.982 27.2995 101.982 29.4355V32.9395C101.982 35.0755 103.446 36.5395 106.062 36.5395C108.126 36.5395 109.11 35.8435 109.734 35.3395L110.358 36.0835C109.614 36.8755 108.342 37.6195 106.062 37.6195C102.582 37.6195 100.662 35.7955 100.662 32.9395V29.4355C100.662 26.5795 102.582 24.7795 106.062 24.7795ZM115.899 30.4435L121.563 25.0675C121.731 24.8995 121.731 24.8995 121.971 24.8995H123.363L118.347 29.6755L123.915 37.4995H122.667C122.307 37.4995 122.283 37.4995 122.091 37.2115L117.435 30.5395L114.555 33.2755V37.4995H113.235V21.4195C113.235 20.5075 112.803 19.9795 112.155 19.9795V19.7395H113.235C113.979 19.7395 114.531 20.1955 114.555 20.8675V31.7875L115.899 30.4435ZM135.782 29.4355V31.4995C135.782 31.7395 135.782 31.7395 135.542 31.7395H126.614V32.9635C126.614 35.0995 127.91 36.5395 130.526 36.5395C132.302 36.5395 133.55 35.7715 134.414 34.5475L135.23 35.2195C134.438 36.5875 132.926 37.6195 130.526 37.6195C127.046 37.6195 125.294 35.8195 125.294 32.9635V29.4355C125.294 26.5795 127.046 24.7795 130.526 24.7795C134.006 24.7795 135.782 26.5795 135.782 29.4355ZM126.614 29.4355V30.6595H134.462V29.4355C134.462 27.2995 133.142 25.8595 130.526 25.8595C127.91 25.8595 126.614 27.2995 126.614 29.4355ZM138.312 24.8995H139.344C140.088 24.8995 140.64 25.3555 140.664 26.0275V27.0595C141.432 25.6675 142.704 24.7795 144.528 24.7795C145.128 24.7795 145.416 24.8755 145.608 24.9475L145.392 26.0515C145.224 25.9795 144.84 25.9315 144.528 25.9315C142.224 25.9315 140.712 27.5395 140.712 29.9395V37.4995H139.392V26.5795C139.392 25.6675 138.96 25.1395 138.312 25.1395V24.8995Z" fill="#1E1E1E"/>
</svg>
