<svg width="86" height="29" viewBox="0 0 86 29" fill="none" xmlns="http://www.w3.org/2000/svg">
<g clip-path="url(#clip0_117_256)">
<path d="M11.983 15.2066C11.8079 15.075 11.5984 14.997 11.3799 14.982C11.1614 14.967 10.9432 15.0157 10.7518 15.1222L7.61242 16.9347C7.52726 16.9776 7.45379 17.0406 7.39833 17.1182C7.34288 17.1958 7.30709 17.2856 7.29404 17.3801C7.29494 17.4786 7.32128 17.5751 7.37051 17.6604C7.41973 17.7456 7.49017 17.8167 7.57498 17.8667L11.8609 20.342L11.9253 28.2473C11.9234 28.3463 11.9485 28.4439 11.998 28.5297C12.0475 28.6154 12.1195 28.6861 12.2062 28.7339C12.2886 28.7794 12.3818 28.8019 12.4759 28.7992C12.57 28.7964 12.6616 28.7683 12.7412 28.718L15.8806 26.9055C16.0653 26.791 16.2122 26.6246 16.3029 26.4271C16.3936 26.2295 16.424 26.0097 16.3904 25.7949L16.3187 17.7682L11.983 15.2066Z" fill="#1E1E1E"/>
<path d="M2.61018 3.77899C2.52393 3.73219 2.42736 3.70768 2.32924 3.70768C2.23111 3.70768 2.13455 3.73219 2.0483 3.77899C1.97159 3.83256 1.90973 3.90473 1.86851 3.98874C1.8273 4.07275 1.80809 4.16584 1.81268 4.2593L1.81268 7.9568C1.81872 8.17078 1.88831 8.37811 2.01257 8.55241C2.13684 8.72671 2.31017 8.86008 2.51049 8.93555C2.51049 8.93555 16.4939 16.8199 16.9471 17.0918L26.4899 11.8899C26.691 11.8051 26.8637 11.6645 26.9874 11.4846C27.111 11.3047 27.1806 11.0931 27.1877 10.8749L27.1877 7.24992C27.1957 7.15474 27.1781 7.05915 27.1366 6.97309C27.0952 6.88703 27.0315 6.81363 26.9521 6.76055C26.8666 6.71123 26.7697 6.68527 26.6711 6.68527C26.5725 6.68527 26.4756 6.71123 26.3902 6.76055L16.9652 11.9171L2.61018 3.77899Z" fill="#1E1E1E"/>
</g>
<path d="M39.392 10.416H35.276V8.16H46.04V10.416H41.924V24H39.392V10.416ZM50.9347 24.288C49.9027 24.288 48.9827 24.064 48.1747 23.616C47.3747 23.16 46.7467 22.544 46.2907 21.768C45.8347 20.984 45.6067 20.096 45.6067 19.104C45.6067 18.112 45.8347 17.22 46.2907 16.428C46.7467 15.636 47.3747 15.012 48.1747 14.556C48.9827 14.092 49.9027 13.86 50.9347 13.86C51.9667 13.86 52.8787 14.092 53.6707 14.556C54.4627 15.012 55.0827 15.636 55.5307 16.428C55.9867 17.22 56.2147 18.112 56.2147 19.104C56.2147 20.096 55.9867 20.984 55.5307 21.768C55.0827 22.544 54.4627 23.16 53.6707 23.616C52.8787 24.064 51.9667 24.288 50.9347 24.288ZM50.9347 22.128C51.5107 22.128 52.0107 21.996 52.4347 21.732C52.8587 21.468 53.1867 21.108 53.4187 20.652C53.6507 20.196 53.7667 19.676 53.7667 19.092C53.7667 18.508 53.6507 17.988 53.4187 17.532C53.1867 17.068 52.8587 16.7 52.4347 16.428C52.0107 16.156 51.5107 16.02 50.9347 16.02C50.3587 16.02 49.8547 16.156 49.4227 16.428C48.9987 16.7 48.6667 17.068 48.4267 17.532C48.1947 17.988 48.0787 18.508 48.0787 19.092C48.0787 19.676 48.1947 20.196 48.4267 20.652C48.6667 21.108 48.9987 21.468 49.4227 21.732C49.8547 21.996 50.3587 22.128 50.9347 22.128ZM62.2953 13.86C62.8473 13.86 63.3593 13.912 63.8313 14.016C64.3033 14.12 64.7073 14.244 65.0433 14.388C65.3793 14.532 65.6113 14.652 65.7393 14.748L64.8033 16.332C64.6433 16.196 64.3553 16.04 63.9393 15.864C63.5313 15.688 63.0713 15.6 62.5593 15.6C62.0473 15.6 61.6153 15.692 61.2633 15.876C60.9113 16.06 60.7353 16.336 60.7353 16.704C60.7353 17.064 60.9193 17.352 61.2873 17.568C61.6633 17.784 62.1713 17.964 62.8113 18.108C63.3393 18.228 63.8433 18.396 64.3233 18.612C64.8033 18.82 65.1953 19.12 65.4993 19.512C65.8113 19.896 65.9673 20.412 65.9673 21.06C65.9673 21.676 65.8353 22.192 65.5713 22.608C65.3153 23.016 64.9713 23.344 64.5393 23.592C64.1073 23.84 63.6273 24.016 63.0993 24.12C62.5793 24.232 62.0553 24.288 61.5273 24.288C60.8793 24.288 60.2993 24.224 59.7873 24.096C59.2833 23.968 58.8633 23.82 58.5273 23.652C58.1913 23.476 57.9513 23.328 57.8073 23.208L58.7433 21.432C58.9513 21.632 59.2913 21.844 59.7633 22.068C60.2353 22.284 60.7633 22.392 61.3473 22.392C61.9713 22.392 62.4713 22.272 62.8473 22.032C63.2233 21.792 63.4113 21.472 63.4113 21.072C63.4113 20.776 63.3193 20.536 63.1353 20.352C62.9593 20.168 62.7153 20.02 62.4033 19.908C62.0913 19.796 61.7433 19.696 61.3593 19.608C60.9993 19.52 60.6353 19.408 60.2673 19.272C59.9073 19.128 59.5753 18.944 59.2713 18.72C58.9673 18.488 58.7233 18.2 58.5393 17.856C58.3553 17.512 58.2633 17.108 58.2633 16.644C58.2633 16.052 58.4513 15.548 58.8273 15.132C59.2033 14.716 59.6993 14.4 60.3153 14.184C60.9313 13.968 61.5913 13.86 62.2953 13.86ZM68.4425 24V14.148H70.9985V24H68.4425ZM69.7505 11.196C69.3185 11.196 68.9465 11.04 68.6345 10.728C68.3305 10.416 68.1785 10.044 68.1785 9.612C68.1785 9.18 68.3305 8.808 68.6345 8.496C68.9465 8.176 69.3185 8.016 69.7505 8.016C70.0385 8.016 70.3025 8.092 70.5425 8.244C70.7905 8.388 70.9865 8.58 71.1305 8.82C71.2825 9.052 71.3585 9.316 71.3585 9.612C71.3585 10.044 71.2025 10.416 70.8905 10.728C70.5785 11.04 70.1985 11.196 69.7505 11.196ZM79.8847 13.86C80.5487 13.86 81.1927 13.996 81.8167 14.268C82.4407 14.54 82.9527 14.976 83.3527 15.576C83.7607 16.168 83.9647 16.94 83.9647 17.892V24H81.3847V18.36C81.3847 17.472 81.1727 16.82 80.7487 16.404C80.3327 15.98 79.7927 15.768 79.1287 15.768C78.6887 15.768 78.2687 15.892 77.8687 16.14C77.4687 16.388 77.1407 16.724 76.8847 17.148C76.6367 17.572 76.5127 18.06 76.5127 18.612V24H73.9447V14.148H76.5127V15.804C76.5847 15.532 76.7767 15.248 77.0887 14.952C77.4087 14.648 77.8127 14.392 78.3007 14.184C78.7887 13.968 79.3167 13.86 79.8847 13.86Z" fill="#1E1E1E"/>
<defs>
<clipPath id="clip0_117_256">
<rect width="29" height="29" fill="white" transform="translate(0 29) rotate(-90)"/>
</clipPath>
</defs>
</svg>
