<svg width="101" height="62" viewBox="0 0 101 62" fill="none" xmlns="http://www.w3.org/2000/svg">
<path fill-rule="evenodd" clip-rule="evenodd" d="M33.467 2.30621C33.1431 1.98205 32.7585 1.72489 32.3352 1.54945C31.9119 1.374 31.4581 1.28369 30.9999 1.28369C30.5416 1.28369 30.0879 1.374 29.6646 1.54945C29.2413 1.72489 28.8567 1.98205 28.5328 2.30621L21.2865 9.55762C21.8523 10.095 22.3974 10.6168 22.6815 10.901L28.494 16.7135C29.5787 16.1954 30.7972 16.0264 31.9819 16.2297C33.1666 16.4329 34.2591 16.9985 35.1091 17.8484C35.959 18.6984 36.5246 19.7909 36.7278 20.9756C36.9311 22.1602 36.7621 23.3788 36.244 24.4635L39.4732 27.6926C40.7105 27.1014 42.1169 26.9666 43.4439 27.3121C44.7709 27.6576 45.933 28.4612 46.7249 29.5807C47.5167 30.7003 47.8872 32.0637 47.7709 33.43C47.6546 34.7963 47.059 36.0775 46.0894 37.0471C45.1198 38.0168 43.8386 38.6124 42.4723 38.7286C41.1059 38.8449 39.7425 38.4744 38.623 37.6826C37.5034 36.8908 36.6999 35.7287 36.3544 34.4016C36.0089 33.0746 36.1436 31.6682 36.7349 30.431L33.5057 27.207C33.321 27.2957 33.1313 27.3733 32.9374 27.4395V37.145C34.2308 37.6021 35.321 38.5018 36.0153 39.6849C36.7096 40.8681 36.9632 42.2587 36.7313 43.6107C36.4994 44.9628 35.797 46.1894 34.7482 47.0737C33.6994 47.9579 32.3717 48.4429 30.9999 48.4429C29.628 48.4429 28.3004 47.9579 27.2516 47.0737C26.2028 46.1894 25.5003 44.9628 25.2685 43.6107C25.0366 42.2587 25.2902 40.8681 25.9845 39.6849C26.6787 38.5018 27.7689 37.6021 29.0624 37.145V27.442C28.2933 27.1704 27.5901 26.7399 26.9983 26.1786C26.4066 25.6173 25.9396 24.9377 25.6277 24.1841C25.3158 23.4305 25.1661 22.6196 25.1881 21.8043C25.2102 20.989 25.4036 20.1875 25.7557 19.4518L19.9432 13.6393C19.752 13.4507 19.194 12.8669 18.5999 12.2417L2.30938 28.5322C1.98522 28.8561 1.72807 29.2407 1.55262 29.664C1.37717 30.0873 1.28687 30.5411 1.28687 30.9993C1.28687 31.4575 1.37717 31.9113 1.55262 32.3346C1.72807 32.7579 1.98522 33.1425 2.30938 33.4664L28.5328 59.6872C28.8567 60.0114 29.2413 60.2685 29.6646 60.444C30.0879 60.6194 30.5416 60.7097 30.9999 60.7097C31.4581 60.7097 31.9119 60.6194 32.3352 60.444C32.7585 60.2685 33.1431 60.0114 33.467 59.6872L59.6904 33.4664C60.0145 33.1425 60.2717 32.7579 60.4471 32.3346C60.6226 31.9113 60.7129 31.4575 60.7129 30.9993C60.7129 30.5411 60.6226 30.0873 60.4471 29.664C60.2717 29.2407 60.0145 28.8561 59.6904 28.5322L33.467 2.30621ZM30.9999 40.6868C30.486 40.6868 29.9932 40.8909 29.6299 41.2543C29.2665 41.6176 29.0624 42.1104 29.0624 42.6243C29.0624 43.1381 29.2665 43.631 29.6299 43.9943C29.9932 44.3577 30.486 44.5618 30.9999 44.5618C31.5137 44.5618 32.0065 44.3577 32.3699 43.9943C32.7332 43.631 32.9374 43.1381 32.9374 42.6243C32.9374 42.1104 32.7332 41.6176 32.3699 41.2543C32.0065 40.8909 31.5137 40.6868 30.9999 40.6868ZM32.9374 21.9576C32.9374 22.4715 32.7332 22.9643 32.3699 23.3276C32.0065 23.691 31.5137 23.8951 30.9999 23.8951C30.486 23.8951 29.9932 23.691 29.6299 23.3276C29.2665 22.9643 29.0624 22.4715 29.0624 21.9576C29.0624 21.4438 29.2665 20.951 29.6299 20.5876C29.9932 20.2243 30.486 20.0201 30.9999 20.0201C31.5137 20.0201 32.0065 20.2243 32.3699 20.5876C32.7332 20.951 32.9374 21.4438 32.9374 21.9576ZM40.0415 32.9368C40.0415 32.4229 40.2457 31.9301 40.609 31.5668C40.9724 31.2034 41.4652 30.9993 41.979 30.9993C42.4929 30.9993 42.9857 31.2034 43.3491 31.5668C43.7124 31.9301 43.9165 32.4229 43.9165 32.9368C43.9165 33.4506 43.7124 33.9435 43.3491 34.3068C42.9857 34.6702 42.4929 34.8743 41.979 34.8743C41.4652 34.8743 40.9724 34.6702 40.609 34.3068C40.2457 33.9435 40.0415 33.4506 40.0415 32.9368Z" fill="black"/>
<path d="M85.447 37.4995H84.847C84.607 37.4995 84.607 37.4995 84.559 37.2595L84.127 35.2915C83.191 36.4915 81.295 37.6195 78.607 37.6195C73.927 37.6195 71.887 35.5315 71.887 31.2115V26.9875C71.887 22.5715 74.815 20.5795 79.375 20.5795C82.039 20.5795 84.055 21.2755 85.327 22.5955L84.607 23.4355C83.407 22.3075 81.775 21.7075 79.375 21.7075C75.487 21.7075 73.207 23.2915 73.207 27.0355V31.1635C73.207 34.9795 74.815 36.4915 78.799 36.4915C81.895 36.4915 83.935 34.7875 84.127 33.3715V30.8755C84.151 29.9635 83.695 29.4355 83.047 29.4355V29.1955H84.127C84.871 29.1955 85.423 29.6515 85.447 30.3235V37.4995ZM87.9717 25.1395V24.8995H89.0517C89.7957 24.8995 90.3477 25.3555 90.3717 26.0275V37.4995H89.0517V26.5795C89.0517 25.6675 88.6197 25.1395 87.9717 25.1395ZM88.5957 21.6115C88.5957 21.0355 89.0517 20.5795 89.6037 20.5795C90.1797 20.5795 90.6357 21.0355 90.6357 21.6115C90.6357 22.1635 90.1797 22.6195 89.6037 22.6195C89.0517 22.6195 88.5957 22.1635 88.5957 21.6115ZM93.0464 25.9795V25.5955C93.0464 25.3555 93.0464 25.3555 93.2624 25.2595L94.1744 24.8995H94.9184V23.4595C94.9184 22.5475 94.4864 22.0195 93.8384 22.0195V21.7795H94.9184C95.6624 21.7795 96.2144 22.2355 96.2384 22.9075V24.8995H99.4544V25.9795H96.2384V33.6595C96.2384 35.8915 97.3664 36.3715 98.9264 36.3715C99.2864 36.3715 99.7424 36.3475 99.9824 36.2995L100.198 37.3795C99.9584 37.4275 99.6224 37.4995 98.9264 37.4995C96.6704 37.4995 94.9184 36.6595 94.9184 33.6595V25.9795H93.0464Z" fill="#1E1E1E"/>
</svg>
