<svg width="180" height="62" viewBox="0 0 180 62" fill="none" xmlns="http://www.w3.org/2000/svg">
<g clip-path="url(#clip0_134_188)">
<path d="M29.3972 0.395405C30.3021 -0.132453 31.4211 -0.132453 32.326 0.395405L56.4064 14.4423C57.2992 14.9631 57.8483 15.919 57.8483 16.9526V45.0464C57.8483 46.0802 57.2992 47.0358 56.4064 47.5566L32.326 61.6035C31.4211 62.1317 30.3021 62.1317 29.3972 61.6035L23.3771 58.092C21.9907 57.2832 21.5224 55.5035 22.3312 54.117C23.1399 52.7309 24.9195 52.2624 26.3059 53.0711L30.8616 55.7286L52.0358 43.377V18.6219L30.8616 6.27035L9.6875 18.6219V43.377L14.0151 45.9016C15.3488 46.3294 16.9962 46.434 18.1573 45.921C18.696 45.6831 19.1825 45.2956 19.5675 44.6035C19.9728 43.875 20.3437 42.6625 20.3437 40.687V20.3433C20.3437 18.7382 21.6449 17.437 23.25 17.437C24.8551 17.437 26.1562 18.7382 26.1562 20.3433V40.687C26.1562 43.3615 25.6565 45.6145 24.6468 47.4291C23.617 49.2802 22.1443 50.514 20.5062 51.2379C17.3818 52.6181 13.9315 52.0524 11.8187 51.2933C11.6516 51.2332 11.4903 51.158 11.337 51.0685L5.31689 47.5566C4.42401 47.0358 3.875 46.0802 3.875 45.0464V16.9526C3.875 15.919 4.42401 14.9631 5.31689 14.4423L29.3972 0.395405ZM31.9554 20.472C33.4931 18.6414 35.8948 17.437 39.1538 17.437C42.1782 17.437 44.4819 18.4738 46.0408 20.1229C47.1432 21.2894 47.0917 23.1288 45.9249 24.2314C44.7586 25.334 42.9191 25.2821 41.8167 24.1157C41.4772 23.7566 40.7658 23.2495 39.1538 23.2495C37.4396 23.2495 36.7331 23.8212 36.4061 24.2106C35.9838 24.7133 35.8437 25.3491 35.8437 25.6714C35.8437 25.9936 35.9838 26.6295 36.4061 27.1322C36.7331 27.5216 37.4396 28.0933 39.1538 28.0933C39.4405 28.0933 39.7176 28.1348 39.9795 28.2123C42.3801 28.5583 44.2095 29.6349 45.4638 31.1283C46.9065 32.8457 47.3881 34.8739 47.3881 36.3276C47.3881 37.7814 46.9065 39.8097 45.4638 41.5271C43.9262 43.3577 41.5245 44.562 38.2657 44.562C35.2412 44.562 32.9373 43.5251 31.3785 41.8763C30.276 40.7095 30.3278 38.87 31.4943 37.7677C32.6607 36.6651 34.5001 36.7169 35.6027 37.8834C35.942 38.2424 36.6536 38.7495 38.2657 38.7495C39.9799 38.7495 40.6863 38.1778 41.0134 37.7884C41.4354 37.2858 41.5756 36.6499 41.5756 36.3276C41.5756 36.0054 41.4354 35.3695 41.0134 34.8668C40.6863 34.4774 39.9799 33.9058 38.2657 33.9058C37.9788 33.9058 37.7015 33.8642 37.4398 33.7867C35.0392 33.4407 33.2098 32.3641 31.9554 30.8707C30.5128 29.1533 30.0312 27.1252 30.0312 25.6714C30.0312 24.2176 30.5128 22.1894 31.9554 20.472Z" fill="black"/>
</g>
<path d="M69.9809 37.2115L70.3889 36.1555C70.7729 36.3475 71.5649 36.4915 72.4049 36.4915C73.7249 36.4915 76.1729 36.2035 76.1729 32.6515V22.3795C76.1729 21.4675 75.7409 20.9395 75.0929 20.9395V20.6995H76.1729C76.9169 20.6995 77.4689 21.1555 77.4929 21.8275V32.6515C77.4929 36.8035 74.4929 37.6195 72.4289 37.6195C71.4449 37.6195 70.5089 37.4515 69.9809 37.2115ZM91.2314 37.4995H90.6314C89.9354 37.4995 89.8874 37.4995 89.7674 36.8035L89.5754 35.6995V35.6755C88.3994 36.9475 86.9114 37.6195 85.1354 37.6195C82.8794 37.6195 81.2714 36.3955 81.2234 34.3555C81.2234 31.4995 83.4794 30.4435 86.6714 30.1315L89.5754 29.8435V29.4355C89.5754 27.2995 88.8314 25.8595 86.2154 25.8595C84.6074 25.8595 83.2394 26.2435 82.3754 26.8435L81.9194 25.9075C82.6874 25.4275 84.0314 24.7795 86.2154 24.7795C89.6954 24.7795 90.8954 26.5795 90.8954 29.4355V35.7235C90.8954 36.6595 90.9434 37.0915 91.2314 37.2595V37.4995ZM82.5434 34.3555C82.5674 35.8675 83.5994 36.5875 85.2794 36.5875C87.1514 36.5875 88.4234 35.8195 89.5754 34.4515V30.9235L86.6714 31.2115C84.9434 31.3795 82.5434 31.8595 82.5434 34.3555ZM101.395 31.9795L104.299 25.2355C104.443 24.9235 104.443 24.8995 104.803 24.8995H105.667L100.243 37.4995H98.8031L94.0991 26.5795C93.6671 25.5715 93.2591 25.1395 92.7791 25.1395V24.8995H93.8591C94.5551 24.8995 94.9391 25.1875 95.2271 25.8595L97.8671 31.9795L99.6431 36.2995L101.395 31.9795ZM116.896 37.4995H116.296C115.6 37.4995 115.552 37.4995 115.432 36.8035L115.24 35.6995V35.6755C114.064 36.9475 112.576 37.6195 110.8 37.6195C108.544 37.6195 106.936 36.3955 106.888 34.3555C106.888 31.4995 109.144 30.4435 112.336 30.1315L115.24 29.8435V29.4355C115.24 27.2995 114.496 25.8595 111.88 25.8595C110.272 25.8595 108.904 26.2435 108.04 26.8435L107.584 25.9075C108.352 25.4275 109.696 24.7795 111.88 24.7795C115.36 24.7795 116.56 26.5795 116.56 29.4355V35.7235C116.56 36.6595 116.608 37.0915 116.896 37.2595V37.4995ZM108.208 34.3555C108.232 35.8675 109.264 36.5875 110.944 36.5875C112.816 36.5875 114.088 35.8195 115.24 34.4515V30.9235L112.336 31.2115C110.608 31.3795 108.208 31.8595 108.208 34.3555ZM119.684 36.1315L120.212 35.1475C121.124 35.8435 122.708 36.4915 124.7 36.4915C126.332 36.4915 127.844 35.9395 127.844 34.2595C127.844 32.5795 126.38 32.0995 124.724 31.8355C122.564 31.4995 120.068 30.8035 120.068 28.1395C120.068 25.8355 122.324 24.7795 124.676 24.7795C126.428 24.7795 127.94 25.2835 128.924 25.9555L128.396 26.9635C127.676 26.4355 126.332 25.9075 124.676 25.9075C123.02 25.9075 121.412 26.6275 121.412 28.0675C121.412 29.7715 122.972 30.1795 124.724 30.4675C126.836 30.8035 129.188 31.5235 129.188 34.1875C129.188 36.7315 126.98 37.6195 124.676 37.6195C122.54 37.6195 120.764 36.9715 119.684 36.1315ZM137.398 24.7795C139.678 24.7795 140.95 25.5235 141.694 26.3155L141.07 27.0595C140.446 26.5555 139.462 25.8595 137.398 25.8595C134.782 25.8595 133.318 27.2995 133.318 29.4355V32.9395C133.318 35.0755 134.782 36.5395 137.398 36.5395C139.462 36.5395 140.446 35.8435 141.07 35.3395L141.694 36.0835C140.95 36.8755 139.678 37.6195 137.398 37.6195C133.918 37.6195 131.998 35.7955 131.998 32.9395V29.4355C131.998 26.5795 133.918 24.7795 137.398 24.7795ZM143.491 24.8995H144.523C145.267 24.8995 145.819 25.3555 145.843 26.0275V27.0595C146.611 25.6675 147.883 24.7795 149.707 24.7795C150.307 24.7795 150.595 24.8755 150.787 24.9475L150.571 26.0515C150.403 25.9795 150.019 25.9315 149.707 25.9315C147.403 25.9315 145.891 27.5395 145.891 29.9395V37.4995H144.571V26.5795C144.571 25.6675 144.139 25.1395 143.491 25.1395V24.8995ZM152.327 25.1395V24.8995H153.407C154.151 24.8995 154.703 25.3555 154.727 26.0275V37.4995H153.407V26.5795C153.407 25.6675 152.975 25.1395 152.327 25.1395ZM152.951 21.6115C152.951 21.0355 153.407 20.5795 153.959 20.5795C154.535 20.5795 154.991 21.0355 154.991 21.6115C154.991 22.1635 154.535 22.6195 153.959 22.6195C153.407 22.6195 152.951 22.1635 152.951 21.6115ZM157.882 25.1395V24.8995H158.962C159.706 24.8995 160.258 25.3555 160.282 26.0275V27.0355C161.146 25.7635 162.61 24.7795 164.746 24.7795C167.674 24.7795 169.762 26.5795 169.762 29.4355V32.9635C169.762 35.8195 167.674 37.6195 164.746 37.6195C162.61 37.6195 161.146 36.6355 160.282 35.3635V42.0595H158.962V26.5795C158.962 25.6675 158.53 25.1395 157.882 25.1395ZM160.282 29.9395V32.4595C160.282 34.5955 161.938 36.5395 164.554 36.5395C167.17 36.5395 168.442 35.0995 168.442 32.9635V29.4355C168.442 27.2995 167.17 25.8595 164.554 25.8595C161.938 25.8595 160.282 27.8035 160.282 29.9395ZM171.793 25.9795V25.5955C171.793 25.3555 171.793 25.3555 172.009 25.2595L172.921 24.8995H173.665V23.4595C173.665 22.5475 173.233 22.0195 172.585 22.0195V21.7795H173.665C174.409 21.7795 174.961 22.2355 174.985 22.9075V24.8995H178.201V25.9795H174.985V33.6595C174.985 35.8915 176.113 36.3715 177.673 36.3715C178.033 36.3715 178.489 36.3475 178.729 36.2995L178.945 37.3795C178.705 37.4275 178.368 37.4995 177.673 37.4995C175.417 37.4995 173.665 36.6595 173.665 33.6595V25.9795H171.793Z" fill="#1E1E1E"/>
<defs>
<clipPath id="clip0_134_188">
<rect width="62" height="62" fill="white" transform="translate(0 -0.000488281)"/>
</clipPath>
</defs>
</svg>
