<svg width="93" height="48" viewBox="0 0 93 48" fill="none" xmlns="http://www.w3.org/2000/svg">
<path d="M22.9363 0.749023C22.9363 6.32902 27.455 10.8473 33.0346 10.8473H37.1517V14.8322C37.1517 20.4122 41.67 24.9305 47.25 24.9305V2.67587C47.2497 2.165 47.0467 1.67512 46.6855 1.31384C46.3243 0.952553 45.8345 0.749408 45.3236 0.749023H22.9363ZM11.8432 11.9085C11.8432 17.4881 16.36 22.0068 21.9395 22.0068H26.0586V25.9917C26.0586 31.5717 30.5768 36.09 36.1568 36.09V13.8354C36.1561 13.3247 35.9529 12.8352 35.5918 12.4741C35.2307 12.113 34.7411 11.9098 34.2305 11.909L11.8432 11.9085ZM0.75 23.0681C0.75 28.6481 5.26631 33.1663 10.8463 33.1663H14.9654V37.1513C14.9654 42.7332 19.4842 47.2495 25.0637 47.2495V24.9968C25.0632 24.486 24.8601 23.9961 24.499 23.6347C24.1379 23.2734 23.6482 23.0699 23.1373 23.069H0.75V23.0681Z" fill="black"/>
<path d="M55.1762 30.211L55.5842 29.155C55.9683 29.347 56.7603 29.491 57.6003 29.491C58.9203 29.491 61.3683 29.203 61.3683 25.651V15.379C61.3683 14.467 60.9363 13.939 60.2883 13.939V13.699H61.3683C62.1123 13.699 62.6643 14.155 62.6883 14.827V25.651C62.6883 29.803 59.6883 30.619 57.6243 30.619C56.6403 30.619 55.7043 30.451 55.1762 30.211ZM66.1788 18.139V17.899H67.2588C68.0028 17.899 68.5548 18.355 68.5788 19.027V30.499H67.2588V19.579C67.2588 18.667 66.8268 18.139 66.1788 18.139ZM66.8027 14.611C66.8027 14.035 67.2588 13.579 67.8108 13.579C68.3867 13.579 68.8428 14.035 68.8428 14.611C68.8428 15.163 68.3867 15.619 67.8108 15.619C67.2588 15.619 66.8027 15.163 66.8027 14.611ZM71.7334 17.899H72.7654C73.5094 17.899 74.0614 18.355 74.0854 19.027V20.059C74.8534 18.667 76.1254 17.779 77.9494 17.779C78.5494 17.779 78.8374 17.875 79.0294 17.947L78.8134 19.051C78.6454 18.979 78.2614 18.931 77.9494 18.931C75.6454 18.931 74.1334 20.539 74.1334 22.939V30.499H72.8134V19.579C72.8134 18.667 72.3814 18.139 71.7334 18.139V17.899ZM90.2549 30.499H89.6549C88.9589 30.499 88.9109 30.499 88.7909 29.803L88.5989 28.699V28.675C87.4229 29.947 85.9349 30.619 84.1589 30.619C81.9029 30.619 80.2949 29.395 80.2469 27.355C80.2469 24.499 82.5029 23.443 85.6949 23.131L88.5989 22.843V22.435C88.5989 20.299 87.8549 18.859 85.2389 18.859C83.6309 18.859 82.2629 19.243 81.3989 19.843L80.9429 18.907C81.7109 18.427 83.0549 17.779 85.2389 17.779C88.7189 17.779 89.9189 19.579 89.9189 22.435V28.723C89.9189 29.659 89.9669 30.091 90.2549 30.259V30.499ZM81.5669 27.355C81.5909 28.867 82.6229 29.587 84.3029 29.587C86.1749 29.587 87.4469 28.819 88.5989 27.451V23.923L85.6949 24.211C83.9669 24.379 81.5669 24.859 81.5669 27.355Z" fill="#1E1E1E"/>
</svg>
