<svg width="197" height="62" viewBox="0 0 197 62" fill="none" xmlns="http://www.w3.org/2000/svg">
<path d="M31.5077 33.8952L33.0706 33.1486L33.4271 31.4798L32.3602 30.1287H30.6191L29.5521 31.4798L29.9448 33.1486L31.5077 33.8952ZM42.5954 33.0401C42.7065 31.8414 42.6212 30.6273 42.3474 29.4519C42.0812 28.2612 41.625 27.1211 40.9963 26.0754L36.6976 29.9504C36.5929 30.0592 36.5189 30.1938 36.4832 30.3405C36.4295 30.5802 36.4694 30.8314 36.5948 31.0427C36.7201 31.2539 36.9214 31.4094 37.1575 31.4772L42.5954 33.0401ZM34.6361 27.2483L39.2913 23.9442C37.569 22.2215 35.3148 21.1317 32.895 20.8519L33.2127 26.6464C33.2489 26.7859 33.285 26.9305 33.3935 27.0339C33.7113 27.4265 34.2486 27.4989 34.6361 27.2483ZM29.5521 20.9243L28.9838 21.0276C26.9778 21.4784 25.1413 22.4899 23.688 23.9442L28.4155 27.3206C28.5214 27.3904 28.6996 27.4265 28.8417 27.4265C29.0895 27.4236 29.3268 27.3262 29.5054 27.1544C29.6839 26.9826 29.7902 26.7492 29.8027 26.5017L30.1205 20.8184L29.5521 20.9243ZM26.2119 29.8445L21.983 26.0754C20.7197 28.1675 20.1593 30.6091 20.3839 33.0427L25.8916 31.441C26.0645 31.4038 26.2169 31.3022 26.3178 31.1569C26.4745 30.9676 26.5513 30.7247 26.532 30.4798C26.5127 30.2348 26.3988 30.007 26.2145 29.8445M26.6743 34.7477L21.0245 35.7087C21.8587 38.0028 23.4188 39.962 25.4679 41.2887L27.6353 36.0626C27.6995 35.88 27.7111 35.6831 27.6689 35.4943C27.6194 35.2716 27.492 35.074 27.3096 34.9371C27.1272 34.8002 26.9019 34.733 26.6743 34.7477ZM31.5077 43.0634C32.3602 43.0634 33.1791 42.9601 33.9955 42.7793C34.1539 42.7328 34.3106 42.6906 34.4656 42.6527C34.6602 42.6045 34.8471 42.5528 35.0262 42.4977L32.2879 37.5558C32.1723 37.4004 32.0286 37.2681 31.8642 37.1657C31.4715 36.9513 31.0117 37.0934 30.7276 37.4137L27.9195 42.4951C29.0561 42.8516 30.2651 43.0634 31.5077 43.0634ZM37.514 41.2887C38.8855 40.3978 40.0486 39.2215 40.924 37.8399C41.389 37.1657 41.7429 36.4527 41.9573 35.6699L36.2714 34.7141C36.0995 34.7104 35.929 34.7457 35.7728 34.8174C35.5751 34.9155 35.4175 35.0789 35.3266 35.28C35.2358 35.4811 35.2172 35.7074 35.2742 35.9205L37.514 41.2887Z" fill="black"/>
<path d="M31.5077 5.92578C32.0063 5.92578 32.5023 6.0317 32.9647 6.24611L50.9473 14.8099C51.8721 15.2749 52.5825 16.1274 52.7969 17.1219L57.2403 36.4194C57.4883 37.4502 57.2403 38.5145 56.5634 39.3335L44.1247 54.7921C43.8063 55.1936 43.4009 55.5175 42.9391 55.7395C42.4773 55.9614 41.9711 56.0756 41.4587 56.0734H21.5205C21.0083 56.0759 20.5023 55.9621 20.0405 55.7406C19.5787 55.5191 19.1732 55.1957 18.8545 54.7947L6.41577 39.3335C6.09903 38.9256 5.87468 38.4537 5.75827 37.9506C5.64185 37.4474 5.63613 36.925 5.74152 36.4194L10.1849 17.1219C10.4329 16.0886 11.1071 15.2361 12.0319 14.8099L30.0145 6.20995C30.4795 6.0317 31.0091 5.92578 31.5077 5.92578ZM49.4903 34.8901C49.4567 34.8901 49.4205 34.8901 49.4205 34.854C49.3848 34.8525 49.3493 34.8473 49.3146 34.8385C49.2784 34.8281 49.2423 34.8221 49.2061 34.8204L49.1131 34.8075C48.9206 34.7767 48.7266 34.7569 48.5319 34.748C48.4259 34.748 48.3174 34.748 48.1754 34.7119H48.1418C47.3926 34.6421 46.7907 34.5724 46.2224 34.3941C46.1335 34.359 46.0528 34.3061 45.9853 34.2385C45.9177 34.171 45.8648 34.0903 45.8297 34.0014C45.8297 33.9842 45.8237 33.973 45.8116 33.9679C45.803 33.9593 45.7978 33.9472 45.7961 33.9317L45.3311 33.7896C45.552 32.1178 45.468 30.4198 45.0831 28.778C44.6938 27.123 44.0208 25.548 43.0939 24.1228L43.4504 23.8024V23.7301C43.4406 23.537 43.5032 23.3472 43.6261 23.1979C44.0343 22.8234 44.5406 22.5159 45.1451 22.1465L45.2278 22.0949L45.3854 22.007C45.4387 21.9829 45.4921 21.9536 45.5455 21.9192C45.7549 21.8142 45.9568 21.6951 46.15 21.5627L46.2094 21.5162C46.2473 21.4938 46.2869 21.4619 46.3283 21.4206L46.367 21.3922C46.386 21.3819 46.3963 21.3681 46.398 21.3509C46.8966 20.9246 47.0025 20.2142 46.6486 19.7492C46.5518 19.6252 46.4274 19.5255 46.2852 19.4582C46.1429 19.3909 45.987 19.3579 45.8297 19.3617C45.5454 19.368 45.2712 19.4679 45.0495 19.6459L44.9772 19.7156C44.9427 19.7346 44.9135 19.7578 44.8894 19.7854C44.8652 19.8129 44.8351 19.837 44.7989 19.8577V19.8603C44.6084 20.0362 44.4314 20.2262 44.2694 20.4286C44.2165 20.4943 44.1557 20.5533 44.0885 20.6043C43.6614 21.0795 43.1852 21.5082 42.6677 21.883C42.5741 21.9499 42.4624 21.9869 42.3474 21.989C42.2776 21.989 42.2053 21.989 42.1355 21.9528H42.0632L41.6369 22.2369C41.1763 21.7611 40.6899 21.3109 40.1799 20.8885C38.0375 19.2147 35.4598 18.1908 32.7529 17.9383L32.7167 17.4759L32.6444 17.4061L32.6056 17.3648C32.474 17.2601 32.3864 17.1098 32.3602 16.9437C32.3266 16.4141 32.386 15.8225 32.4532 15.1689L32.4661 15.0243V14.9881C32.4661 14.8822 32.5023 14.7401 32.5384 14.6316C32.5746 14.4198 32.6108 14.2054 32.6444 13.9599V13.637C32.6444 12.9989 32.1484 12.4642 31.5439 12.4642C31.2597 12.4642 30.9755 12.6063 30.7611 12.8207C30.6563 12.9288 30.574 13.0566 30.519 13.1967C30.4641 13.3369 30.4374 13.4865 30.4408 13.637V13.9212C30.4408 14.1718 30.4769 14.3862 30.5493 14.598C30.5665 14.6531 30.5785 14.7126 30.5854 14.7763C30.5923 14.8279 30.6035 14.8865 30.619 14.9519V14.9881L30.6655 15.4169C30.7275 15.9594 30.7818 16.4555 30.7249 16.9075C30.6994 17.0733 30.6128 17.2235 30.4821 17.3286L30.4408 17.3699L30.371 17.4397L30.3349 17.9047C26.9216 18.1562 23.7262 19.6769 21.3784 22.1672L21.0245 21.9192H20.9522C20.9177 21.9192 20.8824 21.9252 20.8463 21.9373C20.8116 21.9461 20.7761 21.9513 20.7404 21.9528C20.6256 21.9515 20.5139 21.9154 20.42 21.8495C19.8748 21.439 19.3751 20.9713 18.9294 20.4545C18.8778 20.3976 18.8209 20.333 18.7486 20.2839C18.6056 20.1078 18.4511 19.9412 18.2862 19.7854L18.2268 19.7389C18.1906 19.7165 18.1519 19.6846 18.1105 19.6433L18.0718 19.6149C18.0494 19.6063 18.0382 19.5925 18.0382 19.5735C17.8178 19.3914 17.5413 19.291 17.2554 19.2894C17.0984 19.2862 16.9428 19.3199 16.801 19.3876C16.6593 19.4553 16.5353 19.5553 16.4391 19.6795C16.0826 20.1419 16.1911 20.8523 16.6871 21.2811C16.7043 21.2811 16.7164 21.2863 16.7233 21.2966C16.7302 21.307 16.7422 21.313 16.7594 21.3147C16.7939 21.3336 16.8232 21.3569 16.8473 21.3844C16.8714 21.412 16.9007 21.4361 16.9351 21.4568C17.1495 21.5989 17.3278 21.7048 17.5396 21.8133C17.6529 21.859 17.7605 21.918 17.8599 21.989L17.9374 22.038C18.5445 22.4074 19.0509 22.7175 19.4616 23.092C19.6373 23.2703 19.6373 23.446 19.6373 23.6242V23.6965L19.9938 24.0143L19.9292 24.1021C19.881 24.1641 19.8431 24.2304 19.8155 24.301C18.0559 27.0917 17.3505 30.419 17.8264 33.6837L17.3614 33.8258C17.3614 33.8413 17.3562 33.8525 17.3459 33.8594C17.3355 33.868 17.3295 33.88 17.3278 33.8955C17.2456 34.0668 17.1069 34.2046 16.9351 34.2856C16.4029 34.4665 15.7649 34.5362 15.0183 34.6059H14.9821C14.8762 34.6059 14.7341 34.6059 14.6256 34.6421C14.4396 34.6421 14.2536 34.668 14.0444 34.699L13.9514 34.7119C13.9152 34.7136 13.8799 34.7196 13.8454 34.73C13.81 34.7398 13.7736 34.7459 13.7369 34.748C13.7034 34.748 13.6672 34.748 13.631 34.7842C13.3372 34.842 13.077 35.0111 12.9047 35.256C12.7324 35.501 12.6613 35.803 12.7062 36.0991C12.8147 36.5977 13.2745 36.9155 13.8429 36.9155C13.9514 36.9155 14.0237 36.9155 14.127 36.8819C14.2355 36.8819 14.3079 36.8095 14.4112 36.8095C14.6327 36.749 14.8473 36.6659 15.0519 36.5615L15.212 36.4918C15.2637 36.4642 15.3171 36.4401 15.3722 36.4194H15.4084C16.0826 36.1689 16.6871 35.957 17.2554 35.8847H17.3278C17.5267 35.8847 17.6636 35.9777 17.7669 36.0475L17.7902 36.063C17.8074 36.0647 17.8186 36.0707 17.8238 36.081C17.8324 36.0931 17.8444 36.0991 17.8599 36.0991L18.3585 36.0294C19.217 38.6668 20.8367 40.9912 23.0137 42.7099C23.5123 43.1 24.0083 43.4203 24.543 43.7406L24.3286 44.203C24.3303 44.2203 24.3364 44.2323 24.3467 44.2392C24.357 44.2461 24.363 44.2573 24.3648 44.2728C24.4345 44.4149 24.5069 44.5931 24.4345 44.8411C24.1793 45.4255 23.8706 45.985 23.5123 46.5125V46.5487C23.4761 46.6004 23.4399 46.6477 23.4038 46.6908L23.3004 46.8329C23.1919 46.962 23.1067 47.0964 23.0111 47.2436L22.9078 47.3986C22.8635 47.4537 22.827 47.5145 22.7993 47.5794C22.7993 47.613 22.7657 47.6492 22.7657 47.6492C22.4815 48.2537 22.6934 48.928 23.2281 49.1785C23.3693 49.2474 23.5114 49.2827 23.6544 49.2844C24.0806 49.2844 24.5069 49.0003 24.7187 48.6102C24.7187 48.574 24.7549 48.5379 24.7549 48.5379C24.791 48.4681 24.8272 48.3958 24.8608 48.3596C24.9331 48.1943 24.9719 48.0599 25.0132 47.9256L25.0752 47.7189L25.1811 47.4012L25.2664 47.161C25.473 46.559 25.6461 46.063 25.9277 45.6239C26.0195 45.4954 26.1484 45.3981 26.2971 45.3449L26.3901 45.3035C26.4263 45.3035 26.4263 45.3035 26.4599 45.2674L26.7104 44.8075C28.2988 45.4157 29.9851 45.7283 31.6859 45.7298C32.7167 45.7298 33.7836 45.6239 34.7782 45.3759C35.4034 45.2346 36.019 45.0564 36.6253 44.8411L36.8397 45.2338C36.8759 45.2338 36.8759 45.2338 36.9094 45.2674C37.0051 45.2842 37.096 45.3215 37.1758 45.3768C37.2556 45.4321 37.3225 45.5041 37.3719 45.5877C37.6328 46.0475 37.8368 46.5952 38.059 47.2075L38.1184 47.365V47.4012L38.2243 47.7215C38.2485 47.7921 38.27 47.8628 38.2889 47.9334C38.3277 48.0755 38.3664 48.2175 38.4388 48.3596L38.4904 48.45C38.5077 48.4741 38.5257 48.5034 38.5447 48.5379C38.5447 48.574 38.5809 48.6102 38.5809 48.6102C38.6796 48.8092 38.8311 48.9773 39.0187 49.0962C39.2064 49.2151 39.4231 49.2802 39.6452 49.2844C39.7881 49.2844 39.9311 49.2491 40.074 49.1785C40.2023 49.1145 40.3159 49.0245 40.4075 48.9142C40.4991 48.8039 40.5668 48.6757 40.6062 48.5379C40.6891 48.2428 40.6644 47.9278 40.5364 47.6492C40.5347 47.632 40.5287 47.6199 40.5184 47.613C40.5063 47.6061 40.5003 47.5949 40.5003 47.5794C40.4725 47.5145 40.436 47.4537 40.3918 47.3986C40.2841 47.1954 40.1541 47.0048 40.0043 46.8303L39.8958 46.6908L39.7899 46.5487V46.5125L39.7253 46.4118C39.3584 45.8486 39.0329 45.3449 38.865 44.8411C38.8218 44.6903 38.8255 44.53 38.8754 44.3813L38.9012 44.2728C38.9012 44.2556 38.9064 44.2435 38.9167 44.2366C38.927 44.2315 38.933 44.2203 38.9348 44.203L38.7591 43.7768C40.6714 42.6511 42.2813 41.0774 43.4504 39.1914C44.0832 38.1941 44.5842 37.1191 44.941 35.9932L45.3673 36.063C45.3845 36.063 45.3965 36.0569 45.4034 36.0449C45.412 36.0363 45.4241 36.0311 45.4396 36.0294L45.5429 35.9699C45.6481 35.8954 45.7731 35.854 45.902 35.8511H45.9718C46.5401 35.9209 47.1446 36.1353 47.8214 36.3833H47.855C47.9101 36.4022 47.9635 36.4255 48.0152 36.453C48.0686 36.4806 48.122 36.5047 48.1754 36.5254C48.3898 36.6313 48.568 36.7036 48.816 36.7734C48.8519 36.7757 48.8874 36.7818 48.9219 36.7915C48.9581 36.8035 48.9934 36.8095 49.0279 36.8095C49.064 36.8095 49.1002 36.8095 49.1363 36.8457C49.4282 36.9176 49.7365 36.877 49.9997 36.732C50.263 36.587 50.462 36.3481 50.5572 36.063C50.5572 35.6367 50.1671 35.0684 49.5264 34.8901H49.4903Z" fill="black"/>
<path d="M75.2743 30.4435L80.9383 25.0675C81.1063 24.8995 81.1063 24.8995 81.3463 24.8995H82.7383L77.7223 29.6755L83.2903 37.4995H82.0423C81.6823 37.4995 81.6583 37.4995 81.4663 37.2115L76.8103 30.5395L73.9303 33.2755V37.4995H72.6103V21.4195C72.6103 20.5075 72.1783 19.9795 71.5303 19.9795V19.7395H72.6103C73.3543 19.7395 73.9063 20.1955 73.9303 20.8675V31.7875L75.2743 30.4435ZM95.9438 37.4995H95.3438C95.1038 37.4995 95.1038 37.4995 95.0558 37.2595L94.6478 35.3875C93.8078 36.6355 92.4158 37.6195 90.2798 37.6195C87.3518 37.6195 85.3838 35.9395 85.3838 32.9635V26.4595C85.3838 25.5475 84.9518 25.0195 84.3038 25.0195V24.7795H85.3838C86.1278 24.7795 86.6798 25.2355 86.7038 25.9075V32.9635C86.7038 35.2435 87.8558 36.5395 90.4718 36.5395C93.0878 36.5395 94.6238 34.5955 94.6238 32.4595V24.7795H95.9438V37.4995ZM101.235 35.3635L100.923 37.2595C100.875 37.4995 100.875 37.4995 100.635 37.4995H99.915V21.4195C99.915 20.5075 99.483 19.9795 98.835 19.9795V19.7395H99.915C100.659 19.7395 101.211 20.1955 101.235 20.8675V27.0355C102.099 25.7635 103.563 24.7795 105.699 24.7795C108.627 24.7795 110.715 26.5795 110.715 29.4355V32.9635C110.715 35.8195 108.627 37.6195 105.699 37.6195C103.563 37.6195 102.099 36.6355 101.235 35.3635ZM101.235 29.9395V32.4595C101.235 34.5955 102.891 36.5395 105.507 36.5395C108.123 36.5395 109.395 35.0995 109.395 32.9635V29.4355C109.395 27.2995 108.123 25.8595 105.507 25.8595C102.891 25.8595 101.235 27.8035 101.235 29.9395ZM124.314 29.4355V31.4995C124.314 31.7395 124.314 31.7395 124.074 31.7395H115.146V32.9635C115.146 35.0995 116.442 36.5395 119.058 36.5395C120.834 36.5395 122.082 35.7715 122.946 34.5475L123.762 35.2195C122.97 36.5875 121.458 37.6195 119.058 37.6195C115.578 37.6195 113.826 35.8195 113.826 32.9635V29.4355C113.826 26.5795 115.578 24.7795 119.058 24.7795C122.538 24.7795 124.314 26.5795 124.314 29.4355ZM115.146 29.4355V30.6595H122.994V29.4355C122.994 27.2995 121.674 25.8595 119.058 25.8595C116.442 25.8595 115.146 27.2995 115.146 29.4355ZM126.843 24.8995H127.875C128.619 24.8995 129.171 25.3555 129.195 26.0275V27.0595C129.963 25.6675 131.235 24.7795 133.059 24.7795C133.659 24.7795 133.947 24.8755 134.139 24.9475L133.923 26.0515C133.755 25.9795 133.371 25.9315 133.059 25.9315C130.755 25.9315 129.243 27.5395 129.243 29.9395V37.4995H127.923V26.5795C127.923 25.6675 127.491 25.1395 126.843 25.1395V24.8995ZM135.679 24.8995H136.759C137.503 24.8995 138.055 25.3555 138.079 26.0275V27.0355C138.943 25.7635 140.407 24.7795 142.543 24.7795C145.471 24.7795 147.559 26.5795 147.559 29.4355V37.4995H146.239V29.4355C146.239 27.2995 144.967 25.8595 142.351 25.8595C139.735 25.8595 138.079 27.8035 138.079 29.9395V37.4995H136.759V26.5795C136.759 25.6675 136.327 25.1395 135.679 25.1395V24.8995ZM161.532 29.4355V31.4995C161.532 31.7395 161.532 31.7395 161.292 31.7395H152.364V32.9635C152.364 35.0995 153.66 36.5395 156.276 36.5395C158.052 36.5395 159.3 35.7715 160.164 34.5475L160.98 35.2195C160.188 36.5875 158.676 37.6195 156.276 37.6195C152.796 37.6195 151.044 35.8195 151.044 32.9635V29.4355C151.044 26.5795 152.796 24.7795 156.276 24.7795C159.756 24.7795 161.532 26.5795 161.532 29.4355ZM152.364 29.4355V30.6595H160.212V29.4355C160.212 27.2995 158.892 25.8595 156.276 25.8595C153.66 25.8595 152.364 27.2995 152.364 29.4355ZM163.582 25.9795V25.5955C163.582 25.3555 163.582 25.3555 163.798 25.2595L164.71 24.8995H165.454V23.4595C165.454 22.5475 165.022 22.0195 164.374 22.0195V21.7795H165.454C166.198 21.7795 166.75 22.2355 166.774 22.9075V24.8995H169.99V25.9795H166.774V33.6595C166.774 35.8915 167.902 36.3715 169.462 36.3715C169.822 36.3715 170.278 36.3475 170.518 36.2995L170.734 37.3795C170.494 37.4275 170.158 37.4995 169.462 37.4995C167.206 37.4995 165.454 36.6595 165.454 33.6595V25.9795H163.582ZM182.907 29.4355V31.4995C182.907 31.7395 182.907 31.7395 182.667 31.7395H173.739V32.9635C173.739 35.0995 175.035 36.5395 177.651 36.5395C179.427 36.5395 180.675 35.7715 181.539 34.5475L182.355 35.2195C181.563 36.5875 180.051 37.6195 177.651 37.6195C174.171 37.6195 172.419 35.8195 172.419 32.9635V29.4355C172.419 26.5795 174.171 24.7795 177.651 24.7795C181.131 24.7795 182.907 26.5795 182.907 29.4355ZM173.739 29.4355V30.6595H181.587V29.4355C181.587 27.2995 180.267 25.8595 177.651 25.8595C175.035 25.8595 173.739 27.2995 173.739 29.4355ZM185.677 36.1315L186.205 35.1475C187.117 35.8435 188.701 36.4915 190.693 36.4915C192.325 36.4915 193.837 35.9395 193.837 34.2595C193.837 32.5795 192.373 32.0995 190.717 31.8355C188.557 31.4995 186.061 30.8035 186.061 28.1395C186.061 25.8355 188.317 24.7795 190.669 24.7795C192.421 24.7795 193.933 25.2835 194.917 25.9555L194.389 26.9635C193.669 26.4355 192.325 25.9075 190.669 25.9075C189.013 25.9075 187.405 26.6275 187.405 28.0675C187.405 29.7715 188.965 30.1795 190.717 30.4675C192.829 30.8035 195.181 31.5235 195.181 34.1875C195.181 36.7315 192.973 37.6195 190.669 37.6195C188.533 37.6195 186.757 36.9715 185.677 36.1315Z" fill="#1E1E1E"/>
</svg>
