<svg width="143" height="62" viewBox="0 0 143 62" fill="none" xmlns="http://www.w3.org/2000/svg">
<path d="M25.4646 45.6956L45.7308 34.1287L36.5238 28.8277L16.2711 40.4895L25.4646 45.6956ZM46.6627 22.0368L37.4461 16.7358V27.2312L46.6647 32.5342L46.6627 22.0368ZM47.5831 9.83829L38.3683 15.1393L47.5831 20.4403L56.7959 15.1373L47.5831 9.83829ZM19.2026 36.6727L24.5501 33.594V10.4718L15.3314 15.7767V38.8988L19.2026 36.6727ZM14.4092 3.57629L5.19443 8.87922L14.4092 14.1822L23.6181 8.87922L14.4092 3.57629ZM4.27024 10.4738V46.2245L24.5442 57.8922V47.2921L13.9422 41.2936C13.9074 41.2684 13.8802 41.2413 13.8434 41.218C13.8163 41.1928 13.7853 41.1735 13.7582 41.1522L13.7562 41.1463C13.7272 41.1173 13.702 41.0863 13.6807 41.0514L13.6787 41.0495C13.6516 41.0243 13.6303 40.9952 13.6109 40.9623L13.609 40.9604H13.6032C13.5877 40.9313 13.5722 40.8925 13.5567 40.8538L13.5547 40.846C13.5412 40.817 13.5257 40.784 13.5121 40.7472L13.5102 40.7414C13.5024 40.7027 13.4947 40.6542 13.4908 40.6058V40.6019C13.485 40.5728 13.4792 40.538 13.4753 40.5031V40.5012V15.7806L8.13361 12.7L4.27024 10.4738ZM46.6647 46.2226V35.7175L26.3907 47.2921V57.8902L46.6647 46.2226ZM57.7162 27.2312V16.7358L48.5014 22.0387V32.5342L57.7162 27.2312ZM59.5297 14.899C59.551 14.9727 59.5646 15.056 59.5646 15.1432V27.7621C59.5646 28.1031 59.3805 28.3995 59.1054 28.5584L59.1015 28.5603L48.5072 34.6615V46.7535C48.5072 47.0925 48.3232 47.389 48.05 47.5498L48.0461 47.5517L25.9276 60.2811C25.8811 60.3063 25.8269 60.3295 25.7707 60.345L25.7649 60.347L25.7067 60.3722C25.637 60.3935 25.5556 60.4051 25.4723 60.4051C25.389 60.4051 25.3076 60.3935 25.2301 60.3702L25.2359 60.3722C25.2069 60.3644 25.1836 60.3547 25.1604 60.3412L25.1623 60.3431C25.1022 60.3218 25.0519 60.3024 25.0034 60.2792L25.0112 60.283L2.89849 47.5537C2.61949 47.3909 2.43542 47.0945 2.43542 46.7554V8.88116C2.43542 8.79591 2.44899 8.7126 2.47224 8.6351L2.4703 8.64091C2.47805 8.61185 2.49549 8.59247 2.50517 8.56341C2.52261 8.50722 2.54199 8.46072 2.5633 8.41616L2.56136 8.42197C2.57686 8.39097 2.59624 8.36385 2.61755 8.3406L2.69892 8.23016L2.78999 8.16429C2.82486 8.13522 2.85586 8.10616 2.89074 8.08097H2.89267L13.9519 1.71629C14.0837 1.63879 14.2426 1.59229 14.4111 1.59229C14.5797 1.59229 14.7386 1.63879 14.8742 1.71822L14.8703 1.71629L25.9334 8.08097C25.9702 8.10616 26.0012 8.13328 26.0322 8.16235L26.1252 8.22822C26.1562 8.2631 26.1737 8.30185 26.2066 8.33866C26.2299 8.36191 26.2492 8.38903 26.2667 8.4181L26.2686 8.42004C26.288 8.45879 26.3074 8.50529 26.3248 8.55372L26.3267 8.56147L26.3577 8.63897C26.3791 8.70679 26.3926 8.78622 26.3926 8.8676C26.3926 8.87147 26.3926 8.87535 26.3926 8.87922V32.5322L35.6074 27.2293V15.1373C35.6074 15.1354 35.6074 15.1335 35.6074 15.1335C35.6074 15.0502 35.619 14.9688 35.6403 14.8913L35.6384 14.8971C35.6461 14.8719 35.6636 14.8487 35.6694 14.8196C35.6887 14.7615 35.7081 14.715 35.7314 14.6685L35.7275 14.6762C35.7449 14.6472 35.7721 14.6278 35.7895 14.5948C35.8186 14.558 35.8418 14.5212 35.8709 14.4902C35.898 14.465 35.9271 14.4418 35.9581 14.4224L35.96 14.4205C35.9949 14.3953 36.0239 14.3643 36.0607 14.343H36.0627L47.1219 7.97635C47.2537 7.89885 47.4126 7.85235 47.5811 7.85235C47.7497 7.85235 47.9086 7.89885 48.0442 7.97829L48.0403 7.97635L59.0996 14.343C59.1383 14.3682 59.1654 14.3953 59.2022 14.4185C59.2313 14.4437 59.2642 14.4631 59.2914 14.4863C59.3224 14.5212 59.3456 14.56 59.3747 14.5948C59.396 14.6181 59.4154 14.6452 59.4328 14.6723L59.4347 14.6743C59.458 14.7169 59.4774 14.7653 59.4929 14.8157L59.4948 14.8215C59.5103 14.8448 59.5219 14.87 59.5316 14.8971L59.5297 14.899Z" fill="black"/>
<path d="M70.9795 19.7395H72.0595C72.8035 19.7395 73.3555 20.1955 73.3795 20.8675V34.7155C73.3795 35.9155 73.5235 36.4195 74.8675 36.4195C75.0595 36.4195 75.3955 36.3955 75.6835 36.3475L75.8035 37.4035C75.5155 37.4515 75.1075 37.4995 74.8435 37.4995C73.8835 37.4995 72.0595 37.6435 72.0595 34.7155V21.4195C72.0595 20.5075 71.6275 19.9795 70.9795 19.9795V19.7395ZM87.4853 37.4995H86.8853C86.1893 37.4995 86.1413 37.4995 86.0213 36.8035L85.8293 35.6995V35.6755C84.6533 36.9475 83.1653 37.6195 81.3893 37.6195C79.1333 37.6195 77.5253 36.3955 77.4773 34.3555C77.4773 31.4995 79.7333 30.4435 82.9253 30.1315L85.8293 29.8435V29.4355C85.8293 27.2995 85.0853 25.8595 82.4693 25.8595C80.8613 25.8595 79.4933 26.2435 78.6293 26.8435L78.1733 25.9075C78.9413 25.4275 80.2853 24.7795 82.4693 24.7795C85.9493 24.7795 87.1493 26.5795 87.1493 29.4355V35.7235C87.1493 36.6595 87.1973 37.0915 87.4853 37.2595V37.4995ZM78.7973 34.3555C78.8213 35.8675 79.8533 36.5875 81.5333 36.5875C83.4053 36.5875 84.6773 35.8195 85.8293 34.4515V30.9235L82.9253 31.2115C81.1973 31.3795 78.7973 31.8595 78.7973 34.3555ZM90.0342 24.8995H91.0662C91.8102 24.8995 92.3622 25.3555 92.3862 26.0275V27.0595C93.1542 25.6675 94.4262 24.7795 96.2502 24.7795C96.8502 24.7795 97.1382 24.8755 97.3302 24.9475L97.1142 26.0515C96.9462 25.9795 96.5622 25.9315 96.2502 25.9315C93.9462 25.9315 92.4342 27.5395 92.4342 29.9395V37.4995H91.1142V26.5795C91.1142 25.6675 90.6822 25.1395 90.0342 25.1395V24.8995ZM108.556 37.4995H107.956C107.26 37.4995 107.212 37.4995 107.092 36.8035L106.9 35.6995V35.6755C105.724 36.9475 104.236 37.6195 102.46 37.6195C100.204 37.6195 98.5957 36.3955 98.5477 34.3555C98.5477 31.4995 100.804 30.4435 103.996 30.1315L106.9 29.8435V29.4355C106.9 27.2995 106.156 25.8595 103.54 25.8595C101.932 25.8595 100.564 26.2435 99.6997 26.8435L99.2437 25.9075C100.012 25.4275 101.356 24.7795 103.54 24.7795C107.02 24.7795 108.22 26.5795 108.22 29.4355V35.7235C108.22 36.6595 108.268 37.0915 108.556 37.2595V37.4995ZM99.8677 34.3555C99.8917 35.8675 100.924 36.5875 102.604 36.5875C104.476 36.5875 105.748 35.8195 106.9 34.4515V30.9235L103.996 31.2115C102.268 31.3795 99.8677 31.8595 99.8677 34.3555ZM118.719 31.9795L121.623 25.2355C121.767 24.9235 121.767 24.8995 122.127 24.8995H122.991L117.567 37.4995H116.127L111.423 26.5795C110.991 25.5715 110.583 25.1395 110.103 25.1395V24.8995H111.183C111.879 24.8995 112.263 25.1875 112.551 25.8595L115.191 31.9795L116.967 36.2995L118.719 31.9795ZM135.153 29.4355V31.4995C135.153 31.7395 135.153 31.7395 134.913 31.7395H125.985V32.9635C125.985 35.0995 127.281 36.5395 129.897 36.5395C131.673 36.5395 132.921 35.7715 133.785 34.5475L134.601 35.2195C133.809 36.5875 132.297 37.6195 129.897 37.6195C126.417 37.6195 124.665 35.8195 124.665 32.9635V29.4355C124.665 26.5795 126.417 24.7795 129.897 24.7795C133.377 24.7795 135.153 26.5795 135.153 29.4355ZM125.985 29.4355V30.6595H133.833V29.4355C133.833 27.2995 132.513 25.8595 129.897 25.8595C127.281 25.8595 125.985 27.2995 125.985 29.4355ZM137.683 19.7395H138.763C139.507 19.7395 140.059 20.1955 140.083 20.8675V34.7155C140.083 35.9155 140.227 36.4195 141.571 36.4195C141.763 36.4195 142.099 36.3955 142.387 36.3475L142.507 37.4035C142.219 37.4515 141.811 37.4995 141.547 37.4995C140.587 37.4995 138.763 37.6435 138.763 34.7155V21.4195C138.763 20.5075 138.331 19.9795 137.683 19.9795V19.7395Z" fill="#1E1E1E"/>
</svg>
