<svg width="29" height="29" viewBox="0 0 29 29" fill="none" xmlns="http://www.w3.org/2000/svg">
<g clip-path="url(#clip0_58_3691)">
<path d="M11.983 15.2065C11.8079 15.0749 11.5984 14.9969 11.3799 14.9819C11.1614 14.9669 10.9432 15.0156 10.7518 15.1221L7.61242 16.9346C7.52726 16.9775 7.45379 17.0405 7.39833 17.118C7.34288 17.1956 7.30709 17.2855 7.29404 17.38C7.29494 17.4784 7.32128 17.575 7.37051 17.6602C7.41973 17.7455 7.49017 17.8166 7.57498 17.8666L11.8609 20.3418L11.9253 28.2472C11.9234 28.3462 11.9485 28.4438 11.998 28.5296C12.0475 28.6153 12.1195 28.6859 12.2062 28.7338C12.2886 28.7793 12.3818 28.8018 12.4759 28.799C12.57 28.7962 12.6616 28.7682 12.7412 28.7179L15.8806 26.9054C16.0653 26.7909 16.2122 26.6245 16.3029 26.4269C16.3936 26.2294 16.424 26.0095 16.3904 25.7948L16.3187 17.7681L11.983 15.2065Z" fill="white"/>
<path d="M2.61018 3.77911C2.52393 3.73231 2.42736 3.7078 2.32924 3.7078C2.23111 3.7078 2.13455 3.73231 2.0483 3.77911C1.97159 3.83268 1.90973 3.90485 1.86851 3.98886C1.8273 4.07287 1.80809 4.16596 1.81268 4.25942L1.81268 7.95692C1.81872 8.1709 1.88831 8.37823 2.01257 8.55253C2.13684 8.72683 2.31017 8.8602 2.51049 8.93567C2.51049 8.93567 16.4939 16.82 16.9471 17.0919L26.4899 11.89C26.691 11.8053 26.8637 11.6646 26.9874 11.4847C27.111 11.3048 27.1806 11.0932 27.1877 10.875L27.1877 7.25004C27.1957 7.15486 27.1781 7.05927 27.1366 6.97321C27.0952 6.88715 27.0315 6.81376 26.9521 6.76067C26.8666 6.71135 26.7697 6.68539 26.6711 6.68539C26.5725 6.68539 26.4756 6.71135 26.3902 6.76067L16.9652 11.9172L2.61018 3.77911Z" fill="white"/>
</g>
<defs>
<clipPath id="clip0_58_3691">
<rect width="29" height="29" fill="white" transform="translate(0 29) rotate(-90)"/>
</clipPath>
</defs>
</svg>
