<svg width="179" height="62" viewBox="0 0 179 62" fill="none" xmlns="http://www.w3.org/2000/svg">
<path d="M30.6532 44.9205C30.6532 44.9205 30.6532 24.8461 31.3197 24.848C31.8351 24.848 32.5055 50.7427 32.5055 50.7427C31.5832 50.6342 30.6532 46.4822 30.6532 44.9205ZM43.5725 25.0805C41.7919 17.2995 37.8917 10.6093 32.5132 5.4459L32.4997 5.43428C31.8448 4.43453 31.2461 3.28753 30.7656 2.07853L30.7191 1.94678C30.7211 1.98553 30.7211 2.03203 30.7211 2.07853C30.7211 3.17321 30.2309 4.15165 29.4578 4.80847L29.452 4.81234C22.5274 10.6907 18.1215 19.3533 17.9762 29.0466V29.0718C17.9742 29.1919 17.9742 29.3333 17.9742 29.4748C17.9742 39.079 22.5952 47.604 29.7349 52.9476L29.8104 53.0018L29.979 53.1239C30.2903 55.4282 30.5564 57.7377 30.7772 60.0524H31.9417C32.2633 57.1636 32.6973 54.6352 33.265 52.1552L33.1759 52.6182C33.9431 52.0854 34.6135 51.5332 35.2393 50.9345L35.2335 50.9403C40.6604 45.9087 44.0472 38.7399 44.0472 30.7826C44.0472 30.6644 44.0472 30.5482 44.0452 30.43V30.4474C44.0394 28.5467 43.867 26.6887 43.5396 24.8848L43.5686 25.0767L43.5725 25.0805Z" fill="black"/>
<path d="M71.3077 24.8995H72.3877C73.1317 24.8995 73.6837 25.3555 73.7077 26.0275V27.0355C74.5717 25.7635 76.0357 24.7795 78.1717 24.7795C80.2837 24.7795 81.8677 25.8115 82.5157 27.5395C83.3077 26.0515 84.8677 24.7795 87.2917 24.7795C90.0757 24.7795 91.9477 26.5795 91.9477 29.4355V37.4995H90.6277V29.4355C90.6277 27.2995 89.5717 25.8595 87.0997 25.8595C84.4837 25.8595 82.8277 27.8035 82.8277 29.9395V37.4995H81.5077V29.4355C81.5077 27.2995 80.4517 25.8595 77.9797 25.8595C75.3637 25.8595 73.7077 27.8035 73.7077 29.9395V37.4995H72.3877V26.5795C72.3877 25.6675 71.9557 25.1395 71.3077 25.1395V24.8995ZM95.4389 32.9635V29.4355C95.4389 26.5795 97.3589 24.7795 100.839 24.7795C104.319 24.7795 106.239 26.5795 106.239 29.4355V32.9635C106.239 35.8195 104.319 37.6195 100.839 37.6195C97.3589 37.6195 95.4389 35.8195 95.4389 32.9635ZM96.7589 29.4355V32.9635C96.7589 35.0995 98.2229 36.5395 100.839 36.5395C103.455 36.5395 104.919 35.0995 104.919 32.9635V29.4355C104.919 27.2995 103.455 25.8595 100.839 25.8595C98.2229 25.8595 96.7589 27.2995 96.7589 29.4355ZM108.761 24.8995H109.841C110.585 24.8995 111.137 25.3555 111.161 26.0275V27.0355C112.025 25.7635 113.489 24.7795 115.625 24.7795C118.553 24.7795 120.641 26.5795 120.641 29.4355V37.4995H119.321V29.4355C119.321 27.2995 118.049 25.8595 115.433 25.8595C112.817 25.8595 111.161 27.8035 111.161 29.9395V37.4995H109.841V26.5795C109.841 25.6675 109.409 25.1395 108.761 25.1395V24.8995ZM135.196 25.0675V25.5715C135.196 25.8115 135.196 25.8115 134.956 25.8355L133.036 26.1235C133.66 26.7235 133.996 27.5395 133.996 28.5235V28.9075C133.996 31.3075 131.98 32.6515 129.052 32.6515C127.924 32.6515 126.94 32.4595 126.148 32.0755C125.836 32.3155 125.62 32.6755 125.62 33.0835C125.62 34.8595 129.652 34.1875 132.412 35.0275C133.852 35.4835 134.932 36.3475 134.932 38.1955C134.932 40.0915 133.252 42.0595 129.028 42.0595C126.724 42.0595 123.196 41.3875 123.196 38.4115C123.196 36.7315 124.372 35.7955 125.764 35.3395C125.02 35.0035 124.516 34.4275 124.516 33.4435C124.516 32.6755 124.924 32.0755 125.524 31.6915C124.612 31.0675 124.108 30.1315 124.108 28.9075V28.5235C124.108 26.1235 126.124 24.7795 129.052 24.7795C129.844 24.7795 130.564 24.8755 131.212 25.0675H135.196ZM124.396 38.3395C124.396 40.6435 127.276 41.0995 129.028 41.0995C130.828 41.0995 133.66 40.6915 133.66 38.3155C133.66 35.4835 129.7 36.1075 126.988 35.6755C125.62 35.9635 124.396 36.7075 124.396 38.3395ZM125.428 28.5235V28.9075C125.428 30.7555 126.988 31.5715 129.052 31.5715C131.116 31.5715 132.676 30.7555 132.676 28.9075V28.5235C132.676 26.6755 131.116 25.8595 129.052 25.8595C126.988 25.8595 125.428 26.6755 125.428 28.5235ZM137.626 32.9635V29.4355C137.626 26.5795 139.546 24.7795 143.026 24.7795C146.506 24.7795 148.426 26.5795 148.426 29.4355V32.9635C148.426 35.8195 146.506 37.6195 143.026 37.6195C139.546 37.6195 137.626 35.8195 137.626 32.9635ZM138.946 29.4355V32.9635C138.946 35.0995 140.41 36.5395 143.026 36.5395C145.642 36.5395 147.106 35.0995 147.106 32.9635V29.4355C147.106 27.2995 145.642 25.8595 143.026 25.8595C140.41 25.8595 138.946 27.2995 138.946 29.4355ZM162.348 37.4995H161.748C161.508 37.4995 161.508 37.4995 161.46 37.2595L161.052 35.3635C160.188 36.6355 158.724 37.6195 156.564 37.6195C153.636 37.6195 151.548 35.8195 151.548 32.9635V29.4355C151.548 26.5795 153.636 24.7795 156.564 24.7795C158.7 24.7795 160.164 25.7635 161.028 27.0355V21.4195C161.028 20.5075 160.596 19.9795 159.948 19.9795V19.7395H161.028C161.772 19.7395 162.324 20.1955 162.348 20.8675V37.4995ZM156.756 36.5395C159.372 36.5395 161.028 34.5955 161.028 32.4595V29.9395C161.028 27.8035 159.372 25.8595 156.756 25.8595C154.14 25.8595 152.868 27.2995 152.868 29.4355V32.9635C152.868 35.0995 154.14 36.5395 156.756 36.5395ZM167.622 35.3635L167.31 37.2595C167.262 37.4995 167.262 37.4995 167.022 37.4995H166.302V21.4195C166.302 20.5075 165.87 19.9795 165.222 19.9795V19.7395H166.302C167.046 19.7395 167.598 20.1955 167.622 20.8675V27.0355C168.486 25.7635 169.95 24.7795 172.086 24.7795C175.014 24.7795 177.102 26.5795 177.102 29.4355V32.9635C177.102 35.8195 175.014 37.6195 172.086 37.6195C169.95 37.6195 168.486 36.6355 167.622 35.3635ZM167.622 29.9395V32.4595C167.622 34.5955 169.278 36.5395 171.894 36.5395C174.51 36.5395 175.782 35.0995 175.782 32.9635V29.4355C175.782 27.2995 174.51 25.8595 171.894 25.8595C169.278 25.8595 167.622 27.8035 167.622 29.9395Z" fill="#1E1E1E"/>
</svg>
