<svg width="190" height="62" viewBox="0 0 190 62" fill="none" xmlns="http://www.w3.org/2000/svg">
<g clip-path="url(#clip0_134_250)">
<path d="M0 6.39321V33.234L7.75 37.711V19.8136L23.25 28.7649L38.75 19.8136V28.7649L23.25 37.711V46.6596L38.75 55.6057L62 42.1853V24.288L54.25 28.7649V37.711L38.75 46.6596L31 42.1853L46.5 33.234V6.39321L23.25 19.8136L0 6.39321ZM62 6.39321L54.25 10.8624V19.8136L62 15.3393V6.39321Z" fill="black"/>
</g>
<path d="M81.8253 32.2435L87.1293 21.1315C87.3213 20.6995 87.3693 20.6995 87.8253 20.6995H89.0253V37.4995H87.7293V25.4995L87.7773 22.4275L81.1773 36.2515H80.6733L74.0493 22.4275L74.0973 25.4995V37.4995H72.8013V22.3795C72.8013 21.4675 72.3693 20.9395 71.7213 20.9395V20.6995H73.0173C74.1453 20.6995 74.7453 21.2035 75.4413 22.6675L80.0253 32.2675L80.9133 34.2835L81.8253 32.2435ZM102.747 37.4995H102.147C101.451 37.4995 101.403 37.4995 101.283 36.8035L101.091 35.6995V35.6755C99.9151 36.9475 98.4271 37.6195 96.6511 37.6195C94.3951 37.6195 92.7871 36.3955 92.7391 34.3555C92.7391 31.4995 94.9951 30.4435 98.1871 30.1315L101.091 29.8435V29.4355C101.091 27.2995 100.347 25.8595 97.7311 25.8595C96.1231 25.8595 94.7551 26.2435 93.8911 26.8435L93.4351 25.9075C94.2031 25.4275 95.5471 24.7795 97.7311 24.7795C101.211 24.7795 102.411 26.5795 102.411 29.4355V35.7235C102.411 36.6595 102.459 37.0915 102.747 37.2595V37.4995ZM94.0591 34.3555C94.0831 35.8675 95.1151 36.5875 96.7951 36.5875C98.6671 36.5875 99.9391 35.8195 101.091 34.4515V30.9235L98.1871 31.2115C96.4591 31.3795 94.0591 31.8595 94.0591 34.3555ZM104.816 25.9795V25.5955C104.816 25.3555 104.816 25.3555 105.032 25.2595L105.944 24.8995H106.688V23.4595C106.688 22.5475 106.256 22.0195 105.608 22.0195V21.7795H106.688C107.432 21.7795 107.984 22.2355 108.008 22.9075V24.8995H111.224V25.9795H108.008V33.6595C108.008 35.8915 109.136 36.3715 110.696 36.3715C111.056 36.3715 111.512 36.3475 111.752 36.2995L111.968 37.3795C111.728 37.4275 111.392 37.4995 110.696 37.4995C108.44 37.4995 106.688 36.6595 106.688 33.6595V25.9795H104.816ZM124.142 29.4355V31.4995C124.142 31.7395 124.142 31.7395 123.902 31.7395H114.974V32.9635C114.974 35.0995 116.27 36.5395 118.886 36.5395C120.662 36.5395 121.91 35.7715 122.774 34.5475L123.59 35.2195C122.798 36.5875 121.286 37.6195 118.886 37.6195C115.406 37.6195 113.654 35.8195 113.654 32.9635V29.4355C113.654 26.5795 115.406 24.7795 118.886 24.7795C122.366 24.7795 124.142 26.5795 124.142 29.4355ZM114.974 29.4355V30.6595H122.822V29.4355C122.822 27.2995 121.502 25.8595 118.886 25.8595C116.27 25.8595 114.974 27.2995 114.974 29.4355ZM126.671 24.8995H127.703C128.447 24.8995 128.999 25.3555 129.023 26.0275V27.0595C129.791 25.6675 131.063 24.7795 132.887 24.7795C133.487 24.7795 133.775 24.8755 133.967 24.9475L133.751 26.0515C133.583 25.9795 133.199 25.9315 132.887 25.9315C130.583 25.9315 129.071 27.5395 129.071 29.9395V37.4995H127.751V26.5795C127.751 25.6675 127.319 25.1395 126.671 25.1395V24.8995ZM135.507 25.1395V24.8995H136.587C137.331 24.8995 137.883 25.3555 137.907 26.0275V37.4995H136.587V26.5795C136.587 25.6675 136.155 25.1395 135.507 25.1395ZM136.131 21.6115C136.131 21.0355 136.587 20.5795 137.139 20.5795C137.715 20.5795 138.171 21.0355 138.171 21.6115C138.171 22.1635 137.715 22.6195 137.139 22.6195C136.587 22.6195 136.131 22.1635 136.131 21.6115ZM151.31 37.4995H150.71C150.014 37.4995 149.966 37.4995 149.846 36.8035L149.654 35.6995V35.6755C148.478 36.9475 146.99 37.6195 145.214 37.6195C142.958 37.6195 141.35 36.3955 141.302 34.3555C141.302 31.4995 143.558 30.4435 146.75 30.1315L149.654 29.8435V29.4355C149.654 27.2995 148.91 25.8595 146.294 25.8595C144.686 25.8595 143.318 26.2435 142.454 26.8435L141.998 25.9075C142.766 25.4275 144.11 24.7795 146.294 24.7795C149.774 24.7795 150.974 26.5795 150.974 29.4355V35.7235C150.974 36.6595 151.022 37.0915 151.31 37.2595V37.4995ZM142.622 34.3555C142.646 35.8675 143.678 36.5875 145.358 36.5875C147.23 36.5875 148.502 35.8195 149.654 34.4515V30.9235L146.75 31.2115C145.022 31.3795 142.622 31.8595 142.622 34.3555ZM153.858 19.7395H154.938C155.682 19.7395 156.234 20.1955 156.258 20.8675V34.7155C156.258 35.9155 156.402 36.4195 157.746 36.4195C157.938 36.4195 158.274 36.3955 158.562 36.3475L158.682 37.4035C158.394 37.4515 157.986 37.4995 157.722 37.4995C156.762 37.4995 154.938 37.6435 154.938 34.7155V21.4195C154.938 20.5075 154.506 19.9795 153.858 19.9795V19.7395ZM166.831 20.6995H167.911C168.655 20.6995 169.207 21.1555 169.231 21.8275V31.2355C169.231 34.7635 170.935 36.4915 174.391 36.4915C177.847 36.4915 179.527 34.7635 179.527 31.2355V20.6995H180.847V31.2115C180.847 35.4355 178.663 37.6195 174.391 37.6195C170.119 37.6195 167.911 35.4355 167.911 31.2115V22.3795C167.911 21.4675 167.479 20.9395 166.831 20.9395V20.6995ZM184.807 20.9395V20.6995H185.887C186.631 20.6995 187.183 21.1555 187.207 21.8275V37.4995H185.887V22.3795C185.887 21.4675 185.455 20.9395 184.807 20.9395Z" fill="#1E1E1E"/>
<defs>
<clipPath id="clip0_134_250">
<rect width="62" height="62" fill="white" transform="translate(0 -0.000488281)"/>
</clipPath>
</defs>
</svg>
