<svg width="143" height="62" viewBox="0 0 143 62" fill="none" xmlns="http://www.w3.org/2000/svg">
<path fill-rule="evenodd" clip-rule="evenodd" d="M35.8205 3.87451C35.4481 3.87875 35.0789 3.9442 34.7278 4.06826C37.8491 6.11814 34.1853 9.09414 35.8903 11.6245C35.771 10.7775 35.9054 9.91413 36.2764 9.14342C36.6474 8.37272 37.2385 7.72923 37.975 7.2942C38.5272 6.83501 38.8798 6.67032 38.7616 5.91082C38.5756 4.66695 36.9171 3.87451 35.8205 3.87451ZM40.2768 4.67664C39.8466 6.85245 39.308 6.93189 37.7135 8.3327C37.0909 8.82254 36.6514 9.50773 36.4658 10.2778C36.2802 11.0479 36.3594 11.8581 36.6905 12.5778C30.103 10.0203 21.6593 8.47414 15.469 12.8994C13.2428 14.4901 11.8827 16.7744 9.13727 17.7063C7.36252 18.3128 5.61877 18.1345 4.51052 19.8938C4.10378 20.4018 3.89131 21.038 3.91119 21.6885C3.93107 22.3389 4.18201 22.9611 4.61902 23.4433C4.94839 23.7823 5.58777 23.9993 5.85127 24.3442C6.00433 24.5379 6.00045 24.7317 6.14577 24.9894C6.40196 25.5903 6.77318 26.1352 7.23852 26.5936C7.52139 26.8281 8.50177 27.0567 8.66839 27.3066C8.8757 27.6186 8.3332 28.8566 8.78852 29.0504C9.09658 29.1918 9.99364 27.6089 10.0808 27.4694C9.90258 28.7152 9.66814 30.9259 11.069 29.0853C11.7335 28.2114 11.7742 27.9228 12.8921 27.729C15.0985 27.3511 17.3593 27.4347 19.5318 27.9744C21.7042 28.5141 23.7412 29.4982 25.5143 30.8647C27.2873 32.2312 28.7578 33.9504 29.8331 35.9137C30.9083 37.8771 31.5649 40.042 31.7615 42.2719C31.5522 41.3031 30.287 39.7531 29.109 40.1213C28.6072 40.2763 28.4212 41.1423 28.0918 41.6441C27.676 42.2809 27.1628 42.8484 26.5709 43.3259C26.6719 42.3866 26.6249 41.4373 26.4314 40.5126C26.0788 41.9619 25.3716 44.3663 23.591 43.9769C22.9979 43.8863 22.4421 43.6309 21.9871 43.2396C21.5322 42.8484 21.1964 42.3372 21.018 41.7643C20.7875 40.2918 22.3433 38.5654 19.842 38.4434C14.8238 38.1973 15.9844 45.5773 18.9468 47.5012C18.266 47.5765 17.6019 47.7617 16.9803 48.0495C18.8606 49.1422 20.9793 49.7591 23.1523 49.8467C25.3253 49.9343 27.4869 49.49 29.4491 48.5522C31.4113 47.6144 33.1148 46.2117 34.4115 44.4659C35.7083 42.72 36.5591 40.6839 36.89 38.5345C37.5801 41.6788 37.1368 44.9659 35.6384 47.8151C35.0112 49.0062 34.2078 50.0957 33.2553 51.0468C32.674 51.6281 31.5231 52.2674 31.1453 52.87C33.4967 52.5591 35.7946 51.9281 37.975 50.9945C35.7181 54.0699 32.7184 56.523 29.2563 58.1245C32.9739 57.8613 36.5675 56.677 39.7132 54.6784C42.8588 52.6797 45.4575 49.9295 47.275 46.6758C46.6958 49.93 45.4094 53.0174 43.5066 55.7201C46.0659 54.0067 48.2433 51.7827 49.9021 49.1877C51.5608 46.5926 52.6651 43.6827 53.1456 40.6405C53.6218 42.8676 53.7583 45.1539 53.5506 47.4218C55.6536 44.5008 57.0745 41.1452 57.7086 37.6023C58.3427 34.0593 58.1738 30.4192 57.2144 26.9501C56.4801 24.2536 55.379 21.6707 53.942 19.2738C53.3858 18.3397 52.7771 17.438 52.1188 16.5729C51.8611 16.2377 50.4835 15.0113 50.4835 14.6354C50.4719 14.6728 50.4622 14.6728 50.4545 14.6354C50.4545 20.9633 43.6732 24.9254 37.9944 23.2824C40.1927 23.1099 42.2664 22.1926 43.8728 20.682C45.4792 19.1714 46.5221 17.158 46.8294 14.9744C47.0886 12.7664 46.5786 10.5365 45.3853 8.66065C44.192 6.78481 42.3865 5.37774 40.2768 4.67664Z" fill="url(#paint0_linear_285_419)"/>
<path d="M28.3649 52.5327L31.6006 50.5952C31.7684 51.1546 32.0998 51.651 32.5521 52.0205C33.0045 52.39 33.557 52.6156 34.1387 52.6683C35.4368 52.6683 36.2699 52.1646 36.2699 50.169V36.6065H40.1449V50.169C40.2279 50.8715 40.1717 51.5834 39.9796 52.2642C39.7874 52.945 39.463 53.5813 39.0249 54.1367C38.5868 54.6921 38.0436 55.1557 37.4263 55.5012C36.809 55.8466 36.1296 56.0671 35.4271 56.15C35.0247 56.1946 34.6186 56.1946 34.2162 56.15C32.975 56.2163 31.7428 55.9058 30.6813 55.2592C29.6198 54.6126 28.7786 53.6602 28.2681 52.5269M42.3924 52.1006L45.6281 50.1631C45.9857 50.8851 46.5381 51.4926 47.2229 51.9171C47.9076 52.3417 48.6974 52.5663 49.5031 52.5656C50.0914 52.7122 50.7139 52.6192 51.2337 52.3071C51.7535 51.9951 52.1283 51.4895 52.2756 50.9013C52.2892 50.8432 52.3028 50.7851 52.3124 50.725C52.3124 49.3688 51.2274 48.7875 49.4256 48.09L48.4374 47.6618C45.5699 46.4412 43.6712 44.9106 43.6712 41.675C43.6825 40.2677 44.2521 38.9224 45.2548 37.9349C46.2576 36.9474 47.6114 36.3985 49.0187 36.4088C49.1756 36.4088 49.3306 36.4088 49.4876 36.4321C50.6365 36.3432 51.7859 36.5978 52.7898 37.1636C53.7937 37.7293 54.6067 38.5807 55.1257 39.6096L52.0451 41.5471C51.8436 41.0359 51.4906 40.5987 51.0334 40.2939C50.5763 39.9891 50.0369 39.8315 49.4876 39.8421C49.2629 39.8139 49.0348 39.8303 48.8165 39.8903C48.5981 39.9503 48.3937 40.0528 48.215 40.1919C48.0363 40.3311 47.8868 40.504 47.775 40.701C47.6632 40.898 47.5914 41.115 47.5636 41.3398C47.5542 41.4085 47.5497 41.4777 47.5501 41.5471C47.5501 42.729 48.2863 43.2133 49.9913 43.9496L50.9794 44.3758C54.2499 45.829 56.1874 47.3015 56.1874 50.634C56.1874 53.9665 53.3781 56.1558 49.6193 56.1558C48.1523 56.2507 46.6893 55.9188 45.4068 55.2003C44.1244 54.4817 43.0774 53.4071 42.3924 52.1065" fill="black"/>
<path d="M71.0733 24.8995H72.1533C72.8973 24.8995 73.4493 25.3555 73.4733 26.0275V27.0355C74.3373 25.7635 75.8013 24.7795 77.9373 24.7795C80.8653 24.7795 82.9533 26.5795 82.9533 29.4355V37.4995H81.6333V29.4355C81.6333 27.2995 80.3613 25.8595 77.7453 25.8595C75.1293 25.8595 73.4733 27.8035 73.4733 29.9395V37.4995H72.1533V26.5795C72.1533 25.6675 71.7213 25.1395 71.0733 25.1395V24.8995ZM96.9269 29.4355V31.4995C96.9269 31.7395 96.9269 31.7395 96.6869 31.7395H87.7589V32.9635C87.7589 35.0995 89.0549 36.5395 91.6709 36.5395C93.4469 36.5395 94.6949 35.7715 95.5589 34.5475L96.3749 35.2195C95.5829 36.5875 94.0709 37.6195 91.6709 37.6195C88.1909 37.6195 86.4389 35.8195 86.4389 32.9635V29.4355C86.4389 26.5795 88.1909 24.7795 91.6709 24.7795C95.1509 24.7795 96.9269 26.5795 96.9269 29.4355ZM87.7589 29.4355V30.6595H95.6069V29.4355C95.6069 27.2995 94.2869 25.8595 91.6709 25.8595C89.0549 25.8595 87.7589 27.2995 87.7589 29.4355ZM99.6961 36.1315L100.224 35.1475C101.136 35.8435 102.72 36.4915 104.712 36.4915C106.344 36.4915 107.856 35.9395 107.856 34.2595C107.856 32.5795 106.392 32.0995 104.736 31.8355C102.576 31.4995 100.08 30.8035 100.08 28.1395C100.08 25.8355 102.336 24.7795 104.688 24.7795C106.44 24.7795 107.952 25.2835 108.936 25.9555L108.408 26.9635C107.688 26.4355 106.344 25.9075 104.688 25.9075C103.032 25.9075 101.424 26.6275 101.424 28.0675C101.424 29.7715 102.984 30.1795 104.736 30.4675C106.848 30.8035 109.2 31.5235 109.2 34.1875C109.2 36.7315 106.992 37.6195 104.688 37.6195C102.552 37.6195 100.776 36.9715 99.6961 36.1315ZM110.929 25.9795V25.5955C110.929 25.3555 110.929 25.3555 111.145 25.2595L112.057 24.8995H112.801V23.4595C112.801 22.5475 112.369 22.0195 111.721 22.0195V21.7795H112.801C113.545 21.7795 114.097 22.2355 114.121 22.9075V24.8995H117.337V25.9795H114.121V33.6595C114.121 35.8915 115.249 36.3715 116.809 36.3715C117.169 36.3715 117.625 36.3475 117.865 36.2995L118.081 37.3795C117.841 37.4275 117.505 37.4995 116.809 37.4995C114.553 37.4995 112.801 36.6595 112.801 33.6595V25.9795H110.929ZM124.43 42.1555L124.646 41.1715C126.47 41.0515 127.43 40.3795 127.43 38.2435V26.5795C127.43 25.6675 126.998 25.1395 126.35 25.1395V24.8995H127.43C128.174 24.8995 128.726 25.3555 128.75 26.0275V38.2435C128.75 40.9795 127.286 42.1555 124.43 42.1555ZM126.974 21.6115C126.974 21.0355 127.43 20.5795 127.982 20.5795C128.558 20.5795 129.014 21.0355 129.014 21.6115C129.014 22.1635 128.558 22.6195 127.982 22.6195C127.43 22.6195 126.974 22.1635 126.974 21.6115ZM132.134 36.1315L132.662 35.1475C133.574 35.8435 135.158 36.4915 137.15 36.4915C138.782 36.4915 140.294 35.9395 140.294 34.2595C140.294 32.5795 138.83 32.0995 137.174 31.8355C135.014 31.4995 132.518 30.8035 132.518 28.1395C132.518 25.8355 134.774 24.7795 137.126 24.7795C138.878 24.7795 140.39 25.2835 141.374 25.9555L140.846 26.9635C140.126 26.4355 138.782 25.9075 137.126 25.9075C135.47 25.9075 133.862 26.6275 133.862 28.0675C133.862 29.7715 135.422 30.1795 137.174 30.4675C139.286 30.8035 141.638 31.5235 141.638 34.1875C141.638 36.7315 139.43 37.6195 137.126 37.6195C134.99 37.6195 133.214 36.9715 132.134 36.1315Z" fill="#1E1E1E"/>
<defs>
<linearGradient id="paint0_linear_285_419" x1="30.9942" y1="58.1245" x2="30.9942" y2="3.87451" gradientUnits="userSpaceOnUse">
<stop stop-color="#929292"/>
<stop offset="1"/>
</linearGradient>
</defs>
</svg>
