<svg width="147" height="62" viewBox="0 0 147 62" fill="none" xmlns="http://www.w3.org/2000/svg">
<g clip-path="url(#clip0_285_596)">
<path d="M44.795 21.3893L46.035 13.6393L51.925 19.5293L45.7623 22.2201L44.795 21.3893ZM53.475 21.0793L59.675 27.2793C60.7524 28.4121 61.9663 29.278 62 30.3793L46.6652 23.8628L53.475 21.0793ZM61.69 32.3943C59.1405 35.6197 55.8751 38.5192 52.7 41.6943L43.2483 39.7398C43.2483 38.9648 42.7566 38.2703 42.1366 37.8053L43.865 26.9693C44.7357 27.0304 45.6867 26.2982 45.9078 25.6175L61.69 32.3943ZM50.995 43.3993L39.37 55.0243L41.385 42.7793C41.9849 42.5751 42.4446 42.2071 42.78 41.6943L50.995 43.3993ZM36.89 57.5043L35.65 58.7443L21.08 37.8193C21.3196 37.6268 21.4537 37.4165 21.545 37.1993L37.665 40.6093C37.8003 41.4388 38.7839 42.3625 39.4002 42.6243L36.89 57.5043ZM34.255 60.1393L32.24 61.8443H29.45C24.3025 56.6425 12.71 45.1043 12.71 45.1043L16.615 39.1602C17.6428 39.5495 18.8419 39.476 19.6639 38.9961L34.255 60.1393ZM8.06 40.4543L14.57 37.5093L15.035 38.1293L11.018 43.3767L8.06 40.4543ZM6.51 38.9043L0.775 33.0143L14.0626 35.7652L6.51 38.9043ZM0 30.8443C0.217727 29.2124 1.56889 28.1248 2.325 27.2793L7.75 21.8543L15.345 32.8593L14.5526 33.8163L0 30.8443ZM9.145 20.4593L16.43 13.1743L25.73 17.2043C25.3407 18.6239 25.7499 19.8615 26.505 20.4593L18.9431 31.9384C18.1786 31.6774 17.6685 31.7984 17.171 31.9379L9.145 20.4593ZM17.98 11.7793C17.98 11.7793 28.985 0.464297 29.76 0.154297H31.93L36.735 4.3393L29.9545 14.8925C28.8646 14.6566 27.4976 14.7356 26.736 15.4628L17.98 11.7793ZM38.13 5.7343L44.33 11.9343L42.9011 21.3706C42.5611 21.4356 42.0982 21.6202 41.8303 21.9135L32.085 17.7531C32.2372 17.0816 32.0855 16.3426 31.62 15.9643L38.13 5.7343ZM40.765 23.4774L40.7592 24.4278L20.925 32.8593L20.77 32.7043L28.3133 21.224C29.7952 21.3611 31.0662 20.6541 31.6613 19.6264L40.765 23.4774ZM21.7 34.5643L41.54 26.0393L42.0123 26.5043L40.2893 37.1977C39.294 37.3166 38.3202 37.9297 37.8825 38.7729L22.01 35.3393L21.7 34.5643Z" fill="black"/>
</g>
<path d="M71.3975 24.8995H72.4775C73.2215 24.8995 73.7735 25.3555 73.7975 26.0275V27.0355C74.6615 25.7635 76.1255 24.7795 78.2615 24.7795C81.1895 24.7795 83.2775 26.5795 83.2775 29.4355V37.4995H81.9575V29.4355C81.9575 27.2995 80.6855 25.8595 78.0695 25.8595C75.4535 25.8595 73.7975 27.8035 73.7975 29.9395V37.4995H72.4775V26.5795C72.4775 25.6675 72.0455 25.1395 71.3975 25.1395V24.8995ZM97.2511 29.4355V31.4995C97.2511 31.7395 97.2511 31.7395 97.0111 31.7395H88.0831V32.9635C88.0831 35.0995 89.3791 36.5395 91.9951 36.5395C93.7711 36.5395 95.0191 35.7715 95.8831 34.5475L96.6991 35.2195C95.9071 36.5875 94.3951 37.6195 91.9951 37.6195C88.5151 37.6195 86.7631 35.8195 86.7631 32.9635V29.4355C86.7631 26.5795 88.5151 24.7795 91.9951 24.7795C95.4751 24.7795 97.2511 26.5795 97.2511 29.4355ZM88.0831 29.4355V30.6595H95.9311V29.4355C95.9311 27.2995 94.6111 25.8595 91.9951 25.8595C89.3791 25.8595 88.0831 27.2995 88.0831 29.4355ZM99.3003 25.9795V25.5955C99.3003 25.3555 99.3003 25.3555 99.5163 25.2595L100.428 24.8995H101.172V23.4595C101.172 22.5475 100.74 22.0195 100.092 22.0195V21.7795H101.172C101.916 21.7795 102.468 22.2355 102.492 22.9075V24.8995H105.708V25.9795H102.492V33.6595C102.492 35.8915 103.62 36.3715 105.18 36.3715C105.54 36.3715 105.996 36.3475 106.236 36.2995L106.452 37.3795C106.212 37.4275 105.876 37.4995 105.18 37.4995C102.924 37.4995 101.172 36.6595 101.172 33.6595V25.9795H99.3003ZM108.007 19.7395H109.087C109.831 19.7395 110.383 20.1955 110.407 20.8675V34.7155C110.407 35.9155 110.551 36.4195 111.895 36.4195C112.087 36.4195 112.423 36.3955 112.711 36.3475L112.831 37.4035C112.543 37.4515 112.135 37.4995 111.871 37.4995C110.911 37.4995 109.087 37.6435 109.087 34.7155V21.4195C109.087 20.5075 108.655 19.9795 108.007 19.9795V19.7395ZM114.265 25.1395V24.8995H115.345C116.089 24.8995 116.641 25.3555 116.665 26.0275V37.4995H115.345V26.5795C115.345 25.6675 114.913 25.1395 114.265 25.1395ZM114.889 21.6115C114.889 21.0355 115.345 20.5795 115.897 20.5795C116.473 20.5795 116.929 21.0355 116.929 21.6115C116.929 22.1635 116.473 22.6195 115.897 22.6195C115.345 22.6195 114.889 22.1635 114.889 21.6115ZM119.339 25.9795V25.5955C119.339 25.3555 119.363 25.3555 119.579 25.2835L120.971 24.8995H121.211V23.5795C121.211 21.0355 122.531 19.7395 125.099 19.7395C125.723 19.7395 126.347 19.7875 126.827 19.8835L126.635 20.9635C126.251 20.8915 125.699 20.8675 125.195 20.8675C123.275 20.8675 122.531 21.6115 122.531 23.5795V24.8995H125.747V25.9795H122.531V37.4995H121.211V25.9795H119.339ZM135.351 31.9555L138.255 25.2355C138.399 24.9235 138.399 24.8995 138.759 24.8995H139.839L134.367 37.6195C133.047 40.6915 132.303 42.0355 130.023 42.0355C129.543 42.0355 129.015 41.9635 128.391 41.8675L128.655 40.7635C129.087 40.8595 129.471 40.9075 129.807 40.9075C131.415 40.9075 131.847 40.0915 132.879 37.7155L132.975 37.4995L128.271 26.5795C127.839 25.5715 127.431 25.1395 126.951 25.1395V24.8995H128.031C128.727 24.8995 129.111 25.1875 129.399 25.8595L132.039 31.9795L133.695 36.0595L135.351 31.9555Z" fill="#1E1E1E"/>
<defs>
<clipPath id="clip0_285_596">
<rect width="62" height="62" fill="white" transform="translate(0 -0.000488281)"/>
</clipPath>
</defs>
</svg>
