<svg width="151" height="62" viewBox="0 0 151 62" fill="none" xmlns="http://www.w3.org/2000/svg">
<g clip-path="url(#clip0_285_406)">
<path d="M54.6375 15.2414L33.1958 3.0997C32.5087 2.77711 31.759 2.60986 31 2.60986C30.2409 2.60986 29.4912 2.77711 28.8041 3.0997L7.36246 15.2414C6.70321 15.6219 6.15418 16.1672 5.76923 16.8239C5.38428 17.4806 5.17662 18.2261 5.16663 18.9872V43.0122C5.17662 43.7733 5.38428 44.5188 5.76923 45.1755C6.15418 45.8321 6.70321 46.3775 7.36246 46.758L13.0458 49.9872C14.5305 50.8645 16.2299 51.3117 17.9541 51.2789C21.9583 51.2789 24.2833 48.8247 24.2833 44.6914V21.0539C24.2833 20.8826 24.2152 20.7183 24.0941 20.5972C23.973 20.4761 23.8087 20.408 23.6375 20.408H20.925C20.7537 20.408 20.5894 20.4761 20.4683 20.5972C20.3472 20.7183 20.2791 20.8826 20.2791 21.0539V44.6914C20.2791 46.6289 18.3416 48.4372 15.2416 46.8872L9.29996 43.5289C9.21975 43.4687 9.15465 43.3907 9.10981 43.301C9.06497 43.2113 9.04163 43.1125 9.04163 43.0122V18.9872C9.05052 18.7485 9.1418 18.5203 9.29996 18.3414L30.6125 6.32886H31.3875L52.7 18.3414C52.8581 18.5203 52.9494 18.7485 52.9583 18.9872V43.0122C52.9583 43.1125 52.9349 43.2113 52.8901 43.301C52.8453 43.3907 52.7802 43.4687 52.7 43.5289L31.3875 55.5414C31.2696 55.6094 31.136 55.6452 31 55.6452C30.8639 55.6452 30.7303 55.6094 30.6125 55.5414L25.1875 52.4414C25.1164 52.3778 25.0244 52.3427 24.9291 52.3427C24.8338 52.3427 24.7418 52.3778 24.6708 52.4414L21.4416 53.8622C21.0541 53.9914 20.5375 54.1205 21.5708 54.7664L28.8041 58.7705C29.4565 59.1984 30.2198 59.4263 31 59.4263C31.7802 59.4263 32.5434 59.1984 33.1958 58.7705L54.6375 46.758C55.2967 46.3775 55.8457 45.8321 56.2307 45.1755C56.6156 44.5188 56.8233 43.7733 56.8333 43.0122V18.9872C56.8233 18.2261 56.6156 17.4806 56.2307 16.8239C55.8457 16.1672 55.2967 15.6219 54.6375 15.2414Z" fill="black"/>
<path d="M37.5875 39.1372C31.9041 39.1372 30.7416 37.8455 30.225 35.133C30.225 34.996 30.1705 34.8646 30.0736 34.7677C29.9768 34.6708 29.8453 34.6164 29.7083 34.6164H26.8666C26.7296 34.6164 26.5982 34.6708 26.5013 34.7677C26.4044 34.8646 26.35 34.996 26.35 35.133C26.35 38.6205 28.2875 42.883 37.5875 42.883C44.3041 42.883 48.1791 40.2997 48.1791 35.7789C48.1791 31.258 45.0791 29.9664 38.4916 29.1914C31.9041 28.4164 31.2583 27.8997 31.2583 26.3497C31.2583 24.7997 31.775 23.508 36.6833 23.508C41.5916 23.508 42.7541 24.4122 43.4 27.2539C43.4302 27.4019 43.5113 27.5347 43.6293 27.6291C43.7473 27.7236 43.8947 27.7736 44.0458 27.7705H46.7583L47.275 27.5122C47.3217 27.4598 47.3573 27.3984 47.3795 27.3318C47.4017 27.2651 47.4101 27.1947 47.4041 27.1247C47.0166 22.0872 43.5291 19.7622 36.6833 19.7622C29.8375 19.7622 26.9958 22.3455 26.9958 26.4789C26.9958 30.6122 30.6125 32.2914 36.425 32.9372C42.2375 33.583 44.0458 34.4872 44.0458 35.908C44.0458 37.3289 42.1083 39.1372 37.5875 39.1372Z" fill="black"/>
</g>
<path d="M71.0655 24.8995H72.1455C72.8895 24.8995 73.4415 25.3555 73.4655 26.0275V27.0355C74.3295 25.7635 75.7935 24.7795 77.9295 24.7795C80.8575 24.7795 82.9455 26.5795 82.9455 29.4355V37.4995H81.6255V29.4355C81.6255 27.2995 80.3535 25.8595 77.7375 25.8595C75.1215 25.8595 73.4655 27.8035 73.4655 29.9395V37.4995H72.1455V26.5795C72.1455 25.6675 71.7135 25.1395 71.0655 25.1395V24.8995ZM86.4311 32.9635V29.4355C86.4311 26.5795 88.3511 24.7795 91.8311 24.7795C95.3111 24.7795 97.2311 26.5795 97.2311 29.4355V32.9635C97.2311 35.8195 95.3111 37.6195 91.8311 37.6195C88.3511 37.6195 86.4311 35.8195 86.4311 32.9635ZM87.7511 29.4355V32.9635C87.7511 35.0995 89.2151 36.5395 91.8311 36.5395C94.4471 36.5395 95.9111 35.0995 95.9111 32.9635V29.4355C95.9111 27.2995 94.4471 25.8595 91.8311 25.8595C89.2151 25.8595 87.7511 27.2995 87.7511 29.4355ZM111.153 37.4995H110.553C110.313 37.4995 110.313 37.4995 110.265 37.2595L109.857 35.3635C108.993 36.6355 107.529 37.6195 105.369 37.6195C102.441 37.6195 100.353 35.8195 100.353 32.9635V29.4355C100.353 26.5795 102.441 24.7795 105.369 24.7795C107.505 24.7795 108.969 25.7635 109.833 27.0355V21.4195C109.833 20.5075 109.401 19.9795 108.753 19.9795V19.7395H109.833C110.577 19.7395 111.129 20.1955 111.153 20.8675V37.4995ZM105.561 36.5395C108.177 36.5395 109.833 34.5955 109.833 32.4595V29.9395C109.833 27.8035 108.177 25.8595 105.561 25.8595C102.945 25.8595 101.673 27.2995 101.673 29.4355V32.9635C101.673 35.0995 102.945 36.5395 105.561 36.5395ZM125.114 29.4355V31.4995C125.114 31.7395 125.114 31.7395 124.874 31.7395H115.946V32.9635C115.946 35.0995 117.242 36.5395 119.858 36.5395C121.634 36.5395 122.882 35.7715 123.746 34.5475L124.562 35.2195C123.77 36.5875 122.258 37.6195 119.858 37.6195C116.378 37.6195 114.626 35.8195 114.626 32.9635V29.4355C114.626 26.5795 116.378 24.7795 119.858 24.7795C123.338 24.7795 125.114 26.5795 125.114 29.4355ZM115.946 29.4355V30.6595H123.794V29.4355C123.794 27.2995 122.474 25.8595 119.858 25.8595C117.242 25.8595 115.946 27.2995 115.946 29.4355ZM132.438 42.1555L132.654 41.1715C134.478 41.0515 135.438 40.3795 135.438 38.2435V26.5795C135.438 25.6675 135.006 25.1395 134.358 25.1395V24.8995H135.438C136.182 24.8995 136.734 25.3555 136.758 26.0275V38.2435C136.758 40.9795 135.294 42.1555 132.438 42.1555ZM134.982 21.6115C134.982 21.0355 135.438 20.5795 135.99 20.5795C136.566 20.5795 137.022 21.0355 137.022 21.6115C137.022 22.1635 136.566 22.6195 135.99 22.6195C135.438 22.6195 134.982 22.1635 134.982 21.6115ZM140.141 36.1315L140.669 35.1475C141.581 35.8435 143.165 36.4915 145.157 36.4915C146.789 36.4915 148.301 35.9395 148.301 34.2595C148.301 32.5795 146.837 32.0995 145.181 31.8355C143.021 31.4995 140.525 30.8035 140.525 28.1395C140.525 25.8355 142.781 24.7795 145.133 24.7795C146.885 24.7795 148.397 25.2835 149.381 25.9555L148.853 26.9635C148.133 26.4355 146.789 25.9075 145.133 25.9075C143.477 25.9075 141.869 26.6275 141.869 28.0675C141.869 29.7715 143.429 30.1795 145.181 30.4675C147.293 30.8035 149.645 31.5235 149.645 34.1875C149.645 36.7315 147.437 37.6195 145.133 37.6195C142.997 37.6195 141.221 36.9715 140.141 36.1315Z" fill="#1E1E1E"/>
<defs>
<clipPath id="clip0_285_406">
<rect width="62" height="62" fill="white" transform="translate(0 -0.000488281)"/>
</clipPath>
</defs>
</svg>
