<svg width="179" height="62" viewBox="0 0 179 62" fill="none" xmlns="http://www.w3.org/2000/svg">
<g clip-path="url(#clip0_285_441)">
<path d="M44.7506 -0.000488281C42.3384 0.0208242 39.9475 0.363762 37.6264 1.03801L37.4656 1.09032C36.0105 0.836512 34.5283 0.697012 33.0558 0.666012C30.0082 0.613699 27.3925 1.34995 25.2845 2.5822C23.2056 1.86726 18.8966 0.613699 14.3551 0.867512C11.1989 1.03801 7.74628 1.99707 5.18103 4.70182C2.63903 7.39689 1.28859 11.5741 1.56953 17.2665C1.64897 18.8301 2.09459 21.3818 2.84053 24.7007C3.57678 28.0119 4.61722 31.8869 5.91922 35.4286C7.22122 38.9607 8.64141 42.1382 10.8637 44.2966C11.972 45.3758 13.5065 46.2961 15.3122 46.2166C16.5755 46.1643 17.7147 45.6102 18.7048 44.7926C19.1872 45.4281 19.7045 45.6993 20.1676 45.9531C20.7643 46.2767 21.3282 46.4976 21.9249 46.641C22.9944 46.9122 24.8215 47.2668 26.9605 46.9025C27.687 46.7805 28.4543 46.5402 29.2215 46.207C29.2525 47.0536 29.2835 47.8906 29.3126 48.7393C29.423 51.413 29.4967 53.8853 30.291 56.0553C30.4228 56.4098 30.7773 58.2253 32.1685 59.8392C33.5712 61.4531 36.2934 62.4529 39.4128 61.7864C41.6041 61.3214 44.398 60.4747 46.256 57.832C48.0928 55.228 48.9201 51.4847 49.0828 45.4087C49.1216 45.0755 49.1739 44.8042 49.2223 44.5407L49.6563 44.5814H49.7087C52.0492 44.6821 54.5931 44.3489 56.7224 43.3588C58.5979 42.4908 60.022 41.6131 61.0605 40.0496C61.3143 39.664 61.6049 39.1913 61.6785 38.3833C61.758 37.587 61.293 36.3238 60.5257 35.7406C58.9932 34.5703 58.0244 35.014 56.984 35.2368C55.9668 35.4596 54.9244 35.5778 53.8859 35.6088C56.8716 30.5849 59.0106 25.2374 60.2332 20.5118C60.9597 17.716 61.3647 15.143 61.3937 12.8936C61.4344 10.6441 61.2445 8.65626 59.8999 6.93189C55.682 1.55339 49.7571 0.0576367 45.1768 0.00919922C45.0354 0.00919922 44.8959 0.00919922 44.7525 0.00919922L44.7506 -0.000488281ZM44.6285 1.65607C48.9588 1.61539 54.4962 2.82632 58.472 7.91033C59.371 9.05151 59.6345 10.7158 59.6035 12.7754C59.5725 14.8349 59.1908 17.2859 58.4933 19.9809C57.1525 25.2103 54.597 31.2824 51.0165 36.7442C51.1385 36.8353 51.278 36.9147 51.4195 36.967C52.1654 37.2789 53.8704 37.5405 57.2804 36.845C58.1387 36.6609 58.7665 36.5427 59.4213 37.0368C59.7449 37.308 59.9154 37.713 59.8941 38.1373C59.8553 38.4492 59.7449 38.7515 59.5512 39.0053C58.8943 39.9915 57.5962 40.9331 55.93 41.71C54.4575 42.394 52.3359 42.7485 50.472 42.7698C49.5246 42.7795 48.6566 42.7078 47.9165 42.4753L47.8777 42.4676C47.5929 45.2014 46.94 50.6109 46.5137 53.0715C46.1727 55.0575 45.576 56.6443 44.4367 57.8242C43.2955 59.0158 41.6913 59.721 39.5213 60.186C36.8378 60.7615 34.8887 60.1453 33.6293 59.0855C32.37 58.0257 31.7926 56.6133 31.4497 55.755C31.2094 55.1601 31.0873 54.3929 30.9672 53.3621C30.8452 52.3333 30.7657 51.0817 30.7037 49.6596C30.6243 47.4896 30.5933 45.3196 30.6243 43.1399C29.5063 44.1706 28.1133 44.8449 26.6175 45.1084C24.8331 45.4106 23.2482 45.1084 22.3008 44.8759C21.8358 44.7538 21.3805 44.5833 20.9581 44.3508C20.5144 44.1183 20.0998 43.8568 19.8188 43.3298C19.6561 43.0275 19.6077 42.6768 19.6774 42.3436C19.7568 42.0006 19.9583 41.7081 20.2335 41.4853C20.7469 41.0687 21.425 40.8401 22.4422 40.627C24.3003 40.2414 24.9552 39.9818 25.3485 39.666C25.6817 39.4044 26.0673 38.86 26.7299 38.0617C26.7299 38.0326 26.7299 37.992 26.7202 37.961C25.5209 37.9222 24.3487 37.6103 23.2889 37.0329C22.9072 37.4359 20.9174 39.5361 18.5072 42.4424C17.4977 43.6514 16.3778 44.3489 15.1882 44.4012C14.0083 44.4496 12.9349 43.8568 12.0282 42.9771C10.2127 41.2101 8.75766 38.1721 7.49634 34.7408C6.23503 31.3095 5.2159 27.4868 4.47965 24.2376C3.75309 20.9768 3.31909 18.3534 3.25709 17.0921C2.98584 11.7136 4.24716 8.09245 6.40553 5.80039C8.56391 3.50832 11.5225 2.65195 14.4093 2.48145C19.5863 2.18889 24.5095 3.99464 25.4996 4.37826C27.4158 3.07626 29.888 2.27026 32.9764 2.3187C34.4412 2.34001 35.8923 2.52989 37.3164 2.88445L37.3687 2.85345C37.9945 2.64226 38.63 2.45045 39.2752 2.31095C41.0325 1.89439 42.8267 1.6832 44.6227 1.65414L44.6285 1.65607ZM45.0218 3.38045H44.6402C43.1677 3.39789 41.6816 3.57226 40.2401 3.8842C43.4583 5.30826 45.8898 7.4957 47.6045 9.6967C48.7961 11.2099 49.7745 12.8742 50.5205 14.6509C50.815 15.3387 51.0068 15.9122 51.1075 16.3559C51.1676 16.5787 51.1986 16.7686 51.218 16.9604C51.218 17.0611 51.2277 17.1638 51.1773 17.3343C51.1773 17.344 51.1676 17.3653 51.1676 17.375C51.2509 19.6361 50.6852 21.1667 50.6115 23.327C50.5631 24.8925 50.9661 26.7293 51.0668 28.7365C51.1579 30.6217 50.9273 32.6909 49.7048 34.7292C49.8055 34.8513 49.8966 34.9714 49.9973 35.1031C53.2368 29.9959 55.5773 24.3558 56.8193 19.5411C57.4858 16.9468 57.8365 14.5966 57.8675 12.7425C57.8985 10.8844 57.5555 9.53201 57.1099 8.9682C53.6379 4.53714 48.9472 3.40564 45.0199 3.37851L45.0218 3.38045ZM32.6393 4.04501C29.5935 4.0547 27.4022 4.97501 25.7398 6.35645C24.0213 7.7902 22.8723 9.73739 22.1264 11.7446C21.2274 14.1161 20.9155 16.416 20.7934 17.9815L20.8341 17.9601C21.7544 17.4467 22.9634 16.9216 24.2654 16.6291C25.5577 16.3249 26.9605 16.2338 28.2198 16.7298C29.4928 17.2123 30.5313 18.3728 30.9149 20.1185C32.7342 28.535 30.3511 31.6641 29.4734 34.024C29.1402 34.8823 28.8476 35.7503 28.6151 36.6376C28.7255 36.6163 28.8379 36.5853 28.9483 36.5756C29.5742 36.5272 30.0566 36.7287 30.3414 36.8488C31.2307 37.2208 31.8352 37.9881 32.1685 38.8658C32.2479 39.0983 32.308 39.3385 32.3487 39.602C32.3797 39.7028 32.401 39.8132 32.401 39.9256C32.3002 43.1438 32.308 46.3639 32.43 49.5821C32.492 50.9751 32.5831 52.1958 32.6935 53.1645C32.804 54.1236 32.9551 54.8598 33.0578 55.1117C33.3891 55.939 33.8735 57.0182 34.7531 57.7545C35.6211 58.4926 36.8708 58.977 39.1628 58.4926C41.1488 58.0586 42.3713 57.4716 43.187 56.6249C44.0066 55.7666 44.489 54.5866 44.801 52.7809C45.2757 50.0665 46.2134 42.1944 46.3258 40.7219C46.2773 39.6001 46.4362 38.7437 46.8005 38.0869C47.1628 37.4204 47.7285 37.0077 48.2245 36.7849C48.4648 36.6744 48.6973 36.6047 48.8891 36.5427C48.6876 36.2618 48.4764 35.9789 48.2633 35.7057C47.558 34.8474 46.971 33.8903 46.537 32.8711C46.3355 32.4449 46.1127 32.0206 45.8705 31.6176C45.5295 31.0034 45.0955 30.2245 44.6402 29.3468C43.7315 27.6108 42.7433 25.4931 42.228 23.4336C41.7145 21.374 41.6448 19.2466 42.9565 17.7528C44.117 16.4198 46.165 15.8676 49.2204 16.1796C49.1293 15.9064 49.0809 15.6739 48.9278 15.3213C48.2323 13.686 47.3236 12.1515 46.2328 10.7584C43.6385 7.43951 39.4302 4.1477 32.9435 4.03726L32.6393 4.04501ZM15.4866 4.17676C15.163 4.17676 14.8298 4.18645 14.5082 4.20776C11.8945 4.36082 9.43191 5.11451 7.66491 6.98226C5.89984 8.8597 4.74122 11.9171 4.99116 16.9933C5.04347 17.9621 5.45616 20.6455 6.17109 23.8443C6.88991 27.0451 7.90709 30.8096 9.12966 34.1383C10.3483 37.4572 11.8247 40.3538 13.2372 41.7255C13.9424 42.4017 14.5566 42.6846 15.1127 42.6652C15.6687 42.6342 16.3449 42.3106 17.1722 41.3225C18.6757 39.5071 20.2315 37.7498 21.8455 36.0351C19.5224 34.0065 18.3832 30.9414 18.8385 27.8918C19.1 25.9853 19.1407 24.197 19.1 22.7845C19.071 21.4128 18.978 20.506 18.978 19.9306C18.978 19.9093 18.978 19.8996 18.978 19.8783V19.8686L18.9683 19.8511C18.9683 16.8732 19.4953 13.9282 20.5028 11.1324C21.2293 9.20264 22.3008 7.25739 23.9128 5.67057C22.3298 5.14551 19.5127 4.36082 16.467 4.20776C16.1434 4.18645 15.8082 4.17676 15.4866 4.17676ZM47.5135 17.8187C45.76 17.8497 44.7797 18.305 44.2565 18.8882C43.528 19.7271 43.4583 21.1996 43.9136 23.017C44.365 24.8325 45.3067 26.861 46.1843 28.5486C46.6183 29.3953 47.0427 30.1528 47.3837 30.767C47.7382 31.3928 47.9901 31.8268 48.1412 32.2105C48.2827 32.5534 48.4454 32.8556 48.6062 33.1385C49.2824 31.7048 49.4045 30.302 49.3328 28.8295C49.2417 27.0141 48.8193 25.156 48.8891 23.2805C48.9608 21.0795 49.3948 19.6458 49.4258 17.9505C48.798 17.871 48.1528 17.8187 47.5173 17.8187H47.5135ZM26.2436 18.1248C25.7088 18.1248 25.1741 18.1946 24.649 18.3166C23.6086 18.5705 22.6108 18.9521 21.6711 19.4772C21.3592 19.6477 21.0569 19.8414 20.774 20.0643L20.712 20.1127C20.7333 20.4983 20.8031 21.405 20.8341 22.7574C20.8651 24.2299 20.8341 26.1054 20.5532 28.1359C19.9273 32.5553 23.1358 36.2095 26.9004 36.2191C27.1232 35.3105 27.4836 34.3901 27.8478 33.4233C28.896 30.5965 30.9556 28.5389 29.2196 20.4866C28.9387 19.175 28.3729 18.6402 27.594 18.3379C27.16 18.1849 26.7086 18.1151 26.2436 18.1268V18.1248ZM46.6978 18.648H46.8295C46.9903 18.6576 47.1531 18.6693 47.2926 18.708C47.4243 18.739 47.5464 18.7797 47.6472 18.8495C47.7479 18.9095 47.8177 19.0103 47.839 19.1304V19.1517C47.839 19.2738 47.808 19.3939 47.7479 19.5063C47.6685 19.6458 47.5774 19.7775 47.467 19.888C47.2035 20.1805 46.8489 20.3743 46.4672 20.4324C46.0933 20.4847 45.7213 20.384 45.4074 20.1708C45.2853 20.0778 45.1652 19.9771 45.0742 19.8666C44.9831 19.7756 44.9327 19.6555 44.9114 19.5334C44.9037 19.4152 44.9327 19.2931 45.0122 19.2021C45.1052 19.1091 45.2059 19.0296 45.3163 18.9696C45.5663 18.8281 45.8995 18.7274 46.2851 18.6751C46.4246 18.6576 46.566 18.646 46.6978 18.6363V18.648ZM26.4935 19.082C26.6253 19.082 26.7783 19.0916 26.9198 19.111C27.3228 19.173 27.6657 19.2738 27.937 19.4346C28.0687 19.4966 28.1908 19.5973 28.2799 19.7078C28.3807 19.8298 28.4291 19.979 28.4213 20.1418C28.3903 20.291 28.3283 20.4343 28.2276 20.5448C28.1172 20.6765 27.997 20.787 27.8556 20.878C27.5223 21.1202 27.1097 21.221 26.695 21.1706C26.2785 21.1008 25.8968 20.8993 25.6158 20.5874C25.4938 20.4556 25.393 20.3142 25.3117 20.1631C25.2206 20.0216 25.1818 19.8608 25.2012 19.6981C25.2419 19.4268 25.4744 19.2738 25.6972 19.1943C25.951 19.111 26.2223 19.0839 26.4935 19.0936V19.082ZM49.8966 38.052H49.8869C49.5149 38.1935 49.203 38.2458 48.9395 38.3678C48.6682 38.4686 48.4532 38.6701 48.3253 38.92C48.1528 39.2145 48.023 39.7396 48.0618 40.6347C48.1722 40.718 48.304 40.7761 48.4473 40.8188C48.8813 40.9505 49.6273 41.0416 50.4546 41.03C52.0995 41.0086 54.1281 40.627 55.2073 40.1213C56.085 39.7183 56.9123 39.1738 57.6388 38.5383C54.037 39.2746 52.0104 39.0828 50.7568 38.5693C50.4546 38.4376 50.1601 38.2651 49.8966 38.052ZM29.1498 38.2942H29.0975C28.958 38.3039 28.7643 38.3562 28.371 38.7805C27.472 39.788 27.16 40.4235 26.4238 41.0106C25.6778 41.6054 24.7188 41.9193 22.791 42.3126C22.1865 42.4346 21.8319 42.5741 21.5994 42.6846C21.6692 42.7466 21.6692 42.7679 21.7796 42.8163C22.0644 42.9791 22.4248 43.1108 22.7193 43.1903C23.5466 43.3918 24.897 43.634 26.3211 43.3918C27.7335 43.1496 29.206 42.4715 30.4693 40.7083C30.6921 40.4061 30.7095 39.9508 30.5293 39.4664C30.3492 38.9936 29.9539 38.5693 29.6827 38.4589C29.5102 38.3756 29.3281 38.3271 29.1479 38.2961L29.1498 38.2942Z" fill="black"/>
</g>
<path d="M71.8233 25.1395V24.8995H72.9033C73.6473 24.8995 74.1993 25.3555 74.2233 26.0275V27.0355C75.0873 25.7635 76.5513 24.7795 78.6873 24.7795C81.6153 24.7795 83.7033 26.5795 83.7033 29.4355V32.9635C83.7033 35.8195 81.6153 37.6195 78.6873 37.6195C76.5513 37.6195 75.0873 36.6355 74.2233 35.3635V42.0595H72.9033V26.5795C72.9033 25.6675 72.4713 25.1395 71.8233 25.1395ZM74.2233 29.9395V32.4595C74.2233 34.5955 75.8793 36.5395 78.4953 36.5395C81.1113 36.5395 82.3833 35.0995 82.3833 32.9635V29.4355C82.3833 27.2995 81.1113 25.8595 78.4953 25.8595C75.8793 25.8595 74.2233 27.8035 74.2233 29.9395ZM86.8139 32.9635V29.4355C86.8139 26.5795 88.7339 24.7795 92.2139 24.7795C95.6939 24.7795 97.6139 26.5795 97.6139 29.4355V32.9635C97.6139 35.8195 95.6939 37.6195 92.2139 37.6195C88.7339 37.6195 86.8139 35.8195 86.8139 32.9635ZM88.1339 29.4355V32.9635C88.1339 35.0995 89.5979 36.5395 92.2139 36.5395C94.8299 36.5395 96.2939 35.0995 96.2939 32.9635V29.4355C96.2939 27.2995 94.8299 25.8595 92.2139 25.8595C89.5979 25.8595 88.1339 27.2995 88.1339 29.4355ZM100.376 36.1315L100.904 35.1475C101.816 35.8435 103.4 36.4915 105.392 36.4915C107.024 36.4915 108.536 35.9395 108.536 34.2595C108.536 32.5795 107.072 32.0995 105.416 31.8355C103.256 31.4995 100.76 30.8035 100.76 28.1395C100.76 25.8355 103.016 24.7795 105.368 24.7795C107.12 24.7795 108.632 25.2835 109.616 25.9555L109.088 26.9635C108.368 26.4355 107.024 25.9075 105.368 25.9075C103.712 25.9075 102.104 26.6275 102.104 28.0675C102.104 29.7715 103.664 30.1795 105.416 30.4675C107.528 30.8035 109.88 31.5235 109.88 34.1875C109.88 36.7315 107.672 37.6195 105.368 37.6195C103.232 37.6195 101.456 36.9715 100.376 36.1315ZM111.609 25.9795V25.5955C111.609 25.3555 111.609 25.3555 111.825 25.2595L112.737 24.8995H113.481V23.4595C113.481 22.5475 113.049 22.0195 112.401 22.0195V21.7795H113.481C114.225 21.7795 114.777 22.2355 114.801 22.9075V24.8995H118.017V25.9795H114.801V33.6595C114.801 35.8915 115.929 36.3715 117.489 36.3715C117.849 36.3715 118.305 36.3475 118.545 36.2995L118.761 37.3795C118.521 37.4275 118.185 37.4995 117.489 37.4995C115.233 37.4995 113.481 36.6595 113.481 33.6595V25.9795H111.609ZM131.844 25.0675V25.5715C131.844 25.8115 131.844 25.8115 131.604 25.8355L129.684 26.1235C130.308 26.7235 130.644 27.5395 130.644 28.5235V28.9075C130.644 31.3075 128.628 32.6515 125.7 32.6515C124.572 32.6515 123.588 32.4595 122.796 32.0755C122.484 32.3155 122.268 32.6755 122.268 33.0835C122.268 34.8595 126.3 34.1875 129.06 35.0275C130.5 35.4835 131.58 36.3475 131.58 38.1955C131.58 40.0915 129.9 42.0595 125.676 42.0595C123.372 42.0595 119.844 41.3875 119.844 38.4115C119.844 36.7315 121.02 35.7955 122.412 35.3395C121.668 35.0035 121.164 34.4275 121.164 33.4435C121.164 32.6755 121.572 32.0755 122.172 31.6915C121.26 31.0675 120.756 30.1315 120.756 28.9075V28.5235C120.756 26.1235 122.772 24.7795 125.7 24.7795C126.492 24.7795 127.212 24.8755 127.86 25.0675H131.844ZM121.044 38.3395C121.044 40.6435 123.924 41.0995 125.676 41.0995C127.476 41.0995 130.308 40.6915 130.308 38.3155C130.308 35.4835 126.348 36.1075 123.636 35.6755C122.268 35.9635 121.044 36.7075 121.044 38.3395ZM122.076 28.5235V28.9075C122.076 30.7555 123.636 31.5715 125.7 31.5715C127.764 31.5715 129.324 30.7555 129.324 28.9075V28.5235C129.324 26.6755 127.764 25.8595 125.7 25.8595C123.636 25.8595 122.076 26.6755 122.076 28.5235ZM133.675 24.8995H134.707C135.451 24.8995 136.003 25.3555 136.027 26.0275V27.0595C136.795 25.6675 138.067 24.7795 139.891 24.7795C140.491 24.7795 140.779 24.8755 140.971 24.9475L140.755 26.0515C140.587 25.9795 140.203 25.9315 139.891 25.9315C137.587 25.9315 136.075 27.5395 136.075 29.9395V37.4995H134.755V26.5795C134.755 25.6675 134.323 25.1395 133.675 25.1395V24.8995ZM152.661 29.4355V31.4995C152.661 31.7395 152.661 31.7395 152.421 31.7395H143.493V32.9635C143.493 35.0995 144.789 36.5395 147.405 36.5395C149.181 36.5395 150.429 35.7715 151.293 34.5475L152.109 35.2195C151.317 36.5875 149.805 37.6195 147.405 37.6195C143.925 37.6195 142.173 35.8195 142.173 32.9635V29.4355C142.173 26.5795 143.925 24.7795 147.405 24.7795C150.885 24.7795 152.661 26.5795 152.661 29.4355ZM143.493 29.4355V30.6595H151.341V29.4355C151.341 27.2995 150.021 25.8595 147.405 25.8595C144.789 25.8595 143.493 27.2995 143.493 29.4355ZM155.43 36.1315L155.958 35.1475C156.87 35.8435 158.454 36.4915 160.446 36.4915C162.078 36.4915 163.59 35.9395 163.59 34.2595C163.59 32.5795 162.126 32.0995 160.47 31.8355C158.31 31.4995 155.814 30.8035 155.814 28.1395C155.814 25.8355 158.07 24.7795 160.422 24.7795C162.174 24.7795 163.686 25.2835 164.67 25.9555L164.142 26.9635C163.422 26.4355 162.078 25.9075 160.422 25.9075C158.766 25.9075 157.158 26.6275 157.158 28.0675C157.158 29.7715 158.718 30.1795 160.47 30.4675C162.582 30.8035 164.934 31.5235 164.934 34.1875C164.934 36.7315 162.726 37.6195 160.422 37.6195C158.286 37.6195 156.51 36.9715 155.43 36.1315ZM167.384 36.1315L167.912 35.1475C168.824 35.8435 170.408 36.4915 172.4 36.4915C174.032 36.4915 175.544 35.9395 175.544 34.2595C175.544 32.5795 174.08 32.0995 172.424 31.8355C170.264 31.4995 167.768 30.8035 167.768 28.1395C167.768 25.8355 170.024 24.7795 172.376 24.7795C174.128 24.7795 175.64 25.2835 176.624 25.9555L176.096 26.9635C175.376 26.4355 174.032 25.9075 172.376 25.9075C170.72 25.9075 169.112 26.6275 169.112 28.0675C169.112 29.7715 170.672 30.1795 172.424 30.4675C174.536 30.8035 176.888 31.5235 176.888 34.1875C176.888 36.7315 174.68 37.6195 172.376 37.6195C170.24 37.6195 168.464 36.9715 167.384 36.1315Z" fill="#1E1E1E"/>
<defs>
<clipPath id="clip0_285_441">
<rect width="62" height="62" fill="white" transform="translate(0.5 -0.000488281)"/>
</clipPath>
</defs>
</svg>
