<svg width="137" height="62" viewBox="0 0 137 62" fill="none" xmlns="http://www.w3.org/2000/svg">
<path d="M20.6666 12.916C19.8711 12.916 19.12 13.2825 18.6304 13.9095C18.1408 14.5365 17.9675 15.3541 18.1604 16.1259L20.7437 26.4591C21.0312 27.6092 22.0645 28.416 23.2499 28.416H35.65C35.9354 28.416 36.1666 28.6472 36.1666 28.9327V34.8818C36.1666 35.019 36.1121 35.1505 36.0152 35.2474L31.3652 39.8974C31.1635 40.0991 30.8364 40.0991 30.6347 39.8974L25.0766 34.3393C24.0678 33.3305 22.4321 33.3305 21.4233 34.3393C20.4144 35.3481 20.4144 36.9839 21.4233 37.9927L29.1733 45.7427C30.1821 46.7515 31.8178 46.7515 32.8266 45.7427L40.5766 37.9927C41.061 37.5083 41.3333 36.8511 41.3333 36.166V25.8327C41.3333 24.406 40.1767 23.2493 38.75 23.2493H25.6704C25.4333 23.2493 25.2266 23.088 25.1691 22.858L24.1358 18.7247C24.0543 18.3986 24.3009 18.0827 24.637 18.0827H41.3333C42.7601 18.0827 43.9166 16.9261 43.9166 15.4993C43.9166 14.0726 42.7601 12.916 41.3333 12.916H20.6666Z" fill="#0F0F0F"/>
<path fill-rule="evenodd" clip-rule="evenodd" d="M11.1238 2.58301C6.40751 2.58301 2.78467 6.76015 3.45166 11.429L7.50494 39.8021C7.76712 41.6373 8.67847 43.3178 10.0737 44.5387L25.8965 58.3835C28.8185 60.9403 33.1813 60.9403 36.1033 58.3835L51.9262 44.5387C53.3212 43.3178 54.2326 41.6373 54.4948 39.8021L58.548 11.429C59.2151 6.76015 55.5922 2.58301 50.8761 2.58301H11.1238ZM8.56638 10.6983C8.34406 9.14207 9.55166 7.74967 11.1238 7.74967H50.8761C52.448 7.74967 53.6557 9.14207 53.4333 10.6983L49.3801 39.0713C49.2927 39.683 48.9889 40.2434 48.5239 40.6502L32.701 54.4951C31.7271 55.3473 30.2727 55.3473 29.2988 54.4951L13.4759 40.6502C13.0108 40.2434 12.7071 39.683 12.6197 39.0713L8.56638 10.6983Z" fill="#0F0F0F"/>
<path d="M71.6822 20.9395V20.6995H72.7622C73.5062 20.6995 74.0582 21.1555 74.0822 21.8275V28.6195H85.0022V20.6995H86.3222V37.4995H85.0022V29.7475H74.0822V37.4995H72.7622V22.3795C72.7622 21.4675 72.3302 20.9395 71.6822 20.9395ZM89.2116 21.8275V20.6995H102.172V21.8275H96.3636V37.4995H95.0436V21.8275H89.2116ZM114.083 32.2435L119.387 21.1315C119.579 20.6995 119.627 20.6995 120.083 20.6995H121.283V37.4995H119.987V25.4995L120.035 22.4275L113.435 36.2515H112.931L106.307 22.4275L106.355 25.4995V37.4995H105.059V22.3795C105.059 21.4675 104.627 20.9395 103.979 20.9395V20.6995H105.275C106.403 20.6995 107.003 21.2035 107.699 22.6675L112.283 32.2675L113.171 34.2835L114.083 32.2435ZM125.237 20.9395V20.6995H126.317C127.061 20.6995 127.613 21.1555 127.637 21.8275V36.3715H136.517V37.4995H126.317V22.3795C126.317 21.4675 125.885 20.9395 125.237 20.9395Z" fill="#1E1E1E"/>
</svg>
