<svg width="156" height="62" viewBox="0 0 156 62" fill="none" xmlns="http://www.w3.org/2000/svg">
<path d="M27.7315 43.0331C28.7971 43.0816 29.886 43.1164 30.9885 43.1164C32.1025 43.1164 33.203 43.0932 34.2822 43.0331C33.203 44.4281 32.1374 45.6623 31.0098 46.8384L31.0253 46.8229C29.9035 45.6604 28.8262 44.4243 27.811 43.1378L27.7315 43.0331ZM16.6916 41.4831C18.79 42.0159 21.3494 42.4693 23.9611 42.7483L24.215 42.7696C25.8134 44.9648 27.4293 46.8965 29.1633 48.7139L29.142 48.6906C26.602 51.5252 23.1745 53.5169 19.2976 54.2319L19.191 54.2474C19.1833 54.2474 19.1755 54.2474 19.1678 54.2474C18.6873 54.2474 18.2339 54.1292 17.8367 53.9199L17.8522 53.9277C16.2402 53.0074 15.5408 49.4869 16.0852 44.9629C16.215 43.8488 16.4281 42.6766 16.6897 41.4812L16.6916 41.4831ZM45.3337 41.4579C45.5623 42.3763 45.7774 43.5466 45.9305 44.7362L45.9479 44.9028C46.504 49.4249 45.8181 52.9415 44.2196 53.8812C43.8631 54.0788 43.4369 54.1951 42.9835 54.1951C42.939 54.1951 42.8944 54.1931 42.8498 54.1912H42.8556C38.878 53.4646 35.4525 51.4864 32.9182 48.6868L32.9046 48.6713C34.6077 46.8829 36.212 44.9551 37.6825 42.9266L37.7949 42.7638C40.6546 42.4654 43.218 42.0043 45.7154 41.3746L45.3337 41.456V41.4579ZM18.9566 34.2272C19.441 35.1766 19.9486 36.1221 20.5066 37.0714C21.0633 38.0157 21.6323 38.9379 22.2135 39.8382C20.5318 39.5921 18.9081 39.2821 17.3562 38.9043C17.7921 37.3795 18.3385 35.8004 18.9546 34.2233L18.9566 34.2272ZM43.0358 34.1788C43.6771 35.7694 44.2216 37.3563 44.673 38.8946C43.123 39.2744 41.4858 39.596 39.7925 39.8382C40.3737 38.9295 40.955 37.9937 41.4994 37.0346C42.0438 36.0911 42.5534 35.1262 43.0397 34.1768L43.0358 34.1788ZM14.7619 23.8151C15.6066 26.6787 16.5134 29.0734 17.5693 31.3829L17.424 31.0303C16.5211 32.9775 15.628 35.3587 14.8956 37.8096L14.7948 38.2068C13.427 37.7864 12.3265 37.3737 11.255 36.9106L11.4778 36.9959C7.28508 35.2114 4.57258 32.8651 4.57258 31.0051C4.57258 29.1451 7.28508 26.7872 11.4778 25.0105C12.495 24.5746 13.611 24.1813 14.7619 23.8151ZM47.1937 23.8054C48.3659 24.1677 49.48 24.5726 50.5223 25.0105C54.7151 26.8027 57.4276 29.1451 57.4276 31.0051C57.416 32.8651 54.7035 35.2173 50.5107 36.9978C49.4935 37.4338 48.3795 37.8251 47.2305 38.1913C46.378 35.318 45.4713 32.9252 44.4192 30.6118L44.5665 30.9761C45.4655 29.0308 46.3606 26.6496 47.091 24.1987L47.1937 23.7996V23.8054ZM39.777 22.1721C41.4606 22.422 43.0823 22.7281 44.6343 23.1098C44.1983 24.6404 43.6539 26.2137 43.0358 27.7908C42.5515 26.8473 42.0438 25.8959 41.4858 24.9485C40.9414 23.9991 40.3601 23.0749 39.7789 22.174L39.777 22.1721ZM22.2 22.1721C21.6187 23.0846 21.0375 24.0185 20.495 24.9814C19.9505 25.925 19.441 26.8744 18.9566 27.8238C18.3153 26.235 17.7708 24.6521 17.3194 23.1098C18.8694 22.7475 20.5027 22.4239 22.198 22.1759L22.2 22.1721ZM31.0001 21.5559C32.7923 21.5559 34.5767 21.6373 36.3321 21.7807C37.315 23.1899 38.2696 24.6908 39.1957 26.2834C40.096 27.8334 40.9175 29.4041 41.6602 30.9954C40.9143 32.5823 40.0966 34.1671 39.2073 35.7171C38.287 37.3156 37.3357 38.8365 36.3495 40.2451C34.5864 40.3981 32.8 40.4814 30.9981 40.4814C29.206 40.4814 27.4215 40.3962 25.6661 40.2567C24.6838 38.8481 23.7248 37.3408 22.8025 35.7539C21.9022 34.2039 21.0807 32.6333 20.338 31.0419C21.0723 29.4513 21.9016 27.8625 22.7909 26.3106C23.7112 24.7121 24.6625 23.197 25.6487 21.7884C27.4118 21.6334 29.1982 21.5521 31.0001 21.5521V21.5559ZM30.9633 15.199C32.087 16.3615 33.1643 17.5957 34.1776 18.8822L34.2551 18.9849C33.1895 18.9364 32.1006 18.9035 30.9981 18.9035C29.8841 18.9035 28.7836 18.9268 27.7044 18.9849C28.7816 17.5899 29.8473 16.3557 30.9768 15.1796L30.9613 15.1951L30.9633 15.199ZM19.1426 7.81326C23.1203 8.54176 26.5438 10.5199 29.08 13.3177L29.0936 13.3332C27.3905 15.1234 25.7863 17.0513 24.3157 19.0837L24.2033 19.2464C21.3455 19.5429 18.7822 20.0001 16.2867 20.6298L16.6665 20.5484C16.3952 19.3627 16.1937 18.2138 16.0523 17.1113C15.4962 12.5892 16.1821 9.07263 17.7805 8.13682C18.1796 7.94888 18.6466 7.83263 19.1387 7.81713H19.1445L19.1426 7.81326ZM42.7995 7.76482V7.78032C42.8246 7.78032 42.8537 7.77838 42.8847 7.77838C43.3478 7.77838 43.7837 7.8927 44.1673 8.0942L44.1518 8.08644C45.7638 9.01063 46.4633 12.5291 45.9188 17.0551C45.789 18.1692 45.5759 19.3433 45.3143 20.5407C43.2121 20.0021 40.6527 19.5468 38.041 19.2697L37.793 19.2484C36.1926 17.0513 34.5767 15.1196 32.8426 13.3003L32.8659 13.3235C35.406 10.4948 38.8276 8.50301 42.6968 7.7842L42.8053 7.76676L42.7995 7.76482ZM42.8111 5.12595C38.0797 5.84476 33.9838 8.14263 30.9923 11.4577L30.9768 11.4751C27.964 8.16201 23.8681 5.87963 19.253 5.18795L19.1445 5.17438C19.1193 5.17438 19.0883 5.17438 19.0573 5.17438C18.106 5.17438 17.2128 5.42432 16.4398 5.8622L16.4669 5.84863C13.1383 7.7687 12.3923 13.7517 14.1109 21.2595C6.74064 23.5361 1.94727 27.1747 1.94727 31.009C1.94727 34.8588 6.76583 38.5071 14.1574 40.7663C12.4524 48.3031 13.2138 54.2958 16.5502 56.2139C17.2826 56.6344 18.1622 56.8804 19.098 56.8804C19.1406 56.8804 19.1833 56.8804 19.224 56.8785H19.2181C23.9495 56.1597 28.0454 53.8599 31.0369 50.5429L31.0524 50.5254C34.0652 53.8405 38.1611 56.1229 42.7762 56.8146L42.8847 56.8281C42.9138 56.8281 42.9506 56.8281 42.9855 56.8281C43.931 56.8281 44.8203 56.5801 45.5895 56.1481L45.5623 56.1616C48.889 54.2435 49.6369 48.2605 47.9183 40.7508C55.2615 38.4936 60.0548 34.8472 60.0548 31.0071C60.0548 27.1573 55.2363 23.5089 47.8447 21.244C49.5497 13.7149 48.7883 7.71638 45.4519 5.79632C44.7118 5.37201 43.8244 5.12207 42.8789 5.12207C42.8537 5.12207 42.8285 5.12207 42.8033 5.12207H42.8072L42.8111 5.12595ZM36.3999 31.009C36.3999 33.9986 33.9761 36.4224 30.9865 36.4224C27.997 36.4224 25.5731 33.9986 25.5731 31.009C25.5731 28.0194 27.997 25.5956 30.9865 25.5956C32.4823 25.5956 33.8346 26.2021 34.815 27.1805C35.7954 28.1609 36.3999 29.5133 36.3999 31.009Z" fill="black"/>
<path d="M85.5788 37.4995H84.2828C83.9228 37.4995 83.9228 37.4995 83.7068 37.2115L79.7468 31.7875C79.5068 31.4515 79.2668 31.2835 78.4508 31.2835H73.8908V37.4995H72.5708V22.3795C72.5708 21.4675 72.1388 20.9395 71.4908 20.9395V20.6995H78.4508C83.2508 20.6995 84.9548 22.5715 84.9548 25.9315C84.9548 28.4275 83.8028 30.4435 80.7068 31.0675C80.9708 31.2355 81.1868 31.5235 81.5228 31.9795L85.5788 37.4995ZM73.8908 21.8275V30.1555H78.8588C82.0268 30.1555 83.6348 28.6915 83.6348 25.9315C83.6348 23.1715 82.0028 21.8275 78.8588 21.8275H73.8908ZM98.341 29.4355V31.4995C98.341 31.7395 98.341 31.7395 98.101 31.7395H89.173V32.9635C89.173 35.0995 90.469 36.5395 93.085 36.5395C94.861 36.5395 96.109 35.7715 96.973 34.5475L97.789 35.2195C96.997 36.5875 95.485 37.6195 93.085 37.6195C89.605 37.6195 87.853 35.8195 87.853 32.9635V29.4355C87.853 26.5795 89.605 24.7795 93.085 24.7795C96.565 24.7795 98.341 26.5795 98.341 29.4355ZM89.173 29.4355V30.6595H97.021V29.4355C97.021 27.2995 95.701 25.8595 93.085 25.8595C90.469 25.8595 89.173 27.2995 89.173 29.4355ZM111.118 37.4995H110.518C109.822 37.4995 109.774 37.4995 109.654 36.8035L109.462 35.6995V35.6755C108.286 36.9475 106.798 37.6195 105.022 37.6195C102.766 37.6195 101.158 36.3955 101.11 34.3555C101.11 31.4995 103.366 30.4435 106.558 30.1315L109.462 29.8435V29.4355C109.462 27.2995 108.718 25.8595 106.102 25.8595C104.494 25.8595 103.126 26.2435 102.262 26.8435L101.806 25.9075C102.574 25.4275 103.918 24.7795 106.102 24.7795C109.582 24.7795 110.782 26.5795 110.782 29.4355V35.7235C110.782 36.6595 110.83 37.0915 111.118 37.2595V37.4995ZM102.43 34.3555C102.454 35.8675 103.486 36.5875 105.166 36.5875C107.038 36.5875 108.31 35.8195 109.462 34.4515V30.9235L106.558 31.2115C104.83 31.3795 102.43 31.8595 102.43 34.3555ZM119.667 24.7795C121.947 24.7795 123.219 25.5235 123.963 26.3155L123.339 27.0595C122.715 26.5555 121.731 25.8595 119.667 25.8595C117.051 25.8595 115.587 27.2995 115.587 29.4355V32.9395C115.587 35.0755 117.051 36.5395 119.667 36.5395C121.731 36.5395 122.715 35.8435 123.339 35.3395L123.963 36.0835C123.219 36.8755 121.947 37.6195 119.667 37.6195C116.187 37.6195 114.267 35.7955 114.267 32.9395V29.4355C114.267 26.5795 116.187 24.7795 119.667 24.7795ZM125.281 25.9795V25.5955C125.281 25.3555 125.281 25.3555 125.497 25.2595L126.409 24.8995H127.153V23.4595C127.153 22.5475 126.721 22.0195 126.073 22.0195V21.7795H127.153C127.897 21.7795 128.449 22.2355 128.473 22.9075V24.8995H131.689V25.9795H128.473V33.6595C128.473 35.8915 129.601 36.3715 131.161 36.3715C131.521 36.3715 131.977 36.3475 132.217 36.2995L132.433 37.3795C132.193 37.4275 131.857 37.4995 131.161 37.4995C128.905 37.4995 127.153 36.6595 127.153 33.6595V25.9795H125.281ZM134.509 36.5875C134.509 35.9875 134.917 35.5795 135.517 35.5795C136.165 35.5795 136.549 35.9875 136.549 36.5875C136.549 37.2355 136.165 37.6195 135.517 37.6195C134.917 37.6195 134.509 37.2355 134.509 36.5875ZM137.493 42.1555L137.709 41.1715C139.533 41.0515 140.493 40.3795 140.493 38.2435V26.5795C140.493 25.6675 140.061 25.1395 139.413 25.1395V24.8995H140.493C141.237 24.8995 141.789 25.3555 141.813 26.0275V38.2435C141.813 40.9795 140.349 42.1555 137.493 42.1555ZM140.037 21.6115C140.037 21.0355 140.493 20.5795 141.045 20.5795C141.621 20.5795 142.077 21.0355 142.077 21.6115C142.077 22.1635 141.621 22.6195 141.045 22.6195C140.493 22.6195 140.037 22.1635 140.037 21.6115ZM145.196 36.1315L145.724 35.1475C146.636 35.8435 148.22 36.4915 150.212 36.4915C151.844 36.4915 153.356 35.9395 153.356 34.2595C153.356 32.5795 151.892 32.0995 150.236 31.8355C148.076 31.4995 145.58 30.8035 145.58 28.1395C145.58 25.8355 147.836 24.7795 150.188 24.7795C151.94 24.7795 153.452 25.2835 154.436 25.9555L153.908 26.9635C153.188 26.4355 151.844 25.9075 150.188 25.9075C148.532 25.9075 146.924 26.6275 146.924 28.0675C146.924 29.7715 148.484 30.1795 150.236 30.4675C152.348 30.8035 154.7 31.5235 154.7 34.1875C154.7 36.7315 152.492 37.6195 150.188 37.6195C148.052 37.6195 146.276 36.9715 145.196 36.1315Z" fill="#1E1E1E"/>
</svg>
