<svg width="193" height="62" viewBox="0 0 193 62" fill="none" xmlns="http://www.w3.org/2000/svg">
<g clip-path="url(#clip0_134_208)">
<path d="M0.5 6.78076C0.5 3.03558 3.53607 -0.000488281 7.28125 -0.000488281H55.7188C59.4639 -0.000488281 62.5 3.03558 62.5 6.78076V14.5308C62.5 16.1358 61.1988 17.437 59.5938 17.437C57.9887 17.437 56.6875 16.1358 56.6875 14.5308V6.78076C56.6875 6.24574 56.2539 5.81201 55.7188 5.81201H7.28125C6.74623 5.81201 6.3125 6.24574 6.3125 6.78076V55.2183C6.3125 55.7534 6.74623 56.187 7.28125 56.187H59.5938C61.1988 56.187 62.5 57.4882 62.5 59.0933C62.5 60.6983 61.1988 61.9995 59.5938 61.9995H7.28125C3.53607 61.9995 0.5 58.9634 0.5 55.2183V6.78076ZM18.9062 25.187C18.9062 23.5819 20.2074 22.2808 21.8125 22.2808H36.3438C37.9488 22.2808 39.25 23.5819 39.25 25.187C39.25 26.7921 37.9488 28.0933 36.3438 28.0933H32.4688V48.437C32.4688 50.042 31.1676 51.3433 29.5625 51.3433C27.9574 51.3433 26.6562 50.042 26.6562 48.437V28.0933H21.8125C20.2074 28.0933 18.9062 26.7921 18.9062 25.187ZM44.1933 25.4974C45.8158 23.5659 48.359 22.2808 51.8438 22.2808C55.079 22.2808 57.5198 23.3877 59.1652 25.1282C60.2676 26.2946 60.2157 28.134 59.0493 29.2366C57.8829 30.3391 56.0435 30.2873 54.941 29.1209C54.5152 28.6706 53.6665 28.0933 51.8438 28.0933C49.9035 28.0933 49.0561 28.7457 48.6442 29.236C48.1369 29.8395 47.9688 30.5965 47.9688 30.9995C47.9688 31.4025 48.1369 32.1595 48.6442 32.7631C49.0561 33.2534 49.9035 33.9058 51.8438 33.9058C52.1371 33.9058 52.4203 33.9492 52.687 34.03C55.2565 34.3958 57.1986 35.543 58.5254 37.1224C60.0526 38.9405 60.5625 41.09 60.5625 42.6245C60.5625 44.159 60.0526 46.3085 58.5254 48.1266C56.903 50.0583 54.3598 51.3433 50.875 51.3433C47.6398 51.3433 45.1989 50.2362 43.5536 48.4959C42.4511 47.3295 42.5031 45.4901 43.6694 44.3872C44.8358 43.2848 46.6753 43.3367 47.7777 44.5031C48.2036 44.9534 49.0522 45.5308 50.875 45.5308C52.8152 45.5308 53.6627 44.8782 54.0746 44.388C54.5818 43.7843 54.75 43.0275 54.75 42.6245C54.75 42.2215 54.5818 41.4647 54.0746 40.861C53.6627 40.3708 52.8152 39.7183 50.875 39.7183C50.5817 39.7183 50.2984 39.6749 50.0318 39.5939C47.4623 39.2281 45.5201 38.081 44.1933 36.5016C42.6662 34.6833 42.1562 32.534 42.1562 30.9995C42.1562 29.465 42.6662 27.3157 44.1933 25.4974Z" fill="black"/>
</g>
<path d="M70.9811 21.8275V20.6995H83.9411V21.8275H78.1331V37.4995H76.8131V21.8275H70.9811ZM92.1048 31.9555L95.0088 25.2355C95.1528 24.9235 95.1528 24.8995 95.5128 24.8995H96.5928L91.1208 37.6195C89.8008 40.6915 89.0568 42.0355 86.7768 42.0355C86.2968 42.0355 85.7688 41.9635 85.1448 41.8675L85.4088 40.7635C85.8408 40.8595 86.2248 40.9075 86.5608 40.9075C88.1688 40.9075 88.6008 40.0915 89.6328 37.7155L89.7288 37.4995L85.0248 26.5795C84.5928 25.5715 84.1848 25.1395 83.7048 25.1395V24.8995H84.7848C85.4808 24.8995 85.8648 25.1875 86.1528 25.8595L88.7928 31.9795L90.4488 36.0595L92.1048 31.9555ZM98.042 25.1395V24.8995H99.122C99.866 24.8995 100.418 25.3555 100.442 26.0275V27.0355C101.306 25.7635 102.77 24.7795 104.906 24.7795C107.834 24.7795 109.922 26.5795 109.922 29.4355V32.9635C109.922 35.8195 107.834 37.6195 104.906 37.6195C102.77 37.6195 101.306 36.6355 100.442 35.3635V42.0595H99.122V26.5795C99.122 25.6675 98.69 25.1395 98.042 25.1395ZM100.442 29.9395V32.4595C100.442 34.5955 102.098 36.5395 104.714 36.5395C107.33 36.5395 108.602 35.0995 108.602 32.9635V29.4355C108.602 27.2995 107.33 25.8595 104.714 25.8595C102.098 25.8595 100.442 27.8035 100.442 29.9395ZM123.521 29.4355V31.4995C123.521 31.7395 123.521 31.7395 123.281 31.7395H114.353V32.9635C114.353 35.0995 115.649 36.5395 118.265 36.5395C120.041 36.5395 121.289 35.7715 122.153 34.5475L122.969 35.2195C122.177 36.5875 120.665 37.6195 118.265 37.6195C114.785 37.6195 113.033 35.8195 113.033 32.9635V29.4355C113.033 26.5795 114.785 24.7795 118.265 24.7795C121.745 24.7795 123.521 26.5795 123.521 29.4355ZM114.353 29.4355V30.6595H122.201V29.4355C122.201 27.2995 120.881 25.8595 118.265 25.8595C115.649 25.8595 114.353 27.2995 114.353 29.4355ZM132.524 36.1315L133.052 35.1475C133.964 35.8435 135.548 36.4915 137.54 36.4915C139.172 36.4915 140.684 35.9395 140.684 34.2595C140.684 32.5795 139.22 32.0995 137.564 31.8355C135.404 31.4995 132.908 30.8035 132.908 28.1395C132.908 25.8355 135.164 24.7795 137.516 24.7795C139.268 24.7795 140.78 25.2835 141.764 25.9555L141.236 26.9635C140.516 26.4355 139.172 25.9075 137.516 25.9075C135.86 25.9075 134.252 26.6275 134.252 28.0675C134.252 29.7715 135.812 30.1795 137.564 30.4675C139.676 30.8035 142.028 31.5235 142.028 34.1875C142.028 36.7315 139.82 37.6195 137.516 37.6195C135.38 37.6195 133.604 36.9715 132.524 36.1315ZM150.237 24.7795C152.517 24.7795 153.789 25.5235 154.533 26.3155L153.909 27.0595C153.285 26.5555 152.301 25.8595 150.237 25.8595C147.621 25.8595 146.157 27.2995 146.157 29.4355V32.9395C146.157 35.0755 147.621 36.5395 150.237 36.5395C152.301 36.5395 153.285 35.8435 153.909 35.3395L154.533 36.0835C153.789 36.8755 152.517 37.6195 150.237 37.6195C146.757 37.6195 144.837 35.7955 144.837 32.9395V29.4355C144.837 26.5795 146.757 24.7795 150.237 24.7795ZM156.331 24.8995H157.363C158.107 24.8995 158.659 25.3555 158.683 26.0275V27.0595C159.451 25.6675 160.723 24.7795 162.547 24.7795C163.147 24.7795 163.435 24.8755 163.627 24.9475L163.411 26.0515C163.243 25.9795 162.859 25.9315 162.547 25.9315C160.243 25.9315 158.731 27.5395 158.731 29.9395V37.4995H157.411V26.5795C157.411 25.6675 156.979 25.1395 156.331 25.1395V24.8995ZM165.167 25.1395V24.8995H166.247C166.991 24.8995 167.543 25.3555 167.567 26.0275V37.4995H166.247V26.5795C166.247 25.6675 165.815 25.1395 165.167 25.1395ZM165.791 21.6115C165.791 21.0355 166.247 20.5795 166.799 20.5795C167.375 20.5795 167.831 21.0355 167.831 21.6115C167.831 22.1635 167.375 22.6195 166.799 22.6195C166.247 22.6195 165.791 22.1635 165.791 21.6115ZM170.722 25.1395V24.8995H171.802C172.546 24.8995 173.098 25.3555 173.122 26.0275V27.0355C173.986 25.7635 175.45 24.7795 177.586 24.7795C180.514 24.7795 182.602 26.5795 182.602 29.4355V32.9635C182.602 35.8195 180.514 37.6195 177.586 37.6195C175.45 37.6195 173.986 36.6355 173.122 35.3635V42.0595H171.802V26.5795C171.802 25.6675 171.37 25.1395 170.722 25.1395ZM173.122 29.9395V32.4595C173.122 34.5955 174.778 36.5395 177.394 36.5395C180.01 36.5395 181.282 35.0995 181.282 32.9635V29.4355C181.282 27.2995 180.01 25.8595 177.394 25.8595C174.778 25.8595 173.122 27.8035 173.122 29.9395ZM184.632 25.9795V25.5955C184.632 25.3555 184.632 25.3555 184.848 25.2595L185.76 24.8995H186.504V23.4595C186.504 22.5475 186.072 22.0195 185.424 22.0195V21.7795H186.504C187.248 21.7795 187.8 22.2355 187.824 22.9075V24.8995H191.04V25.9795H187.824V33.6595C187.824 35.8915 188.952 36.3715 190.512 36.3715C190.872 36.3715 191.328 36.3475 191.568 36.2995L191.784 37.3795C191.544 37.4275 191.208 37.4995 190.512 37.4995C188.256 37.4995 186.504 36.6595 186.504 33.6595V25.9795H184.632Z" fill="#1E1E1E"/>
<defs>
<clipPath id="clip0_134_208">
<rect width="62" height="62" fill="white" transform="translate(0.5 -0.000488281)"/>
</clipPath>
</defs>
</svg>
