<svg width="132" height="62" viewBox="0 0 132 62" fill="none" xmlns="http://www.w3.org/2000/svg">
<path d="M31.3313 36.2309C30.3994 36.6591 29.3783 37.2171 27.3343 38.3389C26.5593 38.7748 25.7494 39.2108 24.9957 39.6215C24.9434 39.5692 24.8891 39.5033 24.8368 39.4491C20.7933 35.1285 13.3145 32.0769 13.6323 26.2741C13.7504 24.1603 14.477 18.6113 27.9949 11.8727C39.1201 6.38953 47.9725 7.90853 49.5012 11.2778C51.6983 16.0809 44.7563 25.0186 33.2669 26.3148C31.9953 26.5727 30.682 26.5416 29.424 26.2236C28.1661 25.9057 26.9957 25.3091 25.9993 24.478C25.3909 23.8173 25.2999 23.7786 25.0751 23.9103C24.7051 24.1041 24.9434 24.7028 25.0751 25.0457C25.5134 25.8392 26.1063 26.5368 26.8188 27.0972C27.5313 27.6576 28.3489 28.0695 29.2233 28.3085C33.7447 29.2857 38.4588 28.8188 42.7006 26.9735C49.6639 24.2785 55.1006 16.7862 53.5079 10.5048C51.9095 4.13622 41.3385 2.03597 31.3371 5.58934C25.0737 7.70005 19.2869 11.0227 14.3065 15.3679C8.79625 20.5217 7.92438 25.0012 8.28088 26.8767C9.5635 33.5358 18.7434 37.87 22.4246 41.0805C22.2309 41.187 22.0681 41.2742 21.9228 41.3575C20.0861 42.2701 13.0839 45.93 11.3383 49.8012C9.35619 54.1877 11.656 57.3322 13.175 57.7546C15.4641 58.3029 17.8674 58.1227 20.0491 57.239C22.2308 56.3553 24.0821 54.8124 25.3444 52.8256C26.4164 51.1781 27.0747 49.2961 27.2632 47.3396C27.4518 45.3831 27.1651 43.41 26.4275 41.5881C26.8627 41.241 27.3268 40.9318 27.8148 40.6639C28.7525 40.1098 29.6457 39.5634 30.4381 39.141C33.1514 37.8701 36.1123 37.2158 39.1084 37.2248C45.3976 37.965 46.6395 41.8884 46.4012 43.5411C46.2897 44.1275 46.0539 44.6831 45.7097 45.1707C45.3655 45.6583 44.9208 46.0666 44.4056 46.3679C43.9696 46.645 43.8243 46.738 43.8631 46.9356C43.9154 47.2262 44.1266 47.2127 44.4966 47.1603C45.4415 46.8617 46.274 46.2842 46.8847 45.5038C47.4953 44.7233 47.8556 43.7764 47.9183 42.7874C48.112 38.9124 44.4172 34.6615 37.8762 34.7003C35.9176 34.7036 33.9786 35.09 32.1683 35.8376C31.8777 35.9577 31.5955 36.0869 31.3216 36.2251L31.3313 36.2309ZM21.9829 51.419C19.8943 53.6917 16.988 54.55 15.7325 53.8234C14.3763 53.0484 14.9129 49.6868 17.4763 47.2824C18.9944 45.9145 20.6353 44.6894 22.3781 43.6225C22.6823 43.4287 23.1318 43.173 23.6724 42.8475C23.7654 42.7952 23.8177 42.768 23.8177 42.768L24.1354 42.5743C24.5926 44.107 24.6342 45.7338 24.256 47.2879C23.8777 48.842 23.0933 50.2677 21.9829 51.419Z" fill="black"/>
<path d="M71.2753 35.5795L71.8273 34.5955C72.9313 35.4835 74.8993 36.4675 77.8993 36.4675C80.4913 36.4675 82.6993 35.6035 82.6993 33.2515C82.6993 30.4195 80.4193 29.9635 77.8033 29.5315C75.0433 29.0755 71.9233 28.2355 71.9233 24.8755C71.9233 21.9955 74.5633 20.5795 77.7073 20.5795C79.9633 20.5795 82.3153 21.2755 83.7073 22.4035L83.1553 23.3635C81.9313 22.4275 79.7953 21.7075 77.7073 21.7075C75.2833 21.7075 73.2433 22.6195 73.2433 24.8515C73.2433 27.0835 75.4033 27.7795 77.8033 28.1635C80.6353 28.6195 84.0433 29.3875 84.0433 33.0595C84.0433 36.2995 81.2353 37.6195 77.7553 37.6195C74.8993 37.6195 72.6913 36.7315 71.2753 35.5795ZM94.4532 20.5795C97.1172 20.5795 99.1332 21.2755 100.405 22.5955L99.6852 23.4355C98.4852 22.3075 96.8532 21.7075 94.4532 21.7075C90.5652 21.7075 88.2852 23.2915 88.2852 27.0355V31.1635C88.2852 34.9075 90.5652 36.4915 94.4532 36.4915C96.8532 36.4915 98.4852 35.8915 99.6852 34.7635L100.405 35.6035C99.1332 36.9235 97.1172 37.6195 94.4532 37.6195C89.8932 37.6195 86.9652 35.6275 86.9652 31.2115V26.9875C86.9652 22.5715 89.8932 20.5795 94.4532 20.5795ZM102.705 35.5795L103.257 34.5955C104.361 35.4835 106.329 36.4675 109.329 36.4675C111.921 36.4675 114.129 35.6035 114.129 33.2515C114.129 30.4195 111.849 29.9635 109.233 29.5315C106.473 29.0755 103.353 28.2355 103.353 24.8755C103.353 21.9955 105.993 20.5795 109.137 20.5795C111.393 20.5795 113.745 21.2755 115.137 22.4035L114.585 23.3635C113.361 22.4275 111.225 21.7075 109.137 21.7075C106.713 21.7075 104.673 22.6195 104.673 24.8515C104.673 27.0835 106.833 27.7795 109.233 28.1635C112.065 28.6195 115.473 29.3875 115.473 33.0595C115.473 36.2995 112.665 37.6195 109.185 37.6195C106.329 37.6195 104.121 36.7315 102.705 35.5795ZM117.963 35.5795L118.515 34.5955C119.619 35.4835 121.587 36.4675 124.587 36.4675C127.179 36.4675 129.387 35.6035 129.387 33.2515C129.387 30.4195 127.107 29.9635 124.491 29.5315C121.731 29.0755 118.611 28.2355 118.611 24.8755C118.611 21.9955 121.251 20.5795 124.395 20.5795C126.651 20.5795 129.003 21.2755 130.395 22.4035L129.843 23.3635C128.619 22.4275 126.483 21.7075 124.395 21.7075C121.971 21.7075 119.931 22.6195 119.931 24.8515C119.931 27.0835 122.091 27.7795 124.491 28.1635C127.323 28.6195 130.731 29.3875 130.731 33.0595C130.731 36.2995 127.923 37.6195 124.443 37.6195C121.587 37.6195 119.379 36.7315 117.963 35.5795Z" fill="#1E1E1E"/>
</svg>
