<svg width="167" height="62" viewBox="0 0 167 62" fill="none" xmlns="http://www.w3.org/2000/svg">
<g clip-path="url(#clip0_285_791)">
<path d="M62.5 15.4995C62.5 11.3887 60.867 7.44618 57.9602 4.53937C55.0533 1.63255 51.1109 -0.00047767 47 -0.00047767H16C13.9643 -0.00286364 11.9481 0.397135 10.0675 1.17652C8.18683 1.95591 6.47878 3.09932 5.0415 4.54102C2.1357 7.4477 0.50331 11.3895 0.50331 15.4995C0.50331 19.6096 2.1357 23.5513 5.0415 26.458L10.5621 31.9786C7.60772 33.0893 5.06205 35.0741 3.26437 37.6684C1.46669 40.2627 0.502393 43.3433 0.5 46.4995C0.5 50.6104 2.13303 54.5529 5.03984 57.4597C7.94666 60.3665 11.8891 61.9995 16 61.9995H47C49.0357 62.0019 51.0519 61.6019 52.9325 60.8225C54.8132 60.0431 56.5212 58.8997 57.9585 57.458C60.8643 54.5513 62.4967 50.6096 62.4967 46.4995C62.4967 42.3895 60.8643 38.4477 57.9585 35.541L52.4379 30.0204C55.3944 28.9128 57.9421 26.9288 59.7402 24.3338C61.5384 21.7388 62.5012 18.6566 62.5 15.4995ZM9.29367 53.211C7.50083 51.4182 6.51658 49.0389 6.51658 46.5047C6.51658 43.9704 7.49825 41.5886 9.29367 39.8009C10.9717 38.1126 13.2263 37.1215 15.6047 37.0264L34.5664 55.9881H16C14.7543 55.9898 13.5206 55.7453 12.3697 55.2687C11.2188 54.7922 10.1735 54.0929 9.29367 53.211ZM53.7063 39.7932C55.4992 41.5912 56.4808 43.9679 56.4808 46.4995C56.4808 49.0312 55.4992 51.4182 53.7037 53.2059C52.8258 54.0892 51.781 54.7894 50.6302 55.2657C49.4794 55.742 48.2455 55.9849 47 55.9804C45.7539 55.9849 44.5194 55.7417 43.3681 55.265C42.2168 54.7882 41.1717 54.0874 40.2937 53.2033L9.29367 22.2084C7.50083 20.4182 6.51917 18.0389 6.51917 15.5047C6.51917 12.9704 7.50083 10.5886 9.29625 8.80094C11.0917 7.00552 13.4683 6.01869 16 6.01869C18.5317 6.01869 20.9187 7.00294 22.7063 8.79836L53.7063 39.7932ZM53.7063 22.211C52.0279 23.8984 49.7734 24.8886 47.3952 24.9829L28.4336 6.01611H47C48.2461 6.01156 49.4806 6.25473 50.6319 6.73148C51.7832 7.20822 52.8283 7.90904 53.7063 8.79319C55.4992 10.5912 56.4808 12.9679 56.4808 15.4995C56.4808 18.0312 55.4992 20.4182 53.7037 22.211H53.7063Z" fill="black"/>
</g>
<path d="M72.0527 35.5795L72.6047 34.5955C73.7087 35.4835 75.6767 36.4675 78.6767 36.4675C81.2687 36.4675 83.4767 35.6035 83.4767 33.2515C83.4767 30.4195 81.1967 29.9635 78.5807 29.5315C75.8207 29.0755 72.7007 28.2355 72.7007 24.8755C72.7007 21.9955 75.3407 20.5795 78.4847 20.5795C80.7407 20.5795 83.0927 21.2755 84.4847 22.4035L83.9327 23.3635C82.7087 22.4275 80.5727 21.7075 78.4847 21.7075C76.0607 21.7075 74.0207 22.6195 74.0207 24.8515C74.0207 27.0835 76.1807 27.7795 78.5807 28.1635C81.4127 28.6195 84.8207 29.3875 84.8207 33.0595C84.8207 36.2995 82.0127 37.6195 78.5327 37.6195C75.6767 37.6195 73.4687 36.7315 72.0527 35.5795ZM87.0225 19.9795V19.7395H88.1025C88.8465 19.7395 89.4225 20.1955 89.4225 20.8675V27.0355C90.2865 25.7635 91.7505 24.7795 93.8865 24.7795C96.8145 24.7795 98.9025 26.5795 98.9025 29.4355V37.4995H97.5825V29.4355C97.5825 27.2995 96.3105 25.8595 93.6945 25.8595C91.0785 25.8595 89.4225 27.8035 89.4225 29.9395V37.4995H88.1025V21.4195C88.1025 20.5075 87.6705 19.9795 87.0225 19.9795ZM102.388 32.9635V29.4355C102.388 26.5795 104.308 24.7795 107.788 24.7795C111.268 24.7795 113.188 26.5795 113.188 29.4355V32.9635C113.188 35.8195 111.268 37.6195 107.788 37.6195C104.308 37.6195 102.388 35.8195 102.388 32.9635ZM103.708 29.4355V32.9635C103.708 35.0995 105.172 36.5395 107.788 36.5395C110.404 36.5395 111.868 35.0995 111.868 32.9635V29.4355C111.868 27.2995 110.404 25.8595 107.788 25.8595C105.172 25.8595 103.708 27.2995 103.708 29.4355ZM115.71 24.8995H116.742C117.486 24.8995 118.038 25.3555 118.062 26.0275V27.0595C118.83 25.6675 120.102 24.7795 121.926 24.7795C122.526 24.7795 122.814 24.8755 123.006 24.9475L122.79 26.0515C122.622 25.9795 122.238 25.9315 121.926 25.9315C119.622 25.9315 118.11 27.5395 118.11 29.9395V37.4995H116.79V26.5795C116.79 25.6675 116.358 25.1395 115.71 25.1395V24.8995ZM124.066 25.9795V25.5955C124.066 25.3555 124.066 25.3555 124.282 25.2595L125.194 24.8995H125.938V23.4595C125.938 22.5475 125.506 22.0195 124.858 22.0195V21.7795H125.938C126.682 21.7795 127.234 22.2355 127.258 22.9075V24.8995H130.474V25.9795H127.258V33.6595C127.258 35.8915 128.386 36.3715 129.946 36.3715C130.306 36.3715 130.762 36.3475 131.002 36.2995L131.218 37.3795C130.978 37.4275 130.642 37.4995 129.946 37.4995C127.69 37.4995 125.938 36.6595 125.938 33.6595V25.9795H124.066ZM138.304 24.7795C140.584 24.7795 141.856 25.5235 142.6 26.3155L141.976 27.0595C141.352 26.5555 140.368 25.8595 138.304 25.8595C135.688 25.8595 134.224 27.2995 134.224 29.4355V32.9395C134.224 35.0755 135.688 36.5395 138.304 36.5395C140.368 36.5395 141.352 35.8435 141.976 35.3395L142.6 36.0835C141.856 36.8755 140.584 37.6195 138.304 37.6195C134.824 37.6195 132.904 35.7955 132.904 32.9395V29.4355C132.904 26.5795 134.824 24.7795 138.304 24.7795ZM156.038 37.4995H155.438C155.198 37.4995 155.198 37.4995 155.15 37.2595L154.742 35.3875C153.902 36.6355 152.51 37.6195 150.374 37.6195C147.446 37.6195 145.478 35.9395 145.478 32.9635V26.4595C145.478 25.5475 145.046 25.0195 144.398 25.0195V24.7795H145.478C146.222 24.7795 146.774 25.2355 146.798 25.9075V32.9635C146.798 35.2435 147.95 36.5395 150.566 36.5395C153.182 36.5395 154.718 34.5955 154.718 32.4595V24.7795H156.038V37.4995ZM158.449 25.9795V25.5955C158.449 25.3555 158.449 25.3555 158.665 25.2595L159.577 24.8995H160.321V23.4595C160.321 22.5475 159.889 22.0195 159.241 22.0195V21.7795H160.321C161.065 21.7795 161.617 22.2355 161.641 22.9075V24.8995H164.857V25.9795H161.641V33.6595C161.641 35.8915 162.769 36.3715 164.329 36.3715C164.689 36.3715 165.145 36.3475 165.385 36.2995L165.601 37.3795C165.361 37.4275 165.025 37.4995 164.329 37.4995C162.073 37.4995 160.321 36.6595 160.321 33.6595V25.9795H158.449Z" fill="#1E1E1E"/>
<defs>
<clipPath id="clip0_285_791">
<rect width="62" height="62" fill="white" transform="translate(0.5 -0.000488281)"/>
</clipPath>
</defs>
</svg>
