<svg width="131" height="62" viewBox="0 0 131 62" fill="none" xmlns="http://www.w3.org/2000/svg">
<path d="M17.3612 37.4942C17.3564 38.8401 16.8195 40.1296 15.8675 41.0811C14.9155 42.0326 13.6258 42.5689 12.2798 42.573C10.9329 42.5696 9.64217 42.0332 8.68955 41.0811C7.73692 40.1289 7.19989 38.8384 7.1958 37.4916C7.1958 34.6938 9.48205 32.4076 12.2798 32.4076H17.3612V37.4942ZM19.9239 37.4942C19.9239 34.6964 22.2101 32.4102 25.0079 32.4102C27.8056 32.4102 30.0893 34.6964 30.0893 37.4942V50.2222C30.0859 51.5691 29.5495 52.8599 28.5974 53.8125C27.6452 54.7651 26.3548 55.3022 25.0079 55.3062C23.6606 55.3028 22.3694 54.7661 21.4167 53.8134C20.464 52.8607 19.9273 51.5696 19.9239 50.2222V37.4942ZM25.0079 16.8611C23.661 16.8577 22.3703 16.3213 21.4176 15.3692C20.465 14.417 19.928 13.1265 19.9239 11.7797C19.9239 8.98191 22.2101 6.69824 25.0079 6.69824C27.8056 6.69824 30.0893 8.98191 30.0893 11.7797V16.8637L25.0079 16.8611ZM25.0079 19.4237C27.8056 19.4237 30.0893 21.7074 30.0893 24.5052C30.0859 25.852 29.5495 27.1428 28.5974 28.0954C27.6452 29.048 26.3548 29.5851 25.0079 29.5892H12.2798C10.9325 29.5858 9.64133 29.049 8.68864 28.0963C7.73594 27.1436 7.19921 25.8525 7.1958 24.5052C7.1958 21.7074 9.48205 19.4237 12.2798 19.4237H25.0079ZM45.6384 24.5052C45.6384 21.7074 47.9246 19.4237 50.7224 19.4237C53.5201 19.4237 55.8064 21.7074 55.8064 24.5052C55.803 25.8525 55.2662 27.1436 54.3136 28.0963C53.3609 29.049 52.0697 29.5858 50.7224 29.5892H45.6384V24.5052ZM43.0783 24.5052C43.0749 25.8525 42.5382 27.1436 41.5855 28.0963C40.6328 29.049 39.3416 29.5858 37.9943 29.5892C36.647 29.5858 35.3558 29.049 34.4031 28.0963C33.4504 27.1436 32.9137 25.8525 32.9103 24.5052V11.7797C32.9103 8.98191 35.1966 6.69824 37.9943 6.69824C40.7921 6.69824 43.0783 8.98191 43.0783 11.7797V24.5052ZM37.9943 45.1382C40.7921 45.1382 43.0783 47.4245 43.0783 50.2222C43.0749 51.5696 42.5382 52.8607 41.5855 53.8134C40.6328 54.7661 39.3416 55.3028 37.9943 55.3062C36.647 55.3028 35.3558 54.7661 34.4031 53.8134C33.4504 52.8607 32.9137 51.5696 32.9103 50.2222V45.1382H37.9943ZM37.9943 42.5756C36.6474 42.5722 35.3567 42.0358 34.404 41.0837C33.4514 40.1315 32.9144 38.841 32.9103 37.4942C32.9103 34.6964 35.1966 32.4102 37.9943 32.4102H50.7224C53.5201 32.4102 55.8064 34.6964 55.8064 37.4942C55.8023 38.841 55.2653 40.1315 54.3126 41.0837C53.36 42.0358 52.0693 42.5722 50.7224 42.5756H37.9943Z" fill="black"/>
<path d="M72.0644 35.5795L72.6164 34.5955C73.7204 35.4835 75.6884 36.4675 78.6884 36.4675C81.2804 36.4675 83.4884 35.6035 83.4884 33.2515C83.4884 30.4195 81.2084 29.9635 78.5924 29.5315C75.8324 29.0755 72.7124 28.2355 72.7124 24.8755C72.7124 21.9955 75.3524 20.5795 78.4964 20.5795C80.7524 20.5795 83.1044 21.2755 84.4964 22.4035L83.9444 23.3635C82.7204 22.4275 80.5844 21.7075 78.4964 21.7075C76.0724 21.7075 74.0324 22.6195 74.0324 24.8515C74.0324 27.0835 76.1924 27.7795 78.5924 28.1635C81.4244 28.6195 84.8324 29.3875 84.8324 33.0595C84.8324 36.2995 82.0244 37.6195 78.5444 37.6195C75.6884 37.6195 73.4804 36.7315 72.0644 35.5795ZM87.0342 19.7395H88.1142C88.8582 19.7395 89.4102 20.1955 89.4342 20.8675V34.7155C89.4342 35.9155 89.5782 36.4195 90.9222 36.4195C91.1142 36.4195 91.4502 36.3955 91.7382 36.3475L91.8582 37.4035C91.5702 37.4515 91.1622 37.4995 90.8982 37.4995C89.9382 37.4995 88.1142 37.6435 88.1142 34.7155V21.4195C88.1142 20.5075 87.6822 19.9795 87.0342 19.9795V19.7395ZM103.54 37.4995H102.94C102.244 37.4995 102.196 37.4995 102.076 36.8035L101.884 35.6995V35.6755C100.708 36.9475 99.22 37.6195 97.444 37.6195C95.188 37.6195 93.58 36.3955 93.532 34.3555C93.532 31.4995 95.788 30.4435 98.98 30.1315L101.884 29.8435V29.4355C101.884 27.2995 101.14 25.8595 98.524 25.8595C96.916 25.8595 95.548 26.2435 94.684 26.8435L94.228 25.9075C94.996 25.4275 96.34 24.7795 98.524 24.7795C102.004 24.7795 103.204 26.5795 103.204 29.4355V35.7235C103.204 36.6595 103.252 37.0915 103.54 37.2595V37.4995ZM94.852 34.3555C94.876 35.8675 95.908 36.5875 97.588 36.5875C99.46 36.5875 100.732 35.8195 101.884 34.4515V30.9235L98.98 31.2115C97.252 31.3795 94.852 31.8595 94.852 34.3555ZM112.089 24.7795C114.369 24.7795 115.641 25.5235 116.385 26.3155L115.761 27.0595C115.137 26.5555 114.153 25.8595 112.089 25.8595C109.473 25.8595 108.009 27.2995 108.009 29.4355V32.9395C108.009 35.0755 109.473 36.5395 112.089 36.5395C114.153 36.5395 115.137 35.8435 115.761 35.3395L116.385 36.0835C115.641 36.8755 114.369 37.6195 112.089 37.6195C108.609 37.6195 106.689 35.7955 106.689 32.9395V29.4355C106.689 26.5795 108.609 24.7795 112.089 24.7795ZM121.927 30.4435L127.591 25.0675C127.759 24.8995 127.759 24.8995 127.999 24.8995H129.391L124.375 29.6755L129.943 37.4995H128.695C128.335 37.4995 128.311 37.4995 128.119 37.2115L123.463 30.5395L120.583 33.2755V37.4995H119.263V21.4195C119.263 20.5075 118.831 19.9795 118.183 19.9795V19.7395H119.263C120.007 19.7395 120.559 20.1955 120.583 20.8675V31.7875L121.927 30.4435Z" fill="#1E1E1E"/>
</svg>
