<svg width="2727" height="196" viewBox="0 0 2727 196" fill="none" xmlns="http://www.w3.org/2000/svg">
<g clip-path="url(#clip0_1_2)">
<path d="M580.819 69.9835C589.453 69.9835 597.82 71.6155 605.921 74.8795C614.129 78.1435 620.844 83.3275 626.067 90.4315C631.396 97.4395 634.061 106.607 634.061 117.935V191.663H605.921V122.831C605.921 111.119 602.883 102.623 596.808 97.3435C590.732 91.9675 582.898 89.2795 573.304 89.2795C567.016 89.2795 560.94 90.9115 555.077 94.1755C549.322 97.3435 544.578 101.759 540.848 107.423C537.117 112.991 535.252 119.327 535.252 126.431V191.663H507.431V73.4395H535.252V94.4635C536.211 91.1995 538.822 87.6475 543.086 83.8075C547.35 79.9675 552.786 76.7035 559.394 74.0155C566.003 71.3275 573.145 69.9835 580.819 69.9835Z" fill="#929292"/>
<path d="M437.084 191.664V73.4396H464.904V191.664H437.084ZM451.314 32.9756C446.304 32.9756 441.987 31.3916 438.363 28.2236C434.845 24.9596 433.087 21.0716 433.087 16.5596C433.087 12.0476 434.845 8.15958 438.363 4.89558C441.987 1.63157 446.304 -0.000427246 451.314 -0.000427246C454.618 -0.000427246 457.656 0.767574 460.427 2.30358C463.305 3.83958 465.597 5.85558 467.302 8.35159C469.008 10.7516 469.861 13.4876 469.861 16.5596C469.861 21.0716 468.048 24.9596 464.424 28.2236C460.8 31.3916 456.43 32.9756 451.314 32.9756Z" fill="#929292"/>
<path d="M354.633 69.9835C361.455 69.9835 367.797 70.6075 373.659 71.8555C379.628 73.1035 384.745 74.5915 389.008 76.3195C393.379 78.0475 396.47 79.5835 398.282 80.9275L387.25 96.7675C385.118 95.0395 381.281 93.1195 375.738 91.0075C370.195 88.7995 364.013 87.6955 357.191 87.6955C349.73 87.6955 343.388 89.0395 338.165 91.7275C332.942 94.3195 330.33 98.1115 330.33 103.103C330.33 108.095 332.995 112.079 338.324 115.055C343.761 117.935 351.009 120.335 360.069 122.255C367.317 123.791 374.086 125.855 380.375 128.447C386.77 131.039 391.94 134.639 395.883 139.247C399.827 143.759 401.799 149.807 401.799 157.391C401.799 164.303 400.2 170.207 397.003 175.103C393.805 179.903 389.488 183.791 384.052 186.767C378.616 189.647 372.54 191.759 365.825 193.103C359.11 194.447 352.288 195.119 345.359 195.119C337.259 195.119 329.957 194.351 323.455 192.815C316.953 191.375 311.464 189.647 306.987 187.631C302.617 185.519 299.419 183.695 297.394 182.159L308.426 164.303C311.197 166.703 315.727 169.247 322.016 171.935C328.412 174.623 335.66 175.967 343.761 175.967C352.714 175.967 359.962 174.287 365.505 170.927C371.048 167.471 373.819 163.007 373.819 157.535C373.819 153.407 372.487 150.095 369.822 147.599C367.157 145.103 363.586 143.087 359.11 141.551C354.633 140.015 349.73 138.671 344.4 137.519C339.284 136.463 334.274 135.071 329.371 133.343C324.574 131.615 320.151 129.407 316.1 126.719C312.156 123.935 309.012 120.575 306.667 116.639C304.322 112.607 303.15 107.903 303.15 102.527C303.15 95.7115 305.548 89.9035 310.344 85.1035C315.141 80.2075 321.43 76.4635 329.211 73.8715C336.992 71.2795 345.466 69.9835 354.633 69.9835Z" fill="#929292"/>
<path d="M205.634 195.119C192.097 195.119 180.052 192.383 169.499 186.911C159.053 181.439 150.846 174.047 144.877 164.735C138.908 155.327 135.923 144.719 135.923 132.911C135.923 121.103 138.908 110.447 144.877 100.943C150.846 91.4395 159.053 83.9035 169.499 78.3355C180.052 72.7675 192.097 69.9835 205.634 69.9835C219.064 69.9835 230.949 72.7675 241.288 78.3355C251.734 83.9035 259.888 91.4395 265.751 100.943C271.613 110.447 274.545 121.103 274.545 132.911C274.545 144.719 271.613 155.327 265.751 164.735C259.888 174.047 251.734 181.439 241.288 186.911C230.949 192.383 219.064 195.119 205.634 195.119ZM205.634 173.663C214.161 173.663 221.569 171.887 227.858 168.335C234.253 164.783 239.21 159.935 242.727 153.791C246.245 147.551 248.003 140.543 248.003 132.767C248.003 124.991 246.245 117.983 242.727 111.743C239.21 105.503 234.253 100.559 227.858 96.9115C221.569 93.2635 214.161 91.4395 205.634 91.4395C197 91.4395 189.485 93.2635 183.09 96.9115C176.694 100.559 171.684 105.503 168.06 111.743C164.543 117.983 162.784 124.991 162.784 132.767C162.784 140.543 164.543 147.551 168.06 153.791C171.684 159.935 176.694 164.783 183.09 168.335C189.485 171.887 197 173.663 205.634 173.663Z" fill="#929292"/>
<path d="M56.9195 23.9036H0V1.58357H141.339V23.9036H84.4199V191.664H56.9195V23.9036Z" fill="#929292"/>
<path d="M770.134 101.75C769.095 100.969 767.853 100.507 766.557 100.418C765.261 100.329 763.967 100.618 762.831 101.249L744.212 111.999C743.707 112.254 743.271 112.627 742.942 113.087C742.613 113.548 742.401 114.081 742.324 114.641C742.329 115.225 742.485 115.798 742.777 116.303C743.069 116.809 743.487 117.23 743.99 117.527L769.409 132.208L769.792 179.095C769.78 179.682 769.929 180.261 770.223 180.77C770.517 181.278 770.944 181.697 771.458 181.981C771.947 182.251 772.499 182.384 773.057 182.368C773.615 182.351 774.159 182.185 774.631 181.887L793.25 171.137C794.346 170.457 795.217 169.47 795.755 168.299C796.293 167.127 796.474 165.823 796.275 164.549L795.849 116.943L770.134 101.75Z" fill="#929292"/>
<path d="M714.541 33.9732C714.03 33.6957 713.457 33.5503 712.875 33.5503C712.293 33.5503 711.72 33.6957 711.209 33.9732C710.754 34.291 710.387 34.719 710.142 35.2173C709.898 35.7155 709.784 36.2677 709.811 36.822L709.811 58.752C709.847 60.0211 710.26 61.2508 710.997 62.2846C711.734 63.3183 712.762 64.1094 713.95 64.557C713.95 64.557 796.886 111.319 799.574 112.932L856.172 82.0795C857.366 81.5766 858.39 80.7423 859.123 79.6754C859.857 78.6084 860.269 77.3535 860.311 76.0595L860.311 54.5595C860.359 53.9949 860.254 53.428 860.008 52.9175C859.763 52.4071 859.385 51.9718 858.914 51.657C858.407 51.3645 857.832 51.2105 857.247 51.2105C856.663 51.2105 856.088 51.3645 855.581 51.657L799.681 82.2407L714.541 33.9732Z" fill="#929292"/>
<path d="M1501.2 69.9834C1509.6 69.9834 1517.74 71.6154 1525.62 74.8794C1533.61 78.1434 1540.14 83.3274 1545.22 90.4314C1550.41 97.4394 1553 106.607 1553 117.935V191.663H1525.62V122.831C1525.62 111.119 1522.66 102.623 1516.75 97.3434C1510.84 91.9674 1503.22 89.2794 1493.88 89.2794C1487.76 89.2794 1481.85 90.9114 1476.15 94.1754C1470.55 97.3434 1465.93 101.759 1462.3 107.423C1458.67 112.991 1456.86 119.327 1456.86 126.431V191.663H1429.79V73.4394H1456.86V94.4634C1457.79 91.1994 1460.33 87.6474 1464.48 83.8074C1468.63 79.9674 1473.92 76.7034 1480.35 74.0154C1486.78 71.3274 1493.73 69.9834 1501.2 69.9834Z" fill="#929292"/>
<path d="M1361.34 191.664V73.4395H1388.41V191.664H1361.34ZM1375.19 32.9755C1370.31 32.9755 1366.11 31.3915 1362.59 28.2235C1359.16 24.9595 1357.45 21.0715 1357.45 16.5595C1357.45 12.0475 1359.16 8.15952 1362.59 4.89552C1366.11 1.63151 1370.31 -0.000488281 1375.19 -0.000488281C1378.4 -0.000488281 1381.36 0.767513 1384.05 2.30352C1386.86 3.83952 1389.08 5.85552 1390.74 8.35152C1392.4 10.7515 1393.23 13.4875 1393.23 16.5595C1393.23 21.0715 1391.47 24.9595 1387.94 28.2235C1384.42 31.3915 1380.17 32.9755 1375.19 32.9755Z" fill="#929292"/>
<path d="M1281.12 69.9834C1287.75 69.9834 1293.93 70.6074 1299.63 71.8554C1305.44 73.1034 1310.42 74.5914 1314.56 76.3194C1318.82 78.0474 1321.82 79.5834 1323.59 80.9274L1312.85 96.7674C1310.78 95.0394 1307.05 93.1194 1301.65 91.0074C1296.26 88.7994 1290.24 87.6954 1283.61 87.6954C1276.35 87.6954 1270.18 89.0394 1265.09 91.7274C1260.01 94.3194 1257.47 98.1114 1257.47 103.103C1257.47 108.095 1260.06 112.079 1265.25 115.055C1270.54 117.935 1277.59 120.335 1286.41 122.255C1293.46 123.791 1300.04 125.855 1306.16 128.447C1312.39 131.039 1317.42 134.639 1321.25 139.247C1325.09 143.759 1327.01 149.807 1327.01 157.391C1327.01 164.303 1325.45 170.207 1322.34 175.103C1319.23 179.903 1315.03 183.791 1309.74 186.767C1304.45 189.647 1298.54 191.759 1292.01 193.103C1285.47 194.447 1278.84 195.119 1272.09 195.119C1264.21 195.119 1257.11 194.351 1250.78 192.815C1244.45 191.375 1239.11 189.647 1234.76 187.631C1230.51 185.519 1227.39 183.695 1225.42 182.159L1236.16 164.303C1238.85 166.703 1243.26 169.247 1249.38 171.935C1255.6 174.623 1262.66 175.967 1270.54 175.967C1279.25 175.967 1286.3 174.287 1291.7 170.927C1297.09 167.471 1299.79 163.007 1299.79 157.535C1299.79 153.407 1298.49 150.095 1295.9 147.599C1293.3 145.103 1289.83 143.087 1285.47 141.551C1281.12 140.015 1276.35 138.671 1271.16 137.519C1266.18 136.463 1261.31 135.071 1256.54 133.343C1251.87 131.615 1247.57 129.407 1243.63 126.719C1239.79 123.935 1236.73 120.575 1234.45 116.639C1232.16 112.607 1231.02 107.903 1231.02 102.527C1231.02 95.7114 1233.36 89.9034 1238.02 85.1034C1242.69 80.2074 1248.81 76.4634 1256.38 73.8714C1263.95 71.2794 1272.2 69.9834 1281.12 69.9834Z" fill="#929292"/>
<path d="M1136.14 195.119C1122.97 195.119 1111.25 192.383 1100.98 186.911C1090.82 181.439 1082.83 174.047 1077.03 164.735C1071.22 155.327 1068.31 144.719 1068.31 132.911C1068.31 121.103 1071.22 110.447 1077.03 100.943C1082.83 91.4394 1090.82 83.9034 1100.98 78.3354C1111.25 72.7674 1122.97 69.9834 1136.14 69.9834C1149.21 69.9834 1160.77 72.7674 1170.83 78.3354C1181 83.9034 1188.93 91.4394 1194.64 100.943C1200.34 110.447 1203.19 121.103 1203.19 132.911C1203.19 144.719 1200.34 155.327 1194.64 164.735C1188.93 174.047 1181 181.439 1170.83 186.911C1160.77 192.383 1149.21 195.119 1136.14 195.119ZM1136.14 173.663C1144.44 173.663 1151.65 171.887 1157.77 168.335C1163.99 164.783 1168.81 159.935 1172.23 153.791C1175.66 147.551 1177.37 140.543 1177.37 132.767C1177.37 124.991 1175.66 117.983 1172.23 111.743C1168.81 105.503 1163.99 100.559 1157.77 96.9114C1151.65 93.2634 1144.44 91.4394 1136.14 91.4394C1127.74 91.4394 1120.43 93.2634 1114.21 96.9114C1107.98 100.559 1103.11 105.503 1099.58 111.743C1096.16 117.983 1094.45 124.991 1094.45 132.767C1094.45 140.543 1096.16 147.551 1099.58 153.791C1103.11 159.935 1107.98 164.783 1114.21 168.335C1120.43 171.887 1127.74 173.663 1136.14 173.663Z" fill="#929292"/>
<path d="M991.444 23.9035H936.061V1.5835H1073.58V23.9035H1018.2V191.663H991.444V23.9035Z" fill="#929292"/>
<path d="M1689.07 101.75C1688.03 100.969 1686.79 100.507 1685.5 100.418C1684.2 100.329 1682.91 100.618 1681.77 101.249L1663.15 111.999C1662.65 112.254 1662.21 112.627 1661.88 113.087C1661.55 113.548 1661.34 114.081 1661.26 114.641C1661.27 115.225 1661.42 115.798 1661.72 116.303C1662.01 116.809 1662.43 117.23 1662.93 117.527L1688.35 132.208L1688.73 179.095C1688.72 179.682 1688.87 180.261 1689.16 180.77C1689.46 181.278 1689.88 181.697 1690.4 181.981C1690.89 182.251 1691.44 182.384 1692 182.368C1692.55 182.351 1693.1 182.185 1693.57 181.887L1712.19 171.137C1713.28 170.457 1714.16 169.47 1714.69 168.299C1715.23 167.127 1715.41 165.823 1715.21 164.549L1714.79 116.943L1689.07 101.75Z" fill="#929292"/>
<path d="M1633.48 33.9732C1632.97 33.6957 1632.4 33.5503 1631.81 33.5503C1631.23 33.5503 1630.66 33.6957 1630.15 33.9732C1629.69 34.291 1629.33 34.719 1629.08 35.2173C1628.84 35.7155 1628.72 36.2677 1628.75 36.822L1628.75 58.752C1628.79 60.0211 1629.2 61.2508 1629.94 62.2846C1630.67 63.3183 1631.7 64.1094 1632.89 64.557C1632.89 64.557 1715.82 111.319 1718.51 112.932L1775.11 82.0795C1776.3 81.5766 1777.33 80.7423 1778.06 79.6754C1778.8 78.6084 1779.21 77.3535 1779.25 76.0595L1779.25 54.5595C1779.3 53.9949 1779.19 53.428 1778.95 52.9175C1778.7 52.4071 1778.32 51.9718 1777.85 51.657C1777.35 51.3645 1776.77 51.2105 1776.19 51.2105C1775.6 51.2105 1775.03 51.3645 1774.52 51.657L1718.62 82.2407L1633.48 33.9732Z" fill="#929292"/>
<path d="M2435.82 69.9834C2444.45 69.9834 2452.82 71.6154 2460.92 74.8794C2469.13 78.1434 2475.84 83.3274 2481.07 90.4314C2486.4 97.4394 2489.06 106.607 2489.06 117.935V191.663H2460.92V122.831C2460.92 111.119 2457.88 102.623 2451.81 97.3434C2445.73 91.9674 2437.9 89.2794 2428.3 89.2794C2422.02 89.2794 2415.94 90.9114 2410.08 94.1754C2404.32 97.3434 2399.58 101.759 2395.85 107.423C2392.12 112.991 2390.25 119.327 2390.25 126.431V191.663H2362.43V73.4394H2390.25V94.4634C2391.21 91.1994 2393.82 87.6474 2398.09 83.8074C2402.35 79.9674 2407.79 76.7034 2414.39 74.0154C2421 71.3274 2428.14 69.9834 2435.82 69.9834Z" fill="#929292"/>
<path d="M2292.08 191.664V73.4395H2319.9V191.664H2292.08ZM2306.31 32.9755C2301.3 32.9755 2296.99 31.3915 2293.36 28.2235C2289.85 24.9595 2288.09 21.0715 2288.09 16.5595C2288.09 12.0475 2289.85 8.15952 2293.36 4.89552C2296.99 1.63151 2301.3 -0.000488281 2306.31 -0.000488281C2309.62 -0.000488281 2312.66 0.767513 2315.43 2.30352C2318.31 3.83952 2320.6 5.85552 2322.3 8.35152C2324.01 10.7515 2324.86 13.4875 2324.86 16.5595C2324.86 21.0715 2323.05 24.9595 2319.42 28.2235C2315.8 31.3915 2311.43 32.9755 2306.31 32.9755Z" fill="#929292"/>
<path d="M2209.63 69.9834C2216.45 69.9834 2222.8 70.6074 2228.66 71.8554C2234.63 73.1034 2239.74 74.5914 2244.01 76.3194C2248.38 78.0474 2251.47 79.5834 2253.28 80.9274L2242.25 96.7674C2240.12 95.0394 2236.28 93.1194 2230.74 91.0074C2225.2 88.7994 2219.01 87.6954 2212.19 87.6954C2204.73 87.6954 2198.39 89.0394 2193.16 91.7274C2187.94 94.3194 2185.33 98.1114 2185.33 103.103C2185.33 108.095 2187.99 112.079 2193.32 115.055C2198.76 117.935 2206.01 120.335 2215.07 122.255C2222.32 123.791 2229.09 125.855 2235.37 128.447C2241.77 131.039 2246.94 134.639 2250.88 139.247C2254.83 143.759 2256.8 149.807 2256.8 157.391C2256.8 164.303 2255.2 170.207 2252 175.103C2248.8 179.903 2244.49 183.791 2239.05 186.767C2233.62 189.647 2227.54 191.759 2220.82 193.103C2214.11 194.447 2207.29 195.119 2200.36 195.119C2192.26 195.119 2184.96 194.351 2178.45 192.815C2171.95 191.375 2166.46 189.647 2161.99 187.631C2157.62 185.519 2154.42 183.695 2152.39 182.159L2163.43 164.303C2166.2 166.703 2170.73 169.247 2177.02 171.935C2183.41 174.623 2190.66 175.967 2198.76 175.967C2207.71 175.967 2214.96 174.287 2220.51 170.927C2226.05 167.471 2228.82 163.007 2228.82 157.535C2228.82 153.407 2227.49 150.095 2224.82 147.599C2222.16 145.103 2218.59 143.087 2214.11 141.551C2209.63 140.015 2204.73 138.671 2199.4 137.519C2194.28 136.463 2189.27 135.071 2184.37 133.343C2179.57 131.615 2175.15 129.407 2171.1 126.719C2167.16 123.935 2164.01 120.575 2161.67 116.639C2159.32 112.607 2158.15 107.903 2158.15 102.527C2158.15 95.7114 2160.55 89.9034 2165.34 85.1034C2170.14 80.2074 2176.43 76.4634 2184.21 73.8714C2191.99 71.2794 2200.47 69.9834 2209.63 69.9834Z" fill="#929292"/>
<path d="M2060.63 195.119C2047.1 195.119 2035.05 192.383 2024.5 186.911C2014.05 181.439 2005.85 174.047 1999.88 164.735C1993.91 155.327 1990.92 144.719 1990.92 132.911C1990.92 121.103 1993.91 110.447 1999.88 100.943C2005.85 91.4394 2014.05 83.9034 2024.5 78.3354C2035.05 72.7674 2047.1 69.9834 2060.63 69.9834C2074.06 69.9834 2085.95 72.7674 2096.29 78.3354C2106.73 83.9034 2114.89 91.4394 2120.75 100.943C2126.61 110.447 2129.54 121.103 2129.54 132.911C2129.54 144.719 2126.61 155.327 2120.75 164.735C2114.89 174.047 2106.73 181.439 2096.29 186.911C2085.95 192.383 2074.06 195.119 2060.63 195.119ZM2060.63 173.663C2069.16 173.663 2076.57 171.887 2082.86 168.335C2089.25 164.783 2094.21 159.935 2097.73 153.791C2101.24 147.551 2103 140.543 2103 132.767C2103 124.991 2101.24 117.983 2097.73 111.743C2094.21 105.503 2089.25 100.559 2082.86 96.9114C2076.57 93.2634 2069.16 91.4394 2060.63 91.4394C2052 91.4394 2044.48 93.2634 2038.09 96.9114C2031.69 100.559 2026.68 105.503 2023.06 111.743C2019.54 117.983 2017.78 124.991 2017.78 132.767C2017.78 140.543 2019.54 147.551 2023.06 153.791C2026.68 159.935 2031.69 164.783 2038.09 168.335C2044.48 171.887 2052 173.663 2060.63 173.663Z" fill="#929292"/>
<path d="M1911.92 23.9035H1855V1.58351H1996.34V23.9035H1939.42V191.664H1911.92V23.9035Z" fill="#929292"/>
<path d="M2625.13 101.75C2624.1 100.969 2622.85 100.507 2621.56 100.418C2620.26 100.329 2618.97 100.618 2617.83 101.249L2599.21 111.999C2598.71 112.254 2598.27 112.627 2597.94 113.087C2597.61 113.548 2597.4 114.081 2597.32 114.641C2597.33 115.225 2597.48 115.798 2597.78 116.303C2598.07 116.809 2598.49 117.23 2598.99 117.527L2624.41 132.208L2624.79 179.095C2624.78 179.682 2624.93 180.261 2625.22 180.77C2625.52 181.278 2625.94 181.697 2626.46 181.981C2626.95 182.251 2627.5 182.384 2628.06 182.368C2628.62 182.351 2629.16 182.185 2629.63 181.887L2648.25 171.137C2649.35 170.457 2650.22 169.47 2650.75 168.299C2651.29 167.127 2651.47 165.823 2651.27 164.549L2650.85 116.943L2625.13 101.75Z" fill="#929292"/>
<path d="M2569.54 33.9732C2569.03 33.6957 2568.46 33.5503 2567.87 33.5503C2567.29 33.5503 2566.72 33.6957 2566.21 33.9732C2565.75 34.291 2565.39 34.719 2565.14 35.2173C2564.9 35.7155 2564.78 36.2677 2564.81 36.822L2564.81 58.752C2564.85 60.0211 2565.26 61.2508 2566 62.2846C2566.73 63.3183 2567.76 64.1094 2568.95 64.557C2568.95 64.557 2651.89 111.319 2654.57 112.932L2711.17 82.0795C2712.37 81.5766 2713.39 80.7423 2714.12 79.6754C2714.86 78.6084 2715.27 77.3535 2715.31 76.0595L2715.31 54.5595C2715.36 53.9949 2715.25 53.428 2715.01 52.9175C2714.76 52.4071 2714.38 51.9718 2713.91 51.657C2713.41 51.3645 2712.83 51.2105 2712.25 51.2105C2711.66 51.2105 2711.09 51.3645 2710.58 51.657L2654.68 82.2407L2569.54 33.9732Z" fill="#929292"/>
</g>
<defs>
<clipPath id="clip0_1_2">
<rect width="2726.06" height="195.12" fill="white" transform="translate(0 -0.000488281)"/>
</clipPath>
</defs>
</svg>
