<svg width="137" height="62" viewBox="0 0 137 62" fill="none" xmlns="http://www.w3.org/2000/svg">
<path d="M31 2.58301L62 56.833H0L31 2.58301Z" fill="black"/>
<path d="M79.1333 31.9795L82.0373 25.2355C82.1813 24.9235 82.1813 24.8995 82.5413 24.8995H83.4053L77.9813 37.4995H76.5413L71.8373 26.5795C71.4053 25.5715 70.9973 25.1395 70.5173 25.1395V24.8995H71.5973C72.2933 24.8995 72.6773 25.1875 72.9653 25.8595L75.6053 31.9795L77.3813 36.2995L79.1333 31.9795ZM95.5675 29.4355V31.4995C95.5675 31.7395 95.5675 31.7395 95.3275 31.7395H86.3995V32.9635C86.3995 35.0995 87.6955 36.5395 90.3115 36.5395C92.0875 36.5395 93.3355 35.7715 94.1995 34.5475L95.0155 35.2195C94.2235 36.5875 92.7115 37.6195 90.3115 37.6195C86.8315 37.6195 85.0795 35.8195 85.0795 32.9635V29.4355C85.0795 26.5795 86.8315 24.7795 90.3115 24.7795C93.7915 24.7795 95.5675 26.5795 95.5675 29.4355ZM86.3995 29.4355V30.6595H94.2475V29.4355C94.2475 27.2995 92.9275 25.8595 90.3115 25.8595C87.6955 25.8595 86.3995 27.2995 86.3995 29.4355ZM98.0967 24.8995H99.1287C99.8727 24.8995 100.425 25.3555 100.449 26.0275V27.0595C101.217 25.6675 102.489 24.7795 104.313 24.7795C104.913 24.7795 105.201 24.8755 105.393 24.9475L105.177 26.0515C105.009 25.9795 104.625 25.9315 104.313 25.9315C102.009 25.9315 100.497 27.5395 100.497 29.9395V37.4995H99.1767V26.5795C99.1767 25.6675 98.7447 25.1395 98.0967 25.1395V24.8995ZM111.995 24.7795C114.275 24.7795 115.547 25.5235 116.291 26.3155L115.667 27.0595C115.043 26.5555 114.059 25.8595 111.995 25.8595C109.379 25.8595 107.915 27.2995 107.915 29.4355V32.9395C107.915 35.0755 109.379 36.5395 111.995 36.5395C114.059 36.5395 115.043 35.8435 115.667 35.3395L116.291 36.0835C115.547 36.8755 114.275 37.6195 111.995 37.6195C108.515 37.6195 106.595 35.7955 106.595 32.9395V29.4355C106.595 26.5795 108.515 24.7795 111.995 24.7795ZM128.896 29.4355V31.4995C128.896 31.7395 128.896 31.7395 128.656 31.7395H119.728V32.9635C119.728 35.0995 121.024 36.5395 123.64 36.5395C125.416 36.5395 126.664 35.7715 127.528 34.5475L128.344 35.2195C127.552 36.5875 126.04 37.6195 123.64 37.6195C120.16 37.6195 118.408 35.8195 118.408 32.9635V29.4355C118.408 26.5795 120.16 24.7795 123.64 24.7795C127.12 24.7795 128.896 26.5795 128.896 29.4355ZM119.728 29.4355V30.6595H127.576V29.4355C127.576 27.2995 126.256 25.8595 123.64 25.8595C121.024 25.8595 119.728 27.2995 119.728 29.4355ZM131.425 19.7395H132.505C133.249 19.7395 133.801 20.1955 133.825 20.8675V34.7155C133.825 35.9155 133.969 36.4195 135.313 36.4195C135.505 36.4195 135.841 36.3955 136.129 36.3475L136.249 37.4035C135.961 37.4515 135.553 37.4995 135.289 37.4995C134.329 37.4995 132.505 37.6435 132.505 34.7155V21.4195C132.505 20.5075 132.073 19.9795 131.425 19.9795V19.7395Z" fill="#1E1E1E"/>
</svg>
