<svg width="136" height="62" viewBox="0 0 136 62" fill="none" xmlns="http://www.w3.org/2000/svg">
<path d="M47.0929 7.78613H37.7812L31 18.5141L25.1875 7.78613H3.875L31 54.2493L58.125 7.78613H47.0929ZM10.6194 11.6611H17.1353L31 35.6609L44.8531 11.6611H51.3689L31.0019 46.5594L10.6194 11.6611Z" fill="black"/>
<path d="M78.8677 31.9795L81.7717 25.2355C81.9157 24.9235 81.9157 24.8995 82.2757 24.8995H83.1397L77.7157 37.4995H76.2757L71.5717 26.5795C71.1397 25.5715 70.7317 25.1395 70.2517 25.1395V24.8995H71.3317C72.0277 24.8995 72.4117 25.1875 72.6997 25.8595L75.3397 31.9795L77.1157 36.2995L78.8677 31.9795ZM96.2289 37.4995H95.6289C95.3889 37.4995 95.3889 37.4995 95.3409 37.2595L94.9329 35.3875C94.0929 36.6355 92.7009 37.6195 90.5649 37.6195C87.6369 37.6195 85.6689 35.9395 85.6689 32.9635V26.4595C85.6689 25.5475 85.2369 25.0195 84.5889 25.0195V24.7795H85.6689C86.4129 24.7795 86.9649 25.2355 86.9889 25.9075V32.9635C86.9889 35.2435 88.1409 36.5395 90.7569 36.5395C93.3729 36.5395 94.9089 34.5955 94.9089 32.4595V24.7795H96.2289V37.4995ZM110.208 29.4355V31.4995C110.208 31.7395 110.208 31.7395 109.968 31.7395H101.04V32.9635C101.04 35.0995 102.336 36.5395 104.952 36.5395C106.728 36.5395 107.976 35.7715 108.84 34.5475L109.656 35.2195C108.864 36.5875 107.352 37.6195 104.952 37.6195C101.472 37.6195 99.7202 35.8195 99.7202 32.9635V29.4355C99.7202 26.5795 101.472 24.7795 104.952 24.7795C108.432 24.7795 110.208 26.5795 110.208 29.4355ZM101.04 29.4355V30.6595H108.888V29.4355C108.888 27.2995 107.568 25.8595 104.952 25.8595C102.336 25.8595 101.04 27.2995 101.04 29.4355ZM117.532 42.1555L117.748 41.1715C119.572 41.0515 120.532 40.3795 120.532 38.2435V26.5795C120.532 25.6675 120.1 25.1395 119.452 25.1395V24.8995H120.532C121.276 24.8995 121.828 25.3555 121.852 26.0275V38.2435C121.852 40.9795 120.388 42.1555 117.532 42.1555ZM120.076 21.6115C120.076 21.0355 120.532 20.5795 121.084 20.5795C121.66 20.5795 122.116 21.0355 122.116 21.6115C122.116 22.1635 121.66 22.6195 121.084 22.6195C120.532 22.6195 120.076 22.1635 120.076 21.6115ZM125.235 36.1315L125.763 35.1475C126.675 35.8435 128.259 36.4915 130.251 36.4915C131.883 36.4915 133.395 35.9395 133.395 34.2595C133.395 32.5795 131.931 32.0995 130.275 31.8355C128.115 31.4995 125.619 30.8035 125.619 28.1395C125.619 25.8355 127.875 24.7795 130.227 24.7795C131.979 24.7795 133.491 25.2835 134.475 25.9555L133.947 26.9635C133.227 26.4355 131.883 25.9075 130.227 25.9075C128.571 25.9075 126.963 26.6275 126.963 28.0675C126.963 29.7715 128.523 30.1795 130.275 30.4675C132.387 30.8035 134.739 31.5235 134.739 34.1875C134.739 36.7315 132.531 37.6195 130.227 37.6195C128.091 37.6195 126.315 36.9715 125.235 36.1315Z" fill="#1E1E1E"/>
</svg>
